<?xml version="1.0" encoding="UTF-8" standalone="no"?>
<svg
   xmlns:dc="http://purl.org/dc/elements/1.1/"
   xmlns:cc="http://creativecommons.org/ns#"
   xmlns:rdf="http://www.w3.org/1999/02/22-rdf-syntax-ns#"
   xmlns:svg="http://www.w3.org/2000/svg"
   xmlns="http://www.w3.org/2000/svg"
   xmlns:sodipodi="http://sodipodi.sourceforge.net/DTD/sodipodi-0.dtd"
   xmlns:inkscape="http://www.inkscape.org/namespaces/inkscape"
   id="svg2"
   viewBox="0 0 2569 3246"
   version="1.1"
   inkscape:version="0.48.4 r9939"
   width="100%"
   height="100%"
   sodipodi:docname="1316029514.svg">
  <defs
     id="defs118" />
  <sodipodi:namedview
     pagecolor="#ffffff"
     bordercolor="#666666"
     borderopacity="1"
     objecttolerance="10"
     gridtolerance="10"
     guidetolerance="10"
     inkscape:pageopacity="0"
     inkscape:pageshadow="2"
     inkscape:window-width="1119"
     inkscape:window-height="906"
     id="namedview116"
     showgrid="false"
     inkscape:zoom="0.20564042"
     inkscape:cx="1284.85"
     inkscape:cy="1623"
     inkscape:window-x="1629"
     inkscape:window-y="89"
     inkscape:window-maximized="0"
     inkscape:current-layer="svg2" />
  <g
     id="layer2"
     transform="translate(524.7 603.19)">
    <g
       id="g4032"
       stroke="#000"
       stroke-width="4">
      <g
         id="g4012">
        <path
           id="path3070"
           d="m621.18 1855.6c-3.2242-805.91-29.399-1610.7-20.331-2430.6-25.927-36.681-112.74-32.877-134.4 0-17.422 798.48-58.353 1622.1-89.465 2422.9z"
           stroke-width="4"
           fill="#c1b6b4" />
        <g
           id="g3994"
           stroke-width=".88222">
          <g
             id="g3864"
             transform="matrix(4.534 0 0 4.534 -2837.3 -2467)">
            <path
               id="path3842"
               d="m743.12 411.53c-5.3364 0.0918-10.578 1.6513-13.406 4.4688-0.3552 0.40416-0.70348 0.84388-1.0625 1.2812l-1.5799 68.714c5.9356-7.5936 25.258-7.6617 30.815-0.24157l0.42073-68.473c-0.29379-0.36861-0.57913-0.71203-0.875-1.0625-3.1292-3.3063-8.7717-4.7828-14.312-4.6875z"
               fill="#a00" />
            <path
               id="path3854"
               d="m727.34 474.43c12.463-7.6408 21.185-5.6041 30.619-0.002l-0.004-11.867c-9.4794-8.0269-24.895-5.7605-30.339-0.12359z"
               fill="#fff" />
            <path
               id="path3856"
               d="m727.93 452.2c10.349-9.7245 26.105-4.9954 30.173-0.25232l-0.003-12.499c-6.8086-7.043-24.883-5.833-29.959 0.39318z"
               fill="#fff" />
          </g>
          <g
             id="g3869"
             transform="matrix(4.534 0 0 4.534 -2837.3 -2467)">
            <path
               id="path3862"
               d="m722.54 617.24c12.239-5.4356 26.247-4.378 36.092-0.25066l-0.54206-60.61c-13.662-6.5951-25.725-3.8341-33.38 0.25659z"
               fill="#a00" />
            <path
               id="path3858"
               d="m723 604.61c12.423-5.8887 24.065-4.8567 35.49-0.003l-0.11291-11.363c-10.024-6.64-26.584-4.9742-34.954-0.22601z"
               fill="#fff" />
            <path
               id="path3860"
               d="m723.9 579.86 0.39877-11.368c10.686-4.2645 21.845-5.7928 33.872 0.006l0.0995 12.373c-11.372-5.7881-26.457-5.1516-34.37-1.0112z"
               fill="#fff" />
          </g>
          <g
             id="g3874"
             transform="matrix(4.534 0 0 4.534 -2831.6 -1963.4)">
            <path
               id="path3876"
               d="m716.76 619.88c12.06-3.1141 31.606-2.4616 42.165-0.11995l-0.84177-63.383c-13.662-6.5951-31.087-4.2153-38.743-0.12456z"
               fill="#a00" />
            <path
               id="path3878"
               d="m717.27 607.65c10.281-4.2815 31.092-3.5736 41.502 0.18476l-0.38648-13.517c-10.738-4.8543-28.626-4.9674-40.567-0.39778z"
               fill="#fff" />
            <path
               id="path3880"
               d="m718.31 582.13 0.55959-13.912c10.686-4.2645 29.062-4.4434 39.303 0.28388l0.18304 12.751c-10.247-3.6435-29.518-3.483-40.046 0.87714z"
               fill="#fff" />
          </g>
          <g
             id="g3882"
             transform="matrix(4.534 0 0 4.534 -2823.9 -1423)">
            <path
               id="path3884"
               d="m709.86 625.67c11.425-4.7008 37.892-4.7244 49.163-0.60449l-0.93285-68.683c-13.662-6.5951-37.677-4.0061-45.332 0.0846z"
               fill="#a00" />
            <path
               id="path3886"
               d="m710.44 611.7c10.281-4.2815 37.984-4.0966 48.395-0.33815l-0.18701-13.768c-11.428-5.199-36.323-5.0665-47.607-0.16823z"
               fill="#fff" />
            <path
               id="path3888"
               d="m711.57 584.63 0.62337-14.919c10.686-4.2645 35.825-4.9383 46.067-0.211l0.19715 14.515c-10.627-4.7831-36.65-4.618-46.887 0.61534z"
               fill="#fff" />
          </g>
        </g>
      </g>
      <g
         id="g3971">
        <path
           id="path3068"
           d="m665.22 1868.8 253.33-4.8578c-26.86-702.9-67.77-1400.6-50.02-2115.9-38.52-47.96-127.57-42.02-158.78 0.26 18.74 739.91-16.93 1490.3-44.53 2120.5z"
           stroke-width="4"
           fill="#c9bdbd" />
        <g
           id="g3950"
           stroke-width=".88222">
          <g
             id="g3908"
             transform="matrix(4.534 0 0 4.534 -2594 -2143.7)">
            <path
               id="path3910"
               d="m728.66 417.28 0.94722 53.946c5.9356-7.5936 27.661-8.1748 33.219-0.7546l0.8538-53.252c-6.4351-8.8958-27.385-10.588-35.02 0.0606z"
               fill="#a00" />
            <path
               id="path3912"
               d="m729.48 460.67c12.463-7.6408 24.07-5.9981 33.504-0.39597l0.0527-9.9586c-9.4794-8.0269-28.255-5.2505-33.699 0.38648z"
               fill="#fff" />
            <path
               id="path3914"
               d="m729.1 442.61c10.349-9.7245 29.996-5.367 34.064-0.62394l0.20657-11.241c-6.8086-7.043-29.322-6.076-34.398 0.15026z"
               fill="#fff" />
          </g>
          <g
             id="g3916"
             transform="matrix(4.534 0 0 4.534 -2573 -2361.5)">
            <path
               id="path3918"
               d="m724.93 607.26c12.239-5.4356 23.829-3.7392 33.674 0.3882l-0.49495-51.9c-9.7479-6.4688-25.278-4.5909-32.934-0.50016z"
               fill="#a00" />
            <path
               id="path3920"
               d="m725.04 596.02c12.423-5.8887 21.795-3.8347 33.459-0.11839l-0.0903-9.4714c-10.024-6.2612-24.932-4.8507-33.302-0.10246z"
               fill="#fff" />
            <path
               id="path3922"
               d="m725.15 576.83 0.0287-11.493c10.686-4.2645 20.999-5.6616 33.027 0.1372l0.10349 10.852c-10.24-4.9703-24.027-4.608-33.159 0.50398z"
               fill="#fff" />
          </g>
          <g
             id="g3924"
             transform="matrix(4.534 0 0 4.534 -2576.8 -1940.3)">
            <path
               id="path3926"
               d="m724.02 606.75c12.618-3.9194 28.126-3.3271 37.678-0.36776l-1.4399-50.764c-9.7479-6.4688-27.422-4.4586-35.077-0.36789z"
               fill="#a00" />
            <path
               id="path3928"
               d="m724.27 597.03c12.617-4.9196 25.614-3.8793 37.137-0.86876l-0.29347-10.346c-10.665-4.9799-28.558-3.7909-36.577 0.25558z"
               fill="#fff" />
            <path
               id="path3930"
               d="m724.77 575.94 0.2004-11.234c11.321-3.2052 23.857-4.8241 35.527 0.37874l0.31217 9.8567c-9.9711-3.1083-25.902-3.3498-36.039 0.99899z"
               fill="#fff" />
          </g>
          <g
             id="g3932"
             transform="matrix(4.534 0 0 4.534 -2588.3 -1497.6)">
            <path
               id="path3934"
               d="m723.08 613.18c12.618-3.9194 35.527-3.321 45.08-0.36171l-2.2674-56.939c-9.7479-6.4688-33.062-4.727-40.717-0.63629z"
               fill="#a00" />
            <path
               id="path3936"
               d="m723.47 602.46c12.617-4.9196 32.733-3.2565 44.255-0.24596l-0.42172-10.967c-10.665-4.9799-35.349-4.5615-43.368-0.51502z"
               fill="#fff" />
            <path
               id="path3938"
               d="m724.27 580.36 0.4152-11.479c11.321-3.2052 30.062-4.5892 41.732 0.61367l0.45476 10.886c-9.9711-3.1083-32.464-4.3694-42.602-0.0206z"
               fill="#fff" />
          </g>
          <g
             id="g3944"
             transform="matrix(4.534 0 0 4.534 -2837.3 -2467)">
            <path
               id="path3940"
               d="m776.42 865.98-1.4784 34.599c14.947-2.9039 31.564-3.661 51.217-0.51588l-1.4193-33.844c-16.476-3.773-32.515-3.1863-48.319-0.23887z"
               fill="#a00" />
            <path
               id="path3942"
               d="m775.43 889.23 0.54686-12.657c14.573-1.8603 28.773-4.136 49.224 0.53368l0.47423 11.355c-25.144-3.7208-37.563-1.4139-50.245 0.76874z"
               fill="#fff" />
          </g>
        </g>
      </g>
    </g>
  </g>
  <g
     id="layer3"
     transform="translate(524.7 603.19)">
    <g
       id="g4148"
       stroke="#000"
       stroke-width="4">
      <path
         id="path4120"
         d="m1540 1392.4 260 300-260 140z"
         fill="#666" />
      <g
         id="g4141">
        <g
           id="g4132">
          <path
             id="path4126"
             d="m840 1622.4v-145l695-35v165z"
             fill="#1a1a1a" />
          <path
             id="path4128"
             d="m840 1622.4h-5v-140h5z"
             fill="#b3b3b3" />
          <path
             id="path4130"
             d="m1535 1597.4v-145h5v145z"
             fill="#b3b3b3" />
        </g>
        <path
           id="path4139"
           d="m1540 1587.4 205 135 45-25-250-235z"
           fill="#111" />
      </g>
      <path
         id="path4122"
         d="m810 1492.4v-90l750-30v90z"
         fill="#ccc" />
      <path
         id="path4124"
         d="m1560 1587.4v225l-750 15v-215z"
         fill="#ccc" />
    </g>
  </g>
  <g
     id="layer4"
     transform="translate(524.7 603.19)">
    <g
       id="g4209"
       stroke="#000"
       stroke-width="4">
      <path
         id="path4179"
         d="m1545 1617.4v-40h60v40z"
         fill="#4d3c3c" />
      <g
         id="g4187">
        <path
           id="path4170"
           d="m1425 1607.4 315-5v400h-315z"
           fill="#e3dbdb" />
        <g
           id="g4183"
           fill="#4d4d4d">
          <path
             id="path4173"
             d="m1435 1647.4v200h55v-200z" />
          <path
             id="path4175"
             d="m1670 1637.4h55v215h-55z" />
        </g>
      </g>
      <path
         id="path4177"
         d="m1740 2002.4v-400l260 300v170z"
         fill="#998789" />
      <path
         id="path4181"
         d="m1500 1592.4v-65l155-5v65z"
         fill="#1a1a1a" />
    </g>
  </g>
  <g
     id="layer5"
     transform="translate(524.7 603.19)">
    <g
       id="g4327"
       stroke="#000">
      <g
         id="g4275"
         stroke-width="4.9157"
         transform="matrix(.83170 0 0 .79613 706.26 402.11)">
        <g
           id="g4277">
          <path
             id="path4279"
             d="m740 1572.4v800h240v-800z"
             fill="#ccc" />
          <path
             id="path4281"
             d="m980 1572.4 50 45v715l-50 40z"
             fill="#999" />
          <path
             id="path4283"
             d="m1030 1732.4h200v595h-200z"
             fill="#ccc" />
          <path
             id="path4285"
             d="m1230 1732.4 140 80v440l-140 70z"
             fill="#999" />
        </g>
        <path
           id="path4287"
           d="m990 1757.4 25 20v485l-25 15z"
           fill="#1a1a1a" />
        <path
           id="path4289"
           d="m1030 1772.4v70h180v-70z"
           fill="#4d4d4d" />
        <path
           id="path4291"
           d="m1030 1882.4v70h180v-70z"
           fill="#4d4d4d" />
        <path
           id="path4293"
           d="m1030 1992.4v70h180v-70z"
           fill="#4d4d4d" />
        <path
           id="path4295"
           d="m1230 1772.4 120 70v55l-120-55z"
           fill="#333" />
        <path
           id="path4297"
           d="m1230 1882.4 120 50v55l-120-35z"
           fill="#333" />
        <path
           id="path4299"
           d="m1230 1992.4 120 30v50l-120-10z"
           fill="#333" />
      </g>
      <g
         id="g4261"
         stroke-width="4">
        <g
           id="g4241">
          <path
             id="path4229"
             d="m740 1572.4v800h240v-800z"
             fill="#ccc" />
          <path
             id="path4235"
             d="m980 1572.4 50 45v715l-50 40z"
             fill="#999" />
          <path
             id="path4237"
             d="m1030 1732.4h200v595h-200z"
             fill="#ccc" />
          <path
             id="path4239"
             d="m1230 1732.4 140 80v440l-140 70z"
             fill="#999" />
        </g>
        <path
           id="path4247"
           d="m990 1757.4 25 20v485l-25 15z"
           fill="#1a1a1a" />
        <path
           id="path4249"
           d="m1030 1772.4v70h180v-70z"
           fill="#4d4d4d" />
        <path
           id="path4251"
           d="m1030 1882.4v70h180v-70z"
           fill="#4d4d4d" />
        <path
           id="path4253"
           d="m1030 1992.4v70h180v-70z"
           fill="#4d4d4d" />
        <path
           id="path4255"
           d="m1230 1772.4 120 70v55l-120-55z"
           fill="#333" />
        <path
           id="path4257"
           d="m1230 1882.4 120 50v55l-120-35z"
           fill="#333" />
        <path
           id="path4259"
           d="m1230 1992.4 120 30v50l-120-10z"
           fill="#333" />
      </g>
      <g
         id="g4301"
         stroke-width="2.9807"
         transform="matrix(1.3492 0 0 1.3347 -1069.7 -700.34)">
        <g
           id="g4303">
          <path
             id="path4305"
             d="m740 1572.4v800h240v-800z"
             fill="#ccc" />
          <path
             id="path4307"
             d="m980 1572.4 50 45v715l-50 40z"
             fill="#999" />
          <path
             id="path4309"
             d="m1030 1732.4h200v595h-200z"
             fill="#ccc" />
          <path
             id="path4311"
             d="m1230 1732.4 140 80v440l-140 70z"
             fill="#999" />
        </g>
        <path
           id="path4313"
           d="m990 1757.4 25 20v485l-25 15z"
           fill="#1a1a1a" />
        <path
           id="path4315"
           d="m1030 1772.4v70h180v-70z"
           fill="#4d4d4d" />
        <path
           id="path4317"
           d="m1030 1882.4v70h180v-70z"
           fill="#4d4d4d" />
        <path
           id="path4319"
           d="m1030 1992.4v70h180v-70z"
           fill="#4d4d4d" />
        <path
           id="path4321"
           d="m1230 1772.4 120 70v55l-120-55z"
           fill="#333" />
        <path
           id="path4323"
           d="m1230 1882.4 120 50v55l-120-35z"
           fill="#333" />
        <path
           id="path4325"
           d="m1230 1992.4 120 30v50l-120-10z"
           fill="#333" />
      </g>
    </g>
  </g>
  <g
     id="layer6"
     transform="translate(524.7 603.19)">
    <g
       id="g4452"
       stroke-width="1px"
       stroke="#000" />
  </g>
  <metadata
     id="metadata114">
    <rdf:RDF>
      <cc:Work>
        <dc:format>image/svg+xml</dc:format>
        <dc:type
           rdf:resource="http://purl.org/dc/dcmitype/StillImage" />
        <cc:license
           rdf:resource="http://creativecommons.org/licenses/publicdomain/" />
        <dc:publisher>
          <cc:Agent
             rdf:about="http://openclipart.org/">
            <dc:title>Openclipart</dc:title>
          </cc:Agent>
        </dc:publisher>
      </cc:Work>
      <cc:License
         rdf:about="http://creativecommons.org/licenses/publicdomain/">
        <cc:permits
           rdf:resource="http://creativecommons.org/ns#Reproduction" />
        <cc:permits
           rdf:resource="http://creativecommons.org/ns#Distribution" />
        <cc:permits
           rdf:resource="http://creativecommons.org/ns#DerivativeWorks" />
      </cc:License>
    </rdf:RDF>
  </metadata>
</svg>
