<?xml version="1.0" encoding="UTF-8" standalone="no"?>
<!-- Created with Inkscape (http://www.inkscape.org/) -->

<svg
   xmlns:dc="http://purl.org/dc/elements/1.1/"
   xmlns:cc="http://creativecommons.org/ns#"
   xmlns:rdf="http://www.w3.org/1999/02/22-rdf-syntax-ns#"
   xmlns:svg="http://www.w3.org/2000/svg"
   xmlns="http://www.w3.org/2000/svg"
   xmlns:xlink="http://www.w3.org/1999/xlink"
   xmlns:sodipodi="http://sodipodi.sourceforge.net/DTD/sodipodi-0.dtd"
   xmlns:inkscape="http://www.inkscape.org/namespaces/inkscape"
   version="1.0"
   width="1491.8633"
   height="116.67789"
   viewBox="0 0 1491.8633 116.67789"
   id="svg2"
   inkscape:version="0.48.4 r9939"
   sodipodi:docname="cloud.svg">
  <metadata
     id="metadata37">
    <rdf:RDF>
      <cc:Work
         rdf:about="">
        <dc:format>image/svg+xml</dc:format>
        <dc:type
           rdf:resource="http://purl.org/dc/dcmitype/StillImage" />
      </cc:Work>
    </rdf:RDF>
  </metadata>
  <sodipodi:namedview
     pagecolor="#ffffff"
     bordercolor="#666666"
     borderopacity="1"
     objecttolerance="10"
     gridtolerance="10"
     guidetolerance="10"
     inkscape:pageopacity="0"
     inkscape:pageshadow="2"
     inkscape:window-width="1017"
     inkscape:window-height="891"
     id="namedview35"
     showgrid="false"
     inkscape:zoom="0.286"
     inkscape:cx="492.0699"
     inkscape:cy="-130.32486"
     inkscape:window-x="226"
     inkscape:window-y="33"
     inkscape:window-maximized="0"
     inkscape:current-layer="svg2"
     fit-margin-top="0"
     fit-margin-left="0"
     fit-margin-right="0"
     fit-margin-bottom="0" />
  <defs
     id="defs4">
    <linearGradient
       id="linearGradient4476">
      <stop
         style="stop-color:#ffffff;stop-opacity:1"
         offset="0"
         id="stop4478" />
      <stop
         style="stop-color:#ffffff;stop-opacity:0"
         offset="1"
         id="stop4480" />
    </linearGradient>
    <linearGradient
       id="linearGradient3273">
      <stop
         style="stop-color:#ffffff;stop-opacity:1"
         offset="0"
         id="stop3275" />
      <stop
         style="stop-color:#ffffff;stop-opacity:0"
         offset="1"
         id="stop3277" />
    </linearGradient>
    <linearGradient
       x1="164.71666"
       y1="-232.2366"
       x2="163.62622"
       y2="211.23331"
       id="linearGradient3279"
       xlink:href="#linearGradient3273"
       gradientUnits="userSpaceOnUse" />
    <linearGradient
       x1="131.98676"
       y1="-299.76053"
       x2="128.68327"
       y2="296.30493"
       id="linearGradient4482"
       xlink:href="#linearGradient4476"
       gradientUnits="userSpaceOnUse" />
  </defs>
  <g
     transform="matrix(1.5159058,0,0,0.32695542,451.48142,-16.408954)"
     style="display:inline"
     id="layer1">
    <path
       d="m 125.86458,-192.23661 c -36.759687,11.50934 -56.647367,69.74014 -101.169957,44.03323 -55.90476,4.0699 -120.39395,-1.24941 -168.799143,29.53369 -35.83039,15.83192 47.821713,1.4752 1.90129,16.13668 -36.17875,11.661994 -86.42961,27.314994 -109.44785,-9.50243 -33.43132,-9.01885 -112.26027,15.751142 -76.638,51.137389 17.90552,12.108362 -35.38826,8.155063 -44.80179,12.299405 -22.71562,-0.767866 -62.6066,30.97179 -50.51351,30.449544 32.53514,9.8479662 68.47713,20.6100273 96.10875,44.132738 42.89255,36.315918 96.45132,15.301888 148.30543,26.689238 37.59675,1.67592 69.87339,26.62264 106.376143,27.93252 38.03596,4.90738 107.93644,36.358926 126.76706,33.445686 -58.6093997,12.35063 34.2067,22.80718 52.596037,22.79081 21.20972,0.80332 24.37232,-2.1123 9.62916,11.64861 38.93676,8.58479 80.7528,4.43599 120.69032,2.90984 51.78734,-10.28609 107.41913,-10.38644 156.0995,-31.0764 C 411.31524,74.484134 493.03673,75.918784 540.87027,57.570384 596.83467,46.439344 636.76243,4.0135385 675.61741,14.567434 682.38222,2.0942296 731.9356,11.878345 763.96357,-7.4101459 723.07552,-20.828761 684.73636,-13.381783 662.67633,-37.78856 c -36.62589,14.677032 -40.02862,-35.251573 -83.39581,-29.458416 -40.98799,-23.85007 -84.79709,9.40306 -122.11673,-2.62672 7.88809,-19.74396 58.95781,-9.24851 47.60747,-9.05447 25.67365,5.43806 83.54861,-6.69582 25.16143,-11.46923 -26.90808,-3.21403 -101.85032,9.22202 -54.22151,-13.392914 -52.42264,0.5369 -97.61821,-37.53494 -150.39735,-38.88576 23.07119,-62.43106 -81.87681,-33.9654 -116.55248,-30.45964 -62.73241,0.36907 48.6795,22.21462 -0.11902,31.01367 -47.32421,12.31243 -51.17251,-34.22348 -82.77775,-50.11457 z m 374.96875,112.906254 -1.24109,0.06577 1.24109,-0.06577 z m -1.25,0.0625 c -7.72744,-4.45991 -11.5274,5.2672 0,0 z m -5.375,-0.8125 c -4.73685,-0.84226 -2.97941,-0.52977 0,0 z M 59.927083,113.91964 c 6.88339,-2.14551 -10.17276,-0.23328 0,0 z M 218.89583,-164.54911 c -17.20918,1.33208 -28.97122,-0.0637 0,0 z m 65.375,6.21875 c -16.98848,10.00682 -23.52855,-5.39782 0,0 z m -163.875,10.71875 c 1.82694,1.61724 -2.82851,0.28701 0,0 z m 36.625,6.96875 c -3.7027,4.27382 -18.77072,-1.36599 0,0 z m -144.156247,3.8125 c -18.9780697,5.1619 -17.0802597,-1.26457 0,0 z m 260.437497,0.8125 c 22.06868,-2.65572 81.73282,21.69176 57.64001,22.45267 9.04959,-29.55594 -99.90755,-12.14089 -57.64001,-22.45267 z m -136.875,0.3125 c -3.8357,6.61537 -16.48342,-6.79609 0,0 z m 114.59375,12.96875 c 29.43303,-1.74044 32.73149,10.43556 2.22097,6.86412 -5.8843,3.65883 -19.36482,-2.59697 -2.22097,-6.86412 z m -35.75,6.1875 c 30.44301,2.22168 -21.18754,5.41393 0,0 z m 26.78125,4.65625 c 48.00699,-7.73805 37.83624,35.831324 -1.3675,18.076624 -6.01681,-4.66851 -3.43891,-13.632164 1.3675,-18.076624 z m -32.0625,14.718754 c 73.37966,9.51255 -39.7371,5.63581 0,0 z m 255.53125,7.34375 c 21.79966,-0.06289 39.80819,1.3454 6.71177,0.2525 l -6.71177,-0.2525 z m -264.28125,1.84375 c 13.80912,0.13531 3.02227,0.02961 0,0 z m 207.875,5.34375 c 19.24301,4.7752 -34.07292,2.28739 0,0 z m 106.5625,18.84375 c 17.97518,-1.88135 91.15837,23.32465 37.92352,15.21743 -13.40816,-1.73356 -29.17108,-3.25947 -37.92352,-15.21743 z m -866.29238,45.779567 c -0.26466,3.795065 -6.75642,-5.39153 0,0 z m -2.80376,1.235787 c 4.5172,-0.921411 11.88245,8.1898079 0,0 z M 665.41895,-2.7107769 c 9.94036,3.00309648 57.81723,-8.6246801 22.94714,-1.14579 14.42541,-6.4591341 36.85122,0.7580152 8.4787,2.99255927 C 686.58221,-2.7711248 670.91918,12.050474 665.41895,-2.7107769 z M -235.95322,26.799729 c -0.026,2.180267 -3.8891,-2.965292 0,0 z m 5.66155,10.343374 c -4.58205,0.72541 -2.35469,0.384878 0,0 z m -55.33088,-6.795304 c 19.18004,6.896372 98.71794,7.018495 38.76164,12.414163 -13.1673,-0.323335 -27.34535,-2.718869 -38.76164,-12.414163 z m 102.11213,9.509345 c 6.88512,-2.63846 3.75943,10.62577 0,0 z m 764.8186,4.087398 -0.77191,0.391644 0.77191,-0.391644 z M 51.145833,84.982144 c 20.10655,-2.93136 82.749147,16.827636 27.20572,14.50336 -14.64089,8.426506 -63.90715,8.667986 -27.20572,-14.50336 z"
       transform="matrix(0.7285873,0,0,0.7285873,62.137168,247.78383)"
       style="fill:#b8b7b5;fill-opacity:1;fill-rule:nonzero;stroke:none;"
       id="path2275"
       inkscape:connector-curvature="0" />
    <path
       d="m 125.86458,-232.23661 c -36.759687,11.50934 -56.647367,69.74014 -101.169957,44.03323 -55.90476,4.0699 -120.393953,-1.24941 -168.799143,29.53369 -35.83039,15.83192 47.82171,1.4752 1.90129,16.13668 -36.17875,11.66199 -86.42961,27.31499 -109.44785,-9.50243 -33.43132,-9.01885 -120.30363,22.70691 -82.90708,57.388374 20.37415,11.19926 -46.8414,15.29378 -59.86275,21.5236 -27.81508,1.74951 -69.61021,15.09402 -60.55534,22.81733 35.68133,10.23215 82.26064,33.18278 120.27456,52.97894 49.34928,26.1675 103.65738,-1.38728 155.51149,10.00007 37.59675,1.67592 69.87339,26.62264 106.376143,27.93252 38.03596,4.90738 107.93644,36.358926 126.76706,33.445686 -58.6094,12.35063 34.2067,22.80718 52.596037,22.79081 21.20972,0.80332 24.37232,-2.1123 9.62916,11.64861 38.93676,8.58479 80.7528,4.43599 120.69032,2.90984 51.78734,-10.28609 107.41913,-10.38644 156.0995,-31.0764 18.34722,-45.839806 100.06871,-44.405156 147.90225,-62.753556 55.9644,-11.13104 110.9106,-43.54455 168.64583,-20.40382 10.05422,-10.28027 74.27513,9.2822 109.34823,-7.9762 -45.5117,-16.50105 -96.5776,-17.53857 -133.36584,-51.76415 -50.38916,5.50152 -59.50535,-48.236064 -106.21797,-44.673194 -40.98799,-23.85007 -84.79709,9.403064 -122.11673,-2.62672 7.88809,-19.74396 58.95781,-9.24851 47.60747,-9.05447 25.67365,5.43806 83.54861,-6.69582 25.16143,-11.46923 -26.90808,-3.21403 -101.85032,9.22202 -54.22151,-13.39291 -52.42264,0.5369 -97.61821,-37.53494 -150.39735,-38.88576 23.07119,-62.43106 -81.87681,-33.9654 -116.55248,-30.45964 -62.73241,0.36907 48.6795,22.21462 -0.11902,31.01367 -47.32421,12.31243 -51.17251,-34.22348 -82.77775,-50.11457 z m 374.96875,112.90625 -1.24109,0.0658 1.24109,-0.0658 z m -1.25,0.0625 c -7.72744,-4.45991 -11.5274,5.2672 0,0 z m -5.375,-0.8125 c -4.73685,-0.84226 -2.97941,-0.52977 0,0 z m -434.281247,194 c 6.88339,-2.14551 -10.17276,-0.23328 0,0 z M 218.89583,-204.54911 c -17.20918,1.33208 -28.97122,-0.0637 0,0 z m 65.375,6.21875 c -16.98848,10.00682 -23.52855,-5.39782 0,0 z m -163.875,10.71875 c 1.82694,1.61724 -2.82851,0.28701 0,0 z m 36.625,6.96875 c -3.7027,4.27382 -18.77072,-1.36599 0,0 z m -144.156247,3.8125 c -18.97807,5.1619 -17.08026,-1.26457 0,0 z m 260.437497,0.8125 c 22.06868,-2.65572 81.73282,21.69176 57.64001,22.45267 9.04959,-29.55594 -99.90755,-12.14089 -57.64001,-22.45267 z m -136.875,0.3125 c -3.8357,6.61537 -16.48342,-6.79609 0,0 z m 78.84375,19.15625 c 30.44301,2.22168 -21.18754,5.41393 0,0 z m -5.28125,19.375 c 73.37966,9.51255 -39.7371,5.63581 0,0 z m 255.53125,7.34375 c 21.79966,-0.0629 39.80819,1.3454 6.71177,0.2525 l -6.71177,-0.2525 z m -264.28125,1.84375 c 13.80912,0.13531 3.02227,0.0296 0,0 z m 207.875,5.34375 c 19.24301,4.7752 -34.07292,2.28739 0,0 z m 106.5625,18.84375 c 17.97518,-1.88135 91.15837,23.324654 37.92352,15.217434 -13.40816,-1.73356 -29.17108,-3.25947 -37.92352,-15.217434 z m -883.28125,63.625004 c -0.34714,4.39174 -8.9698,-5.40866 0,0 z m -3.78125,1.78125 c 6.0888,-1.64877 16.11097,7.6933 0,0 z m 1065.5,14.8125 c 15.07079,6.42338 79.96365,6.1396 33.98158,6.2105 19.83887,-2.85016 48.45867,8.49632 11.97407,5.32281 -14.5059,-4.736 -37.43137,5.24397 -45.95565,-11.53331 z m -930.09375,11.125 c -0.0235,2.19292 -3.92718,-2.62575 0,0 z m 5.6875,9.96875 c -4.59024,1.02719 -2.35686,0.52741 0,0 z m -56.59375,1.6875 c 19.92039,3.08063 99.98081,-1.8346 39.93039,5.41874 -13.39517,1.60969 -27.97688,1.80079 -39.93039,-5.41874 z m 103.375,0.65625 c 6.88512,-2.63846 3.75943,10.62577 0,0 z m 765.71875,4.6875 -0.84375,0.34375 0.84375,-0.34375 z m -531.062497,40.4375 c 20.10655,-2.93136 82.749147,16.827636 27.20572,14.50336 -14.64089,8.426506 -63.90715,8.667986 -27.20572,-14.50336 z"
       transform="matrix(0.7285873,0,0,0.7506085,62.137168,252.89795)"
       style="fill:url(#linearGradient4482);fill-opacity:1;fill-rule:nonzero;stroke:none;"
       id="path2289"
       inkscape:connector-curvature="0" />
    <path
       d="m -239.37116,291.26643 c -21.40469,6.09005 -42.86425,11.0687 -64.38479,14.8118 34.42283,9.36897 65.03596,26.01891 101.67554,22.40775 27.76828,0.37258 52.68183,-13.35862 68.24521,5.74982 24.31389,9.72261 49.322682,29.73078 80.330736,19.25527 28.257564,-10.84258 51.7886924,-6.16125 80.480525,-0.16764 22.193474,9.13765 46.832599,21.83336 73.376059,14.91527 32.5636,-4.48373 51.70774,20.41333 78.89342,34.15862 21.02675,9.28633 56.6817,10.25124 69.72417,20.96554 -0.73839,35.53277 47.13569,31.81636 71.02331,25.05727 17.21629,-4.85964 42.8397,-15.82956 36.90877,-38.17906 32.09006,7.50043 49.63629,-27.24009 79.49507,-30.02151 20.2753,-19.597 47.36978,-21.16514 72.53479,-31.52233 26.78534,-20.97686 -31.65943,-21.60165 -45.83282,-21.05067 -26.18139,4.95096 -51.06088,-3.91155 -77.3318,-1.6822 -13.95075,0.63277 -30.19291,5.68447 -9.32777,-5.34369 -4.499,-26.44749 -56.0372,-15.9371 -79.31439,-16.67963 -30.70587,-3.06985 -61.99763,25.31874 -89.6051,9.13817 -37.98891,-17.8718 -85.51572,-39.80985 -125.086734,-13.33814 -9.00367,-10.64581 -44.049967,-23.10345 -40.952975,-30.82091 -22.910939,-3.31697 -70.30134,-19.95572 -91.016706,11.68166 -24.755889,16.92189 29.439717,45.64318 -1.59095,41.78848 -21.122242,-9.53927 -45.540939,-15.81775 -69.721305,-12.3163 -23.17394,-1.1013 3.31261,4.07432 3.51257,-10.28476 -33.22879,3.24219 -65.78754,1.17022 -96.81239,-7.41178 -8.17848,-1.16298 -16.62198,-1.69101 -25.22244,-1.11103 z m 118.21506,17.16498 c 9.82961,2.77368 18.02185,-4.49579 0,0 z m 401.15164,13.27841 c -6.65567,3.70787 -23.6454,2.14467 0,0 z m -130.375,12.5 c 31.51174,3.93073 -7.01198,3.68113 0,0 z m 229.25,1.40625 c -9.05994,4.33587 -27.05091,11.4881 -7.4865,2.44477 l 3.468,-1.18373 4.0185,-1.26104 z m -219.5,6.375 c 9.92125,-1.48331 31.66761,2.67242 8.27514,2.76354 l -5.49389,-0.16979 -2.78125,-2.59375 z m 203,4.46875 c 2.07863,-0.48411 0.36832,0.60294 0,0 z m -49.125,13.65625 c -5.54039,14.54745 -37.9095,1.5085 -11.30592,1.29373 l 5.14848,-0.62621 6.15744,-0.66752 z"
       transform="matrix(0.7285873,0,0,0.6833341,52.422671,5.9852386)"
       style="opacity:0.74444442;fill:#b8b7b5;fill-opacity:1;fill-rule:nonzero;stroke:none;"
       id="path3325"
       inkscape:connector-curvature="0" />
    <path
       d="m -241.00446,268.11722 c -21.55208,4.56416 -43.10417,8.4992 -64.65625,11.8683 34.50864,10.45007 65.36458,29.76027 102.35444,29.90964 28.08889,3.10811 53.25018,-9.13334 69.02619,11.04123 24.54583,10.01122 49.722013,29.00499 80.775616,16.9087 28.257564,-12.72938 51.7886924,-10.51527 80.480525,-4.52166 22.193474,9.13765 46.832599,21.83336 73.376059,14.91527 32.5636,-4.48373 51.70774,20.41333 78.89342,34.15862 21.02675,9.28633 56.6817,10.25124 69.72417,20.96554 -0.73839,35.53277 47.13569,31.81636 71.02331,25.05727 17.21629,-4.85964 42.8397,-15.82956 36.90877,-38.17906 32.09006,7.50043 49.63629,-27.24009 79.49507,-30.02151 20.2753,-19.597 47.36978,-21.16514 72.53479,-31.52233 26.78534,-20.97686 -31.65943,-21.60165 -45.83282,-21.05067 -26.18139,4.95096 -51.06088,-3.91155 -77.3318,-1.6822 -13.95075,0.63277 -30.19291,5.68447 -9.32777,-5.34369 -4.499,-26.44749 -56.0372,-15.9371 -79.31439,-16.67963 -30.70587,-3.06985 -61.99763,25.31874 -89.6051,9.13817 -37.98891,-17.8718 -85.51572,-39.80985 -125.086734,-13.33814 -9.00367,-10.64581 -44.049967,-23.10345 -40.952975,-30.82091 -22.910939,-3.31697 -70.30134,-18.81529 -91.021358,14.94105 -24.818596,18.84032 29.444369,44.52569 -1.588016,42.82989 -21.171544,-8.35281 -45.723581,-13.85675 -70.093897,-10.12858 -23.40998,-1.86771 3.34896,4.2304 3.53125,-10.6178 -33.56505,2.23637 -66.50154,-2.43187 -97.86641,-14.34365 -8.25656,-1.98977 -16.77502,-3.3191 -25.44609,-3.48385 z m 119.46875,26.74488 c 9.91988,2.9226 18.16806,-4.63897 0,0 z m 401.53125,6.84772 c -6.65567,3.70787 -23.6454,2.14467 0,0 z m -130.375,12.5 c 31.51174,3.93073 -7.01198,3.68113 0,0 z m 229.25,1.40625 c -9.05994,4.33587 -27.05091,11.4881 -7.4865,2.44477 l 3.468,-1.18373 4.0185,-1.26104 z m -219.5,6.375 c 9.92125,-1.48331 31.66761,2.67242 8.27514,2.76354 l -5.49389,-0.16979 -2.78125,-2.59375 z m 203,4.46875 c 2.07863,-0.48411 0.36832,0.60294 0,0 z m -49.125,13.65625 c -5.54039,14.54745 -37.9095,1.5085 -11.30592,1.29373 l 5.14848,-0.62621 6.15744,-0.66752 z"
       transform="matrix(0.7285873,0,0,0.6833341,52.422671,5.9852386)"
       style="opacity:0.74444442;fill:#ffffff;fill-opacity:1;fill-rule:nonzero;stroke:none;filter:"
       id="path3332"
       inkscape:connector-curvature="0" />
    <g
       transform="matrix(0.7285873,0,0,0.7285873,40.279549,-7.221725)"
       style="opacity:0.75;filter:url(#filter3822)"
       id="g3622">
      <path
         d="m -40.534722,245.86791 c 32.6486524,13.04718 132.053515,19.10061 1.7891,7.57592 30.7262785,-9.97052 119.983437,-56.14556 120.993599,-8.1535 -17.88946,10.98176 12.425625,10.8909 10.834819,10.75403 -87.3842019,-7.51834 -68.799356,0.0266 -36.26545,-11.57917 45.943244,-15.14156 102.412394,-31.65867 107.982854,26.03331 5.33992,-0.6396 21.37264,-1.39858 16.01977,-1.9188 -20.51309,-1.99357 -41.28964,-0.29012 -61.7775,-2.52818 -11.40435,-1.2458 22.79184,-3.36953 34.26334,-3.24399 89.24566,0.97667 63.50594,-2.31665 106.47422,4.15532 6.0896,-0.2204 24.35688,-0.40157 18.26882,-0.66121 -21.67104,-0.9242 -43.38959,-0.36186 -65.05852,-1.33423 -5.32296,-0.23887 10.63301,-0.87691 15.96132,-0.86896 30.73147,0.0458 61.49111,2.47256 92.18875,1.03017 26.62757,-1.25115 -54.15866,1.38362 -79.73584,-6.1264 -33.39203,-11.06421 -173.964435,-29.53883 3.31668,-17.73786 21.06197,1.40202 60.61685,30.78096 79.79006,42.31085 52.90439,39.52238 -172.69409,14.64972 -71.5442,-13.49521 41.22268,0.61925 82.46334,0.49198 123.66805,1.85775 61.58062,2.04116 -34.11121,32.00054 -89.4534,13.9465 -7.61081,-5.2305 -108.74169,-22.2808 -106.82329,-31.91865 1.27395,-6.40017 10.85654,-7.24406 16.28481,-10.86609 54.0668,0.54388 119.10746,1.04386 169.61192,27.67015 -3.96109,15.20671 -1.08221,8.14021 -8.40433,21.29267 l -67.91612,-4.88206 c 8.07339,-4.17506 7.40363,-1.90015 -1.94857,-6.84232 -30.38902,-7.93025 -151.97671,-32.97925 -24.82173,-27.37372 1.51086,-20.36106 85.34068,11.19201 101.73262,23.15996 32.30339,11.0904 -3.70585,-2.63163 -46.94303,4.78657 -3.38696,0.5811 4.69451,5.0198 7.04176,7.52971 -7.41643,0.26163 -14.83286,0.52326 -22.24929,0.78488 -9.05026,-0.25216 -36.06754,-1.10476 -27.07538,-2.15921 22.79368,-2.67286 45.86355,-1.822 68.79532,-2.733 -10.30947,-0.86567 -20.73138,-0.84911 -30.92841,-2.597 -1.4038,-0.24063 -3.97993,-4.04677 -2.84105,-3.19148 46.31461,34.78164 -88.8939,34.51493 -101.58576,16.42387 -128.531573,-94.7434 55.23075,-104.48503 108.43252,-41.62996 13.13696,46.47329 1.1745,-14.9703 -74.05719,23.55764 -18.9353,9.69721 42.542,-0.87528 63.81596,-0.86935 4.41945,10e-4 -8.81112,0.76166 -13.22889,0.88345 -96.30941,2.65512 -65.67411,4.34295 -111.40904,1.17318 -35.16685,-4.52425 -19.60306,-1.84219 51.01191,-2.87529 10.40755,-0.15226 -20.66712,2.7481 -31.0688,3.12913 -95.68347,3.50507 -68.06631,15.04231 -105.813299,-2.9912 C 60.587099,229.19686 206.21948,240.62867 133.39471,253.93849 97.788743,266.7789 6.7602823,302.53962 15.229716,256.41341 c 92.985194,-4.10025 69.689575,-8.51888 20.322458,14.20647 -50.035968,2.57282 -98.17377,11.54102 -141.770844,-15.83468 l 65.683948,-8.91729 z"
         style="opacity:0.41111109;fill:#000000;fill-opacity:1;fill-rule:nonzero;stroke:none;"
         id="path3512"
         inkscape:connector-curvature="0" />
      <path
         d="m -47.94365,236.50617 c 32.93089,13.87929 132.130043,19.32914 3.45119,12.00601 31.259308,-8.82511 121.741001,-53.04175 123.669188,-4.40711 -17.52545,10.96284 12.981277,10.80966 11.418465,10.62675 -86.2040786,-10.08925 -68.000286,-1.22422 -35.059733,-14.2845 46.41647,-17.34995 103.69428,-37.6408 109.26474,20.05118 5.33992,-0.6396 21.37264,-1.39858 16.01977,-1.9188 -20.51309,-1.99357 -41.29943,-0.25427 -61.7775,-2.52818 -11.4021,-1.2661 22.79184,-3.36953 34.26334,-3.24399 89.24566,0.97667 63.50594,-2.31665 106.47422,4.15532 6.0896,-0.2204 24.35688,-0.40157 18.26882,-0.66121 -21.67104,-0.9242 -43.38959,-0.36186 -65.05852,-1.33423 -5.32296,-0.23887 10.63301,-0.87691 15.96132,-0.86896 30.73147,0.0458 61.49111,2.47256 92.18875,1.03017 26.62757,-1.25115 -54.15866,1.38362 -79.73584,-6.1264 -33.39203,-11.06421 -173.964435,-29.53883 3.31668,-17.73786 21.06197,1.40202 60.61685,30.78096 79.79006,42.31085 52.90439,39.52238 -172.69409,14.64972 -71.5442,-13.49521 41.22268,0.61925 82.46334,0.49198 123.66805,1.85775 61.58062,2.04116 -34.11121,32.00054 -89.4534,13.9465 -7.61081,-5.2305 -108.74169,-22.2808 -106.82329,-31.91865 1.27395,-6.40017 10.85654,-7.24406 16.28481,-10.86609 54.0668,0.54388 119.10746,1.04386 169.61192,27.67015 -3.96109,15.20671 -1.08221,8.14021 -8.40433,21.29267 l -67.91612,-4.88206 c 8.07339,-4.17506 7.40363,-1.90015 -1.94857,-6.84232 -30.38902,-7.93025 -151.97671,-32.97925 -24.82173,-27.37372 1.51086,-20.36106 85.34068,11.19201 101.73262,23.15996 32.30339,11.0904 -3.70585,-2.63163 -46.94303,4.78657 -3.38696,0.5811 4.69451,5.0198 7.04176,7.52971 -7.41643,0.26163 -14.83286,0.52326 -22.24929,0.78488 -9.05026,-0.25216 -36.06754,-1.10476 -27.07538,-2.15921 22.79368,-2.67286 45.86355,-1.822 68.79532,-2.733 -10.30947,-0.86567 -20.73138,-0.84911 -30.92841,-2.597 -1.4038,-0.24063 -3.97993,-4.04677 -2.84105,-3.19148 46.31461,34.78164 -88.8939,34.51493 -101.58576,16.42387 -128.531573,-94.7434 55.23075,-104.48503 108.43252,-41.62996 13.13696,46.47329 1.1745,-14.9703 -74.05719,23.55764 -18.9353,9.69721 42.542,-0.87528 63.81596,-0.86935 4.41945,10e-4 -8.81112,0.76166 -13.22889,0.88345 -96.30941,2.65512 -65.67411,4.34295 -111.40904,1.17318 -35.16685,-4.52425 -19.60306,-1.84219 51.01191,-2.87529 10.40755,-0.15226 -20.66712,2.7481 -31.0688,3.12913 -95.68347,3.50507 -68.06631,15.04231 -105.813299,-2.9912 C 60.374698,219.19686 206.21948,230.62867 133.39471,243.93849 97.788743,256.7789 3.2840452,292.53962 10.667988,246.41341 c 91.208932,-4.10025 68.828184,-8.51888 18.509217,14.20647 -50.72264,2.57282 -99.417849,11.54102 -143.014925,-15.83468 l 65.89407,-8.27903 z"
         style="fill:#ffffff;fill-opacity:1;fill-rule:nonzero;stroke:none;"
         id="path3510"
         inkscape:connector-curvature="0" />
    </g>
  </g>
  <g
     transform="translate(297.82943,27.810787)"
     style="display:inline"
     id="layer2" />
</svg>
