<?xml version="1.0" encoding="utf-8"?>
<!-- Generator: Adobe Illustrator 15.0.2, SVG Export Plug-In . SVG Version: 6.00 Build 0)  -->
<!DOCTYPE svg PUBLIC "-//W3C//DTD SVG 1.1//EN" "http://www.w3.org/Graphics/SVG/1.1/DTD/svg11.dtd">
<svg version="1.1" id="Layer_1" xmlns="http://www.w3.org/2000/svg" xmlns:xlink="http://www.w3.org/1999/xlink" x="0px" y="0px"
	 width="640px" height="480px" viewBox="0 0 640 480" enable-background="new 0 0 640 480" xml:space="preserve">
<title>cloud</title>
<g>
	<title>Layer 1</title>
	<g id="layer1" opacity="0.5">
		<g>
			<path fill="#DD9797" d="M227.324,11.942c-20.806-5.744-41.86,0.83-56.396,15.11c-7.595-9.405-17.877-16.665-30.211-20.069
				C108.975-1.78,76.275,17.673,67.77,50.379c-0.625,2.403-0.79,4.82-1.125,7.224C38.06,54.541,10.708,72.98,3.034,102.489
				c-7.604,29.239,6.745,59.136,32.534,71.429c-1.402,3.133-2.709,6.359-3.604,9.803c-8.505,32.706,10.393,66.327,42.135,75.091
				c15.547,4.293,31.259,1.771,44.302-5.711c7.188,15.845,20.59,28.599,38.258,33.476c25.207,6.959,50.787-4.063,64.597-25.195
				c5.594,4.08,11.812,7.455,18.815,9.39c31.742,8.764,64.372-10.709,72.878-43.416c4.275-16.446,1.63-33.09-6.09-46.73
				c7.641-7.507,13.621-17.017,16.551-28.286c8.506-32.707-10.393-66.328-42.134-75.091c-3.342-0.922-6.688-1.442-10.021-1.757
				C273.23,46.769,255.314,19.67,227.324,11.942z"/>
		</g>
	</g>
	<g enable-background="new    ">
		<path d="M131.27,200.229c-4.955,2.57-15.351,5.148-28.471,5.172c-30.401,0.055-53.155-19.104-53.219-54.625
			c-0.061-33.921,22.778-56.683,56.219-56.743c13.28-0.023,21.925,2.841,25.609,4.754l-3.5,11.366
			c-5.125-2.55-12.648-4.456-21.608-4.44c-25.281,0.046-42.052,16.236-42.001,44.557c0.048,26.561,15.278,43.334,41.359,43.287
			c8.64-0.016,17.277-1.791,22.873-4.521L131.27,200.229z"/>
		<path d="M162.599,95.689l0.082,45.121l52.161-0.094l-0.082-45.121l14.081-0.025l0.194,107.843l-14.081,0.025l-0.091-50.562
			l-52.161,0.094l0.091,50.562l-14.08,0.025l-0.194-107.843L162.599,95.689z"/>
	</g>
	<g enable-background="new    ">
		<path d="M275.455,228.424l-0.032-17.801l-30.202,0.055l-0.01-5.7l28.927-41.556l9.5-0.017l0.073,40.402l9.101-0.017l0.012,6.801
			l-9.101,0.017l0.032,17.801L275.455,228.424z M275.411,203.822l-0.039-21.701c-0.006-3.4,0.087-6.801,0.282-10.201h-0.3
			c-1.994,3.805-3.589,6.607-5.383,9.61l-15.862,22.13l0,0.2L275.411,203.822z"/>
	</g>
	<g enable-background="new    ">
		<path fill="#FCFCFC" stroke="#FFFFFF" stroke-miterlimit="10" d="M83.425,303.426c4.656-0.532,12.009-0.382,19.158,0.471
			c10.366,1.234,16.826,3.817,21.229,8.451c3.801,3.593,5.855,8.673,5.103,14.987c-0.937,7.864-6.989,14.032-15.685,16.016
			l-0.043,0.358c7.413,2.695,15.597,10.076,14.177,21.991c-0.824,6.911-4.203,11.945-8.827,15.261
			c-6.092,4.472-15.431,5.775-28.538,4.214c-7.149-0.852-12.574-1.98-15.972-2.87L83.425,303.426z M85.302,375.914
			c2.102,0.614,4.947,1.074,8.641,1.514c10.724,1.278,21.082-1.477,22.473-13.153c1.292-10.844-7.567-16.611-18.887-17.96
			l-8.579-1.022L85.302,375.914z M89.873,337.548l9.413,1.121c10.843,1.292,17.973-3.78,18.896-11.525
			c1.107-9.293-5.469-13.943-15.954-15.193c-4.766-0.567-7.549-0.536-9.26-0.378L89.873,337.548z"/>
		<path fill="#FCFCFC" stroke="#FFFFFF" stroke-miterlimit="10" d="M188.368,380.099c-0.724,6.076-1.229,11.333-1.411,15.903
			l-9.294-1.107l0.525-9.484l-0.238-0.028c-3.175,4.335-10.095,9.674-20.342,8.453c-9.056-1.079-19.288-7.495-16.889-27.632
			l4.018-33.719l10.486,1.249l-3.791,31.813c-1.306,10.962,1.255,18.88,10.668,20.002c7.03,0.838,12.497-3.466,14.972-8.005
			c0.766-1.359,1.351-3.224,1.592-5.25l4.202-35.268l10.485,1.25L188.368,380.099z"/>
		<path fill="#FCFCFC" stroke="#FFFFFF" stroke-miterlimit="10" d="M208.606,358.341c0.809-6.792,1.385-12.645,1.667-18.049
			l9.175,1.094l-0.886,11.495l0.357,0.042c3.544-7.433,10.561-11.552,17.59-10.714c1.073,0.128,1.893,0.348,2.832,0.579l-1.178,9.89
			c-1.044-0.366-2.117-0.494-3.546-0.664c-7.388-0.881-13.284,3.977-15.651,11.669c-0.408,1.402-0.74,3.176-0.938,4.844
			l-3.663,30.741l-10.485-1.25L208.606,358.341z"/>
		<path fill="#FCFCFC" stroke="#FFFFFF" stroke-miterlimit="10" d="M247.947,363.874c0.88-7.388,1.352-13.374,1.766-18.883
			l9.294,1.107l-0.583,9.96l0.238,0.028c5.008-6.533,12.401-9.761,21.815-8.64c14.06,1.676,23.14,14.721,21.067,32.117
			c-2.47,20.732-16.44,29.462-30.024,27.843c-7.626-0.908-13.901-5.04-16.675-11.172l-0.238-0.028l-3.734,31.338l-10.366-1.235
			L247.947,363.874z M256.482,380.479c-0.185,1.549-0.236,2.993-0.035,4.346c1.041,7.497,6.76,13.252,14.267,14.146
			c11.081,1.32,18.594-6.968,20.169-20.193c1.363-11.439-3.535-22.053-14.617-23.373c-7.149-0.852-14.537,3.344-17.38,10.979
			c-0.514,1.269-1.056,2.775-1.212,4.086L256.482,380.479z"/>
		<path fill="#FCFCFC" stroke="#FFFFFF" stroke-miterlimit="10" d="M309.816,404.477c0.511-4.289,3.859-7.031,8.029-6.535
			c4.17,0.497,6.542,3.922,6.031,8.211c-0.498,4.171-3.622,7.062-8.03,6.536C311.796,412.206,309.319,408.647,309.816,404.477z
			 M314.812,387.913l5.16-57.512l11.438,1.363l-8.496,57.113L314.812,387.913z"/>
	</g>
</g>
</svg>
