<?xml version="1.0" encoding="utf-8"?>
<!-- Generator: Adobe Illustrator 15.0.2, SVG Export Plug-In . SVG Version: 6.00 Build 0)  -->
<!DOCTYPE svg PUBLIC "-//W3C//DTD SVG 1.1//EN" "http://www.w3.org/Graphics/SVG/1.1/DTD/svg11.dtd">
<svg version="1.1" id="Layer_1" xmlns="http://www.w3.org/2000/svg" xmlns:xlink="http://www.w3.org/1999/xlink" x="0px" y="0px"
	 width="640px" height="480px" viewBox="0 0 640 480" enable-background="new 0 0 640 480" xml:space="preserve">
<title>cloud</title>
<g>
	<title>Layer 1</title>
	<g id="layer1" opacity="0.25">
		<g>
			<path fill="#526D11" d="M227.324,11.942c-20.806-5.744-41.86,0.83-56.396,15.11c-7.595-9.405-17.877-16.665-30.211-20.069
				C108.975-1.78,76.275,17.673,67.77,50.379c-0.625,2.403-0.79,4.82-1.125,7.224C38.06,54.541,10.708,72.98,3.034,102.489
				c-7.604,29.239,6.745,59.136,32.534,71.429c-1.402,3.133-2.709,6.359-3.604,9.803c-8.505,32.706,10.393,66.327,42.135,75.091
				c15.547,4.293,31.259,1.772,44.302-5.711c7.188,15.845,20.59,28.599,38.258,33.476c25.207,6.959,50.787-4.064,64.597-25.195
				c5.594,4.08,11.812,7.455,18.815,9.389c31.742,8.764,64.372-10.709,72.878-43.415c4.276-16.446,1.63-33.09-6.09-46.73
				c7.641-7.507,13.621-17.017,16.551-28.286c8.506-32.707-10.392-66.328-42.134-75.091c-3.342-0.922-6.688-1.442-10.021-1.757
				C273.23,46.769,255.314,19.67,227.324,11.942z"/>
		</g>
	</g>
	<text transform="matrix(1 -0.0018 0.0018 1 95.9146 236.7476)"><tspan x="0" y="0" font-family="'MyriadPro-Regular'" font-size="120">CH</tspan><tspan x="147.838" y="0" font-family="'MyriadPro-Regular'" font-size="80">4</tspan></text>
	
		<text transform="matrix(0.9123 -0.4096 0.4096 0.9123 44.5542 158)" fill="#526D11" font-family="'MyriadPro-Regular'" font-size="90">Burp!</text>
</g>
</svg>
