<?xml version="1.0" encoding="utf-8"?>
<!-- Generator: Adobe Illustrator 15.0.2, SVG Export Plug-In . SVG Version: 6.00 Build 0)  -->
<!DOCTYPE svg PUBLIC "-//W3C//DTD SVG 1.1//EN" "http://www.w3.org/Graphics/SVG/1.1/DTD/svg11.dtd">
<svg version="1.1" id="Layer_1" xmlns="http://www.w3.org/2000/svg" xmlns:xlink="http://www.w3.org/1999/xlink" x="0px" y="0px"
	 width="640px" height="480px" viewBox="0 0 640 480" enable-background="new 0 0 640 480" xml:space="preserve">
<title>cloud</title>
<g>
	<title>Layer 1</title>
	<g id="layer1" opacity="0.25">
		<g>
			<path fill="#526D11" d="M227.324,11.942c-20.806-5.744-41.86,0.83-56.396,15.11c-7.595-9.405-17.877-16.665-30.211-20.069
				C108.975-1.78,76.275,17.673,67.77,50.379c-0.625,2.403-0.79,4.82-1.125,7.224C38.06,54.541,10.708,72.98,3.034,102.489
				c-7.604,29.239,6.745,59.136,32.534,71.429c-1.402,3.133-2.709,6.359-3.604,9.803c-8.505,32.706,10.393,66.327,42.135,75.091
				c15.547,4.293,31.259,1.771,44.302-5.711c7.188,15.845,20.59,28.599,38.258,33.476c25.207,6.959,50.787-4.063,64.597-25.195
				c5.594,4.08,11.812,7.455,18.815,9.39c31.742,8.764,64.372-10.709,72.878-43.416c4.275-16.446,1.63-33.09-6.09-46.73
				c7.641-7.507,13.621-17.017,16.551-28.286c8.506-32.707-10.393-66.328-42.134-75.091c-3.342-0.922-6.688-1.442-10.021-1.757
				C273.23,46.769,255.314,19.67,227.324,11.942z"/>
		</g>
	</g>
	<g enable-background="new    ">
		<path d="M131.27,200.229c-4.955,2.57-15.351,5.148-28.471,5.172c-30.401,0.055-53.155-19.104-53.219-54.625
			c-0.061-33.921,22.778-56.683,56.219-56.743c13.28-0.023,21.925,2.841,25.609,4.754l-3.5,11.366
			c-5.125-2.55-12.648-4.456-21.608-4.44c-25.281,0.046-42.052,16.236-42.001,44.557c0.048,26.561,15.278,43.334,41.359,43.287
			c8.64-0.016,17.277-1.791,22.873-4.521L131.27,200.229z"/>
		<path d="M162.599,95.69l0.082,45.121l52.161-0.094l-0.082-45.121l14.081-0.025l0.194,107.843l-14.081,0.025l-0.091-50.562
			l-52.161,0.094l0.091,50.562l-14.08,0.025l-0.194-107.843L162.599,95.69z"/>
	</g>
	<g enable-background="new    ">
		<path d="M275.455,228.424l-0.032-17.801l-30.202,0.055l-0.01-5.7l28.927-41.556l9.5-0.017l0.073,40.402l9.101-0.017l0.012,6.801
			l-9.101,0.017l0.032,17.801L275.455,228.424z M275.411,203.822l-0.039-21.701c-0.006-3.4,0.087-6.801,0.282-10.201h-0.3
			c-1.994,3.805-3.589,6.607-5.383,9.61l-15.862,22.13l0,0.2L275.411,203.822z"/>
	</g>
	<g enable-background="new    ">
		<path fill="#526D11" d="M83.396,303.396c4.656-0.533,12.009-0.382,19.158,0.47c10.366,1.235,16.826,3.817,21.229,8.451
			c3.801,3.594,5.854,8.674,5.102,14.988c-0.937,7.864-6.989,14.031-15.684,16.016l-0.043,0.358
			c7.413,2.695,15.597,10.075,14.177,21.99c-0.824,6.911-4.203,11.946-8.827,15.262c-6.092,4.471-15.431,5.775-28.538,4.213
			c-7.149-0.852-12.574-1.981-15.972-2.869L83.396,303.396z M85.273,375.884c2.102,0.613,4.947,1.073,8.641,1.514
			c10.724,1.277,21.082-1.477,22.473-13.153c1.292-10.844-7.567-16.612-18.887-17.961l-8.579-1.021L85.273,375.884z M89.845,337.518
			l9.413,1.121c10.843,1.292,17.973-3.78,18.896-11.525c1.107-9.293-5.469-13.944-15.954-15.193
			c-4.766-0.567-7.549-0.537-9.26-0.378L89.845,337.518z"/>
		<path fill="#526D11" d="M188.339,380.068c-0.724,6.076-1.229,11.333-1.411,15.903l-9.294-1.107l0.526-9.484l-0.239-0.028
			c-3.174,4.335-10.094,9.674-20.342,8.453c-9.055-1.079-19.288-7.495-16.888-27.632l4.018-33.72l10.485,1.25l-3.791,31.813
			c-1.306,10.963,1.255,18.881,10.668,20.003c7.03,0.837,12.498-3.467,14.972-8.005c0.767-1.359,1.351-3.224,1.592-5.25
			l4.202-35.268l10.485,1.25L188.339,380.068z"/>
		<path fill="#526D11" d="M208.577,358.311c0.81-6.792,1.386-12.645,1.667-18.049l9.175,1.094l-0.887,11.495l0.358,0.042
			c3.543-7.433,10.561-11.552,17.59-10.714c1.073,0.128,1.892,0.347,2.832,0.579l-1.179,9.89c-1.044-0.366-2.116-0.494-3.546-0.664
			c-7.388-0.881-13.284,3.977-15.65,11.669c-0.408,1.402-0.741,3.176-0.939,4.844l-3.663,30.741l-10.485-1.25L208.577,358.311z"/>
		<path fill="#526D11" d="M247.918,363.843c0.88-7.387,1.351-13.373,1.767-18.882l9.293,1.107l-0.582,9.96l0.237,0.028
			c5.009-6.533,12.402-9.761,21.815-8.64c14.06,1.676,23.14,14.721,21.067,32.117c-2.47,20.732-16.441,29.461-30.024,27.843
			c-7.626-0.908-13.901-5.04-16.675-11.172l-0.238-0.028l-3.733,31.337l-10.366-1.235L247.918,363.843z M256.453,380.449
			c-0.185,1.549-0.235,2.993-0.034,4.346c1.04,7.496,6.759,13.252,14.266,14.146c11.081,1.32,18.594-6.968,20.17-20.193
			c1.363-11.439-3.536-22.053-14.617-23.373c-7.149-0.853-14.537,3.344-17.38,10.979c-0.514,1.269-1.056,2.775-1.212,4.086
			L256.453,380.449z"/>
		<path fill="#526D11" d="M309.787,404.446c0.511-4.289,3.859-7.031,8.03-6.535c4.169,0.497,6.542,3.922,6.031,8.211
			c-0.497,4.171-3.621,7.062-8.03,6.536C311.767,412.176,309.291,408.617,309.787,404.446z M314.782,387.883l5.16-57.512
			l11.438,1.363l-8.496,57.113L314.782,387.883z"/>
	</g>
</g>
</svg>
