<?xml version="1.0" encoding="utf-8"?>
<!-- Generator: Adobe Illustrator 15.0.2, SVG Export Plug-In . SVG Version: 6.00 Build 0)  -->
<!DOCTYPE svg PUBLIC "-//W3C//DTD SVG 1.1//EN" "http://www.w3.org/Graphics/SVG/1.1/DTD/svg11.dtd">
<svg version="1.1"
	 id="svg2" inkscape:version="0.47 r22583" sodipodi:docname="krowa.svg" xmlns:dc="http://purl.org/dc/elements/1.1/" xmlns:cc="http://creativecommons.org/ns#" xmlns:rdf="http://www.w3.org/1999/02/22-rdf-syntax-ns#" xmlns:svg="http://www.w3.org/2000/svg" xmlns:sodipodi="http://sodipodi.sourceforge.net/DTD/sodipodi-0.dtd" xmlns:inkscape="http://www.inkscape.org/namespaces/inkscape"
	 xmlns="http://www.w3.org/2000/svg" xmlns:xlink="http://www.w3.org/1999/xlink" x="0px" y="0px" width="438.336px"
	 height="319.777px" viewBox="0 0 438.336 319.777" enable-background="new 0 0 438.336 319.777" xml:space="preserve">
<defs>
	
	
		<inkscape:perspective  id="perspective10" inkscape:persp3d-origin="372.04724 : 350.78739 : 1" sodipodi:type="inkscape:persp3d" inkscape:vp_x="0 : 526.18109 : 1" inkscape:vp_y="0 : 1000 : 0" inkscape:vp_z="744.09448 : 526.18109 : 1">
		</inkscape:perspective>
	
		<inkscape:perspective  id="perspective3076" inkscape:persp3d-origin="0.5 : 0.33333333 : 1" sodipodi:type="inkscape:persp3d" inkscape:vp_x="0 : 0.5 : 1" inkscape:vp_y="0 : 1000 : 0" inkscape:vp_z="1 : 0.5 : 1">
		</inkscape:perspective>
</defs>
<sodipodi:namedview  id="base" inkscape:window-height="752" inkscape:window-x="0" inkscape:window-y="0" inkscape:snap-page="true" inkscape:snap-nodes="false" inkscape:guide-bbox="true" inkscape:pageopacity="0.0" inkscape:pageshadow="2" inkscape:document-units="px" inkscape:current-layer="layer1" inkscape:window-width="1280" pagecolor="#ffffff" bordercolor="#666666" borderopacity="1.0" inkscape:zoom="1.4142136" inkscape:cx="359.84669" inkscape:cy="158.93504" showgrid="false" showguides="true" inkscape:window-maximized="1">
	</sodipodi:namedview>
<g id="layer1" transform="translate(-14.144884,37.996934)" inkscape:groupmode="layer" inkscape:label="Layer 1">
	
		<g id="g3168" transform="matrix(1.5926285,0,0,1.4882157,338.17463,-282.0303)" inkscape:export-ydpi="90" inkscape:export-xdpi="90" inkscape:export-filename="/Users/grzegorz/Sites/img/krowa.png">
		
			<g id="g3264" transform="matrix(1.148799,0,0,1.148799,-551.81693,96.44667)" inkscape:export-ydpi="90" inkscape:export-xdpi="90" inkscape:export-filename="/Users/grzegorz/Documents/workspace/Male_Zoo/res/drawable/krowa.png">
			<g id="g5000" transform="translate(25.227159,-58.205207)">
				<g id="g5002" transform="matrix(0.45590114,-0.23863686,0.27227113,0.45152134,192.38357,263.53796)">
					<g id="g5004">
						<path id="rect5006" fill="#E6E6E6" stroke="#000000" d="M429.918,190.923l2.151,0.002c0.719,0,1.301,0.582,1.299,1.299l0,3.43
							c0,0.717-0.582,1.3-1.301,1.3l-2.15,0c-0.72,0.002-1.302-0.58-1.3-1.301l0-3.428
							C428.618,191.506,429.201,190.924,429.918,190.923z"/>
						<path id="rect5008" fill="#E6E6E6" stroke="#000000" d="M429.918,196.953l2.15,0c0.719,0,1.301,0.582,1.303,1.301l0,3.428
							c0.001,0.718-0.582,1.299-1.299,1.299l-2.151-0.001c-0.717,0.001-1.299-0.581-1.297-1.299l-0.001-3.429
							C428.618,197.534,429.2,196.953,429.918,196.953z"/>
					</g>
				</g>
				<g id="g5010" transform="matrix(0.5139118,-0.02623087,0.05861675,0.52399157,206.87993,159.27673)">
					<g id="g5012">
						<path id="rect5014" fill="#E6E6E6" stroke="#000000" d="M429.917,190.924l2.151,0c0.718,0,1.299,0.583,1.301,1.3l0,3.427
							c-0.001,0.718-0.583,1.301-1.3,1.301l-2.151-0.001c-0.717,0-1.298-0.582-1.3-1.3l0-3.427
							C428.616,191.506,429.2,190.923,429.917,190.924z"/>
						<path id="rect5016" fill="#E6E6E6" stroke="#000000" d="M429.917,196.951l2.151,0.001c0.718,0,1.299,0.583,1.301,1.299
							l-0.001,3.429c0,0.717-0.582,1.3-1.3,1.3l-2.151,0c-0.717,0-1.298-0.582-1.3-1.3l0.001-3.429
							C428.618,197.535,429.2,196.953,429.917,196.951z"/>
					</g>
				</g>
				<g id="g5018" transform="matrix(0.51379903,0.02835406,0.00278189,0.52725265,214.77991,135.87752)">
					<g id="g5020">
						<path id="rect5022" fill="#E6E6E6" stroke="#000000" d="M429.918,190.922l2.149,0c0.719-0.001,1.301,0.581,1.3,1.299l0,3.429
							c-0.001,0.717-0.584,1.301-1.299,1.301l-2.149,0c-0.719,0.003-1.301-0.58-1.3-1.297l0-3.43
							C428.617,191.506,429.2,190.924,429.918,190.922z"/>
						<path id="rect5024" fill="#E6E6E6" stroke="#000000" d="M429.918,196.951l2.15,0c0.717,0,1.3,0.582,1.3,1.299l0,3.43
							c0,0.717-0.583,1.3-1.3,1.3l-2.149,0.001c-0.719,0.002-1.302-0.58-1.3-1.298l0-3.429
							C428.619,197.535,429.199,196.954,429.918,196.951z"/>
					</g>
				</g>
				
					<g id="g5026" transform="matrix(0.50864934,0.07790533,-0.04821627,0.52505075,221.11203,115.35341)" inkscape:transform-center-x="-1.0848268" inkscape:transform-center-y="-0.9179374">
					<g id="g5028">
						<path id="rect5030" fill="#E6E6E6" stroke="#000000" d="M429.918,190.923l2.15,0.001c0.719,0,1.301,0.583,1.3,1.3l0.002,3.429
							c0.001,0.719-0.584,1.302-1.302,1.301l-2.149,0c-0.718,0-1.3-0.583-1.301-1.301l0-3.429
							C428.618,191.506,429.201,190.924,429.918,190.923z"/>
						<path id="rect5032" fill="#E6E6E6" stroke="#000000" d="M429.919,196.954l2.149,0c0.718,0,1.3,0.582,1.303,1.299l0,3.428
							c0,0.718-0.582,1.3-1.301,1.3l-2.15,0c-0.719,0-1.301-0.585-1.301-1.302l0-3.429
							C428.618,197.535,429.201,196.954,429.919,196.954z"/>
					</g>
				</g>
				<g id="g5034" transform="matrix(0.50156137,0.11501993,-0.08661444,0.52009714,228.73787,100.08858)">
					<g id="g5036">
						<path id="rect5038" fill="#E6E6E6" stroke="#000000" d="M429.917,190.924l2.152,0.002c0.717,0.001,1.299,0.583,1.299,1.301
							l0,3.429c0,0.718-0.582,1.301-1.3,1.3l-2.151,0c-0.718-0.002-1.299-0.585-1.299-1.301l-0.001-3.431
							C428.617,191.505,429.199,190.924,429.917,190.924z"/>
						<path id="rect5040" fill="#E6E6E6" stroke="#000000" d="M429.918,196.953l2.151,0c0.718-0.001,1.301,0.582,1.3,1.299l0,3.43
							c-0.001,0.717-0.58,1.299-1.298,1.3l-2.151,0c-0.716-0.001-1.301-0.582-1.298-1.301l0.001-3.429
							C428.618,197.533,429.2,196.953,429.918,196.953z"/>
					</g>
				</g>
				<g id="g5042" transform="matrix(0.51385247,0.02736865,0.00379302,0.52724634,211.66605,136.71138)">
					<g id="g5044">
						<path id="rect5046" fill="#E6E6E6" stroke="#000000" d="M429.919,190.922l2.15,0c0.717,0.002,1.299,0.581,1.299,1.302l0,3.429
							c0.001,0.717-0.581,1.301-1.3,1.298l-2.15,0c-0.717,0-1.298-0.579-1.299-1.3l0-3.429
							C428.619,191.504,429.2,190.924,429.919,190.922z"/>
						<path id="rect5048" fill="#E6E6E6" stroke="#000000" d="M429.918,196.951l2.15,0c0.719,0.003,1.3,0.585,1.3,1.302l0.001,3.43
							c-0.001,0.716-0.583,1.3-1.301,1.297l-2.149,0c-0.719,0-1.3-0.579-1.301-1.3l0-3.429
							C428.618,197.533,429.201,196.953,429.918,196.951z"/>
					</g>
				</g>
				
					<g id="g5050" transform="matrix(0.49336768,0.14622495,-0.11903686,0.51364708,235.659,87.694963)" inkscape:transform-center-x="0.88737336" inkscape:transform-center-y="-1.1099769">
					<g id="g5052">
						<path id="rect5054" fill="#E6E6E6" stroke="#000000" d="M429.917,190.924l2.15-0.002c0.718,0,1.3,0.582,1.3,1.3l0.001,3.429
							c0,0.717-0.582,1.3-1.3,1.302l-2.151,0c-0.718,0-1.3-0.582-1.3-1.3l0-3.429C428.618,191.504,429.2,190.924,429.917,190.924z"
							/>
						<path id="rect5056" fill="#E6E6E6" stroke="#000000" d="M429.917,196.953l2.151,0c0.718-0.001,1.3,0.582,1.3,1.299
							l-0.001,3.43c0,0.717-0.581,1.3-1.298,1.299l-2.15,0.002c-0.716-0.001-1.3-0.582-1.298-1.301l-0.003-3.429
							C428.617,197.536,429.199,196.953,429.917,196.953z"/>
					</g>
				</g>
				<g id="g5058" transform="matrix(0.46913193,0.21144415,-0.1872403,0.49289367,256.79329,63.077929)">
					<g id="g5060">
						<path id="rect5062" fill="#E6E6E6" stroke="#000000" d="M429.916,190.924l2.149,0c0.719,0,1.303,0.581,1.299,1.299l0.001,3.43
							c0,0.717-0.582,1.301-1.299,1.3l-2.149,0c-0.719,0-1.3-0.584-1.299-1.3l-0.001-3.429
							C428.616,191.507,429.199,190.923,429.916,190.924z"/>
						<path id="rect5064" fill="#E6E6E6" stroke="#000000" d="M429.917,196.953l2.149,0c0.717,0.001,1.298,0.582,1.299,1.299
							l0,3.429c0.001,0.717-0.582,1.298-1.302,1.3h-2.15c-0.716-0.001-1.298-0.582-1.298-1.3l-0.001-3.429
							C428.618,197.535,429.198,196.953,429.917,196.953z"/>
					</g>
				</g>
				<g id="g5066" transform="matrix(0.43645422,0.27258231,-0.25179195,0.46325361,280.74865,41.639016)">
					<g id="g5068">
						<path id="rect5070" fill="#E6E6E6" stroke="#000000" d="M429.919,190.923l2.15,0c0.717,0.001,1.3,0.583,1.299,1.301
							l0.001,3.43c0,0.717-0.583,1.3-1.3,1.3l-2.152,0c-0.717-0.001-1.3-0.583-1.299-1.301l-0.001-3.427
							C428.619,191.507,429.2,190.923,429.919,190.923z"/>
						<path id="rect5072" fill="#E6E6E6" stroke="#000000" d="M429.918,196.954l2.15-0.001c0.717,0.001,1.299,0.582,1.299,1.302
							v3.428c0,0.719-0.582,1.299-1.301,1.3l-2.152,0.001c-0.715-0.001-1.3-0.583-1.298-1.3l-0.001-3.428
							C428.619,197.535,429.201,196.953,429.918,196.954z"/>
					</g>
				</g>
				
					<g id="g5074" transform="matrix(0.33797132,0.38803194,-0.37596226,0.36966942,342.39092,7.8673074)" inkscape:transform-center-x="-1.4210851">
					<g id="g5076">
						<path id="rect5078" fill="#E6E6E6" stroke="#000000" d="M429.919,190.924l2.149,0.001c0.719-0.001,1.301,0.582,1.301,1.3
							l-0.001,3.429c0.001,0.715-0.582,1.3-1.3,1.299l-2.151,0c-0.717,0-1.3-0.582-1.299-1.302l0.001-3.429
							C428.617,191.506,429.2,190.925,429.919,190.924z"/>
						<path id="rect5080" fill="#E6E6E6" stroke="#000000" d="M429.918,196.953l2.151,0c0.718,0.001,1.3,0.582,1.3,1.299
							l-0.001,3.429c-0.001,0.718-0.582,1.3-1.299,1.301l-2.15-0.002c-0.718,0.001-1.302-0.582-1.299-1.299l0-3.429
							C428.618,197.535,429.201,196.952,429.918,196.953z"/>
					</g>
				</g>
				<g id="g5082" transform="matrix(0.3237478,0.39997595,-0.38905806,0.35586082,348.9145,3.7283567)">
					<g id="g5084">
						<path id="rect5086" fill="#E6E6E6" stroke="#000000" d="M429.916,190.923l2.15,0c0.719,0,1.3,0.582,1.301,1.299l0,3.43
							c-0.002,0.718-0.582,1.299-1.3,1.3l-2.15,0c-0.719,0-1.3-0.582-1.301-1.3l0.001-3.429
							C428.617,191.505,429.2,190.923,429.916,190.923z"/>
						<path id="rect5088" fill="#E6E6E6" stroke="#000000" d="M429.917,196.952l2.15,0c0.719,0,1.3,0.582,1.3,1.301l0.001,3.428
							c-0.001,0.718-0.583,1.301-1.3,1.3l-2.15,0c-0.718-0.001-1.301-0.582-1.301-1.299l0.001-3.431
							C428.618,197.534,429.199,196.953,429.917,196.952z"/>
					</g>
				</g>
				<g id="g5090" transform="matrix(0.38353353,0.34306768,-0.32715582,0.41348781,315.72512,20.021832)">
					<g id="g5092">
						<path id="rect5094" fill="#E6E6E6" stroke="#000000" d="M429.915,190.925l2.151,0c0.719,0.001,1.3,0.582,1.3,1.299l0,3.43
							c0,0.717-0.583,1.3-1.3,1.301l-2.151-0.001c-0.719-0.001-1.3-0.582-1.301-1.3l0-3.429
							C428.616,191.506,429.199,190.923,429.915,190.925z"/>
						<path id="rect5096" fill="#E6E6E6" stroke="#000000" d="M429.916,196.952l2.151,0c0.716,0.001,1.3,0.582,1.301,1.3l0,3.43
							c0,0.717-0.582,1.3-1.3,1.3l-2.149,0c-0.719-0.001-1.301-0.582-1.302-1.3l0-3.429
							C428.616,197.536,429.199,196.953,429.916,196.952z"/>
					</g>
				</g>
				
					<g id="g5098" transform="matrix(0.29405077,0.42228846,-0.41371559,0.32686773,364.89443,-2.5438366)" inkscape:transform-center-y="-1.4210851">
					<g id="g5100">
						<path id="rect5102" fill="#E6E6E6" stroke="#000000" d="M429.917,190.924l2.151,0c0.718,0,1.3,0.581,1.3,1.3l0.001,3.431
							c0,0.717-0.582,1.299-1.301,1.3l-2.148,0.001c-0.718-0.002-1.302-0.584-1.3-1.3l-0.002-3.431
							C428.618,191.507,429.201,190.924,429.917,190.924z"/>
						<path id="rect5104" fill="#E6E6E6" stroke="#000000" d="M429.918,196.954l2.148-0.001c0.718,0,1.3,0.581,1.3,1.3l0.001,3.43
							c0,0.718-0.581,1.299-1.3,1.298l-2.151,0.002c-0.717-0.001-1.3-0.581-1.3-1.3l-0.001-3.43
							C428.617,197.536,429.2,196.955,429.918,196.954z"/>
					</g>
				</g>
			</g>
			<g id="g5106" transform="matrix(0.99942721,-0.03384157,0.03384157,0.99942721,24.326719,39.971733)">
				<path id="path5108" fill="#FFFFFF" d="M402.521,162.82c0.124,0.642,0.325,1.258,0.624,1.844c0.3,0.586,0.669,1.128,1.125,1.656
					c0.912,1.056,2.138,2.003,3.563,2.813c1.424,0.809,3.059,1.484,4.844,2.031c1.784,0.547,3.723,0.981,5.718,1.25
					c1.995,0.269,4.041,0.369,6.094,0.344c2.053-0.026,4.103-0.195,6.063-0.531c1.96-0.337,3.847-0.836,5.563-1.5
					c1.715-0.664,3.274-1.492,4.594-2.5c-0.827,0.946-1.76,1.84-2.75,2.688c-0.991,0.848-2.062,1.643-3.188,2.375
					c-1.126,0.732-2.298,1.401-3.532,2c-1.233,0.598-2.532,1.145-3.844,1.594c-1.312,0.448-2.638,0.814-4,1.094
					c-1.363,0.28-2.741,0.468-4.125,0.562c-1.385,0.094-2.779,0.078-4.157-0.031c-1.377-0.109-2.751-0.327-4.094-0.656
					c-2.045-0.502-3.899-1.24-5.468-2.187c-0.785-0.474-1.503-0.993-2.125-1.563c-0.623-0.57-1.162-1.189-1.594-1.844
					c-0.432-0.655-0.757-1.333-0.968-2.062c-0.212-0.73-0.318-1.518-0.282-2.313c0.036-0.794,0.218-1.589,0.531-2.437
					C401.428,164.597,401.901,163.712,402.521,162.82L402.521,162.82z"/>
				<path id="path5110" sodipodi:nodetypes="cssccscccscc" d="M403.861,157.479c-2.717-0.809-6.697,8.07-5.855,12.433
					c1.533,7.936,12.991,12.408,25.587,9.975c11.091-2.143,25.934-12.032,19.215-14.654c-1.564-0.725-7.583,3.963-13.254,5.058
					c-8.342,1.601-17.558-1.615-22.744-5.665C403.633,162.144,405.054,157.283,403.861,157.479L403.861,157.479z M402.506,162.819
					c1.99,10.28,27.629,13.476,38.188,5.412c-6.611,7.57-18.927,12.273-29.671,9.635
					C402.843,175.859,397.55,169.954,402.506,162.819L402.506,162.819z"/>
			</g>
		</g>
	</g>
</g>
<path stroke="#000000" stroke-width="4" stroke-miterlimit="10" d="M234.194,215.183c2.652,6.719-18.337-45.471-4.962-32.795"/>
<path stroke="#000000" stroke-width="4" stroke-miterlimit="10" d="M309.668,226.709c-1.795-14.827-25.935-22.332-21.426-36.987"/>
<path fill="#EDABAB" stroke="#000000" stroke-width="4" stroke-miterlimit="10" d="M285.156,190.388
	c9.621,4.166,7.738,23.322-1.153,28.02c-6.854,3.621-27.605,2.939-32.262-2.777c0-9.242-10.79-23.909-22.509-33.242"/>
<path fill="#020202" stroke="#000000" stroke-width="4" stroke-miterlimit="10" d="M229.335,186.055
	c0,4.233-0.005,6.932,1.666,10.665c0.819,1.83,0.795,3.576,1.408,5.668c0.517,1.764,1.889,3.214,2.266,5
	c0.786,3.727,0.204,6.5,4.753,6.091c1.632-0.146,8.85-4.5,8.573-0.192c0.329-2.267-0.204-4.57-1.256-6.278
	c-1.541-2.503-1.87-6.709-5.794-8.919c-5.048-2.843-5.89-8.568-10.95-12.368"/>
<path stroke="#000000" stroke-width="4" stroke-miterlimit="10" d="M265.253,221.982c5.634,0,8.717-0.022,14.098,0.595
	c7.5,0.86,12.999-9.44,13.311-15.568c0.454,2.101,1.82,1.657,3.241,2.658c1.707,1.201,2.133,1.022,3.024,3.316
	c0.666,1.714,0.615,3.379,1.993,4.998c1.013,1.19,2.634,1.43,3.61,2.725c0.456,0.818,0.697,1.944,0.665,2.9
	c-1.335-0.706-2.284-2.314-2.659-3.906c-14.854,4.336-4.072-1.158-9.062,3.057c-4.335,3.662-27.605-2.115-33.646-2.115"/>
</svg>
