<?xml version="1.0" encoding="utf-8"?>
<!-- Generator: Adobe Illustrator 15.0.2, SVG Export Plug-In . SVG Version: 6.00 Build 0)  -->
<!DOCTYPE svg PUBLIC "-//W3C//DTD SVG 1.1//EN" "http://www.w3.org/Graphics/SVG/1.1/DTD/svg11.dtd">
<svg version="1.1"
	 id="svg2" sodipodi:docname="krowa.svg" inkscape:version="0.47 r22583" xmlns:dc="http://purl.org/dc/elements/1.1/" xmlns:cc="http://creativecommons.org/ns#" xmlns:rdf="http://www.w3.org/1999/02/22-rdf-syntax-ns#" xmlns:svg="http://www.w3.org/2000/svg" xmlns:sodipodi="http://sodipodi.sourceforge.net/DTD/sodipodi-0.dtd" xmlns:inkscape="http://www.inkscape.org/namespaces/inkscape"
	 xmlns="http://www.w3.org/2000/svg" xmlns:xlink="http://www.w3.org/1999/xlink" x="0px" y="0px" width="438.336px"
	 height="319.777px" viewBox="0 0 438.336 319.777" enable-background="new 0 0 438.336 319.777" xml:space="preserve">
<filter  id="filter5121" height="1.262669" y="-0.13133448" width="1.3873243" x="-0.19366215" inkscape:collect="always" color-interpolation-filters="sRGB">
	<feGaussianBlur  id="feGaussianBlur5123" inkscape:collect="always" stdDeviation="0.38248253"></feGaussianBlur>
</filter>
<defs>
	
	
		<inkscape:perspective  id="perspective10" inkscape:persp3d-origin="372.04724 : 350.78739 : 1" inkscape:vp_z="744.09448 : 526.18109 : 1" inkscape:vp_y="0 : 1000 : 0" inkscape:vp_x="0 : 526.18109 : 1" sodipodi:type="inkscape:persp3d">
		</inkscape:perspective>
	
		<inkscape:perspective  id="perspective3076" inkscape:persp3d-origin="0.5 : 0.33333333 : 1" inkscape:vp_z="1 : 0.5 : 1" inkscape:vp_y="0 : 1000 : 0" inkscape:vp_x="0 : 0.5 : 1" sodipodi:type="inkscape:persp3d">
		</inkscape:perspective>
</defs>
<sodipodi:namedview  id="base" inkscape:window-width="1280" inkscape:current-layer="layer1" inkscape:document-units="px" inkscape:pageshadow="2" inkscape:pageopacity="0.0" showguides="true" showgrid="false" inkscape:cy="158.93504" inkscape:cx="359.84669" inkscape:zoom="1.4142136" borderopacity="1.0" bordercolor="#666666" pagecolor="#ffffff" inkscape:guide-bbox="true" inkscape:snap-nodes="false" inkscape:snap-page="true" inkscape:window-y="0" inkscape:window-x="0" inkscape:window-height="752" inkscape:window-maximized="1">
	</sodipodi:namedview>
<g id="layer1" transform="translate(-14.144884,37.996934)" inkscape:label="Layer 1" inkscape:groupmode="layer">
	
		<g id="g3168" transform="matrix(1.5926285,0,0,1.4882157,338.17463,-282.0303)" inkscape:export-xdpi="90" inkscape:export-ydpi="90" inkscape:export-filename="/Users/grzegorz/Sites/img/krowa.png">
		
			<g id="g3264" transform="matrix(1.148799,0,0,1.148799,-551.81693,96.44667)" inkscape:export-xdpi="90" inkscape:export-ydpi="90" inkscape:export-filename="/Users/grzegorz/Documents/workspace/Male_Zoo/res/drawable/krowa.png">
			<g id="g5000" transform="translate(25.227159,-58.205207)">
				<g id="g5002" transform="matrix(0.45590114,-0.23863686,0.27227113,0.45152134,192.38357,263.53796)">
					<g id="g5004">
						<path id="rect5006" fill="#E6E6E6" stroke="#000000" d="M429.918,190.924l2.15,0.001c0.718,0,1.3,0.582,1.3,1.299l0,3.43
							c0,0.717-0.582,1.3-1.301,1.3l-2.15,0c-0.719,0-1.301-0.582-1.3-1.301l0-3.428C428.618,191.506,429.2,190.924,429.918,190.924
							z"/>
					</g>
				</g>
				
					<g id="g5098" transform="matrix(0.29405077,0.42228846,-0.41371559,0.32686773,364.89443,-2.5438366)" inkscape:transform-center-y="-1.4210851">
					<g id="g5100">
						<path id="rect5102" fill="#E6E6E6" stroke="#000000" d="M429.917,190.924l2.151,0c0.718,0,1.3,0.582,1.3,1.3l0,3.429
							c0,0.718-0.582,1.3-1.3,1.3l-2.149,0c-0.718,0-1.301-0.583-1.3-1.3l-0.001-3.43
							C428.618,191.506,429.2,190.924,429.917,190.924z"/>
					</g>
				</g>
			</g>
			<g id="g5207">
				<g id="g5112" transform="translate(356.15282,82.66603)">
					
						<path id="path4635" sodipodi:nodetypes="csssssssssssssssssssssssssccsssscscssssssscccc" fill="#FFFFFF" stroke="#000000" stroke-miterlimit="10" d="
						M143.054,5.427c-0.289,0-2.02-0.812-3.844-1.812c-2.26-1.239-4.602-2.211-7.312-2.969c-2.71-0.758-5.807-1.317-9.531-1.75
						c-1.915-0.223-3.513-0.47-4.687-0.719c-1.175-0.25-1.915-0.504-2.062-0.719c-0.279-0.405-0.154-1.434,0.312-2.437
						c0.347-0.748,0.535-1.188,0.532-1.437c-0.003-0.25-0.176-0.313-0.532-0.313c-0.456,0-1.735,0.711-2.812,1.563
						c-1.063,0.84-1.818,1.229-2.375,1.156c-0.279-0.036-0.515-0.202-0.687-0.469c-0.173-0.267-0.295-0.656-0.375-1.156
						c-0.078-0.485-0.234-0.842-0.406-1.094c-0.171-0.251-0.373-0.393-0.563-0.406c-0.189-0.013-0.367,0.113-0.5,0.344
						c-0.132,0.231-0.219,0.583-0.219,1.062c0,0.596-0.059,1.034-0.188,1.344c-0.129,0.31-0.307,0.472-0.594,0.5
						c-0.573,0.055-1.5-0.44-2.875-1.5c-1.424-1.097-2.259-1.55-2.532-1.344c-0.272,0.206,0.012,1.071,0.875,2.594
						c0.519,0.914,0.872,1.627,1.031,2.219c0.16,0.592,0.143,1.045-0.125,1.406c-0.268,0.36-0.769,0.653-1.531,0.875
						c-0.763,0.222-1.8,0.39-3.125,0.563C97.269,1.144,95.619,1.5,93.96,2.02C81.733,5.596,72.621,13.429,70.179,23.958
						c0.275,0.508,0.429,1.258,0.5,2.406c0.072,1.148,0.084,2.702,0.094,4.75c0.016,3.463,0.049,5.368,0.312,7
						c0.263,1.632,0.736,2.982,1.656,5.344c0.594,1.523,1.156,3.301,1.625,5.125c-0.485,4.814,0.203,11.709,3.323,10.69
						c1.861-0.607,5.923-8.303,7.427-9.128c1.619-0.864,3.465-1.722,5.344-2.469c1.88-0.747,3.779-1.375,5.5-1.781
						c3.306-0.781,7.154-1.313,11.22-1.563c4.065-0.25,8.356-0.243,12.53,0c4.175,0.243,8.241,0.74,11.875,1.438
						c1.818,0.349,3.535,0.732,5.094,1.188c1.561,0.455,2.966,0.973,4.188,1.531c1.677,0.765,3.143,1.315,3.25,1.219
						c5.273-6.921,5.049-13.676,7.065-21.124c0.484-2.341-0.211-5.123-0.033-6.845C151.099,12.213,147.966,10.516,143.054,5.427
						L143.054,5.427z"/>
					<path id="path4843" sodipodi:nodetypes="cssssssssssssssssssscsssssscccssccc" fill="#FFAAAA" d="M89.489,49.868
						c2.104-0.891,4.266-1.586,6.593-2.115c2.327-0.53,4.816-0.878,7.625-1.105c2.81-0.227,5.917-0.332,9.469-0.316
						c3.998,0.018,7.545,0.161,10.688,0.411c3.142,0.249,5.886,0.62,8.344,1.137c2.456,0.516,4.622,1.17,6.562,1.989
						c1.941,0.819,3.657,1.78,5.25,2.937c1.483,1.076,2.483,1.908,3.406,3.031c0.923,1.123,1.764,2.538,3,4.768
						c1.4,2.523,2.154,3.914,2.563,5.273c0.409,1.359,0.484,2.689,0.594,5.179c0.091,2.056,0.091,3.582-0.063,4.988
						c-0.153,1.407-0.475,2.69-0.968,4.326c-0.758,2.512-1.641,4.788-2.75,6.852c-1.11,2.064-2.448,3.936-4,5.652
						c-1.553,1.716-3.32,3.267-5.407,4.736c-2.086,1.469-4.477,2.847-7.188,4.168c-1.657,0.808-3.195,1.479-4.687,2.052
						c-1.491,0.573-2.946,1.064-4.469,1.453c-3.043,0.777-6.319,1.239-10.656,1.579c-3.936,0.191-8.137,0.309-12.313,0.158
						c-2.088-0.076-4.158-0.224-6.219-0.474c-2.061-0.25-4.087-0.592-6.062-1.074c-1.976-0.482-3.917-1.089-5.75-1.863
						c-1.833-0.773-3.556-1.718-5.188-2.842c-1.632-1.124-3.159-2.446-4.531-3.978c-1.373-1.533-2.601-3.272-3.656-5.273
						c-0.902-1.759-1.532-3.236-1.875-4.547c-2.769-9.171-1.237-2.568-1.25-7.957c-0.234-0.212,0.107-1.903,0.687-3.852
						c0.58-1.95,1.398-4.144,2.031-5.273c0.694-1.238,2.499-4.098,4.032-6.346l2.781-4.073
						C79.304,55.633,80.229,54.612,89.489,49.868z"/>
					
						<path id="path4845" sodipodi:nodetypes="cccssssssssssssccsssssccccsssssssssssscccccssssssssscscscccsccccsssccsssccssccssc" d="
						M103.578,62.684c-1.421-0.836-1.585-0.825-3.083,0.17c-1.962,1.316-2.935,4.358-1.984,6.229c1.039,2.053,3.886,1.854,5.4-0.386
						C105.584,66.228,105.447,63.789,103.578,62.684z M136.503,60.905c-1.065,0-1.689,0.55-2.662,2.363
						c-1.257,2.334-1.219,3.907,0.137,5.428c1.683,1.895,5.515-0.386,6.089-3.621C140.444,62.935,138.711,60.905,136.503,60.905z
						 M136.503,60.905c-1.065,0-1.689,0.55-2.662,2.363c-1.257,2.334-1.219,3.907,0.137,5.428c1.683,1.895,5.515-0.386,6.089-3.621
						C140.444,62.935,138.711,60.905,136.503,60.905z M103.578,62.684c-1.421-0.836-1.585-0.825-3.083,0.17
						c-1.962,1.316-2.935,4.358-1.984,6.229c1.039,2.053,3.886,1.854,5.4-0.386C105.584,66.228,105.447,63.789,103.578,62.684z
						 M152.14,56.15c-3.104-5.212-3.301-5.755-3.225-8.984c0.05-2.088,1.028-6.744,2.503-11.886
						c1.388-4.849,2.569-10.37,2.771-12.944c-1.246-13.19-9.013-18.805-14.948-21.864c-3.777-1.726-11.445-3.843-15.539-4.299
						c-1.858-0.21-3.536-0.602-3.722-0.871c-0.186-0.275,0.082-1.293,0.601-2.27c0.984-1.872,0.787-3.188-0.563-3.656
						c-0.924-0.316-5.969,1.112-6.466,1.837c-0.661,0.965-1.902,0.439-2.29-0.977c-0.607-2.217-1.979-3.831-3.258-3.831
						c-0.874,0-1.312,0.573-1.815,2.38c-0.366,1.304-0.962,2.369-1.328,2.357c-0.366-0.006-1.722-0.602-3.011-1.316
						c-5.094-2.825-6.581-1.187-3.498,3.855c1.153,1.895,1.886,3.615,1.623,3.831c-0.262,0.216-1.399,0.532-2.525,0.708
						C65.215,10.504,61.908,21.915,73.61,58.039c-0.509,3.913-3.722,6.756-7.275,11.523c-3.722,10.639-3.093,20.776,6.215,30.433
						c11.691,8.721,23.912,9.013,36.128,9.382c13.44-0.304,17.943-1.077,25.694-4.375c12.308-5.252,19.206-12.576,22.376-23.753
						C159.229,72.498,158.043,66.047,152.14,56.15z M152.67,80.126c-3.028,9.943-8.516,15.945-19.359,21.18
						c-6.63,3.2-11.15,4.34-19.824,5.013c-15.747,0.755-35.265,0.661-43.709-15.173c-1.733-4.088-3.274-6.288-3.137-12.359
						c-0.464-0.421,1.454-6.814,2.722-9.048c0.694-1.228,2.515-4.048,4.045-6.276l2.787-4.042l-0.743-5.475
						c-0.454-3.328-1.509-7.44-2.7-10.487c-1.842-4.72-1.951-5.428-1.984-12.353c0.186-3.562-0.541-5.756,0.268-8.698
						c3.072-11.213,14.429-18.583,27.902-21.49c5.302-0.69,5.832-1.404,3.76-5.059c-1.727-3.047-1.203-3.445,1.645-1.252
						c2.755,2.123,3.667,2.035,3.667-0.351c0-1.919,1.361-1.819,1.673,0.117c0.322,2.001,1.328,2.129,3.454,0.45
						c1.077-0.848,2.334-1.544,2.788-1.544c0.71,0,0.716,0.246,0.022,1.743c-0.465,1-0.607,2.041-0.328,2.451
						c0.295,0.427,2.93,0.988,6.761,1.433c7.45,0.866,12.303,2.229,16.823,4.703c16.9,11.336,12.112,23.215,6.542,40.388
						c-0.169,0.52-0.59,0.158-1.213-1.053l-0.956-1.854l-0.213,1.755c-0.121,0.959,0.043,2.86,0.366,4.217
						c0.322,1.357,0.497,2.55,0.393,2.644c-0.109,0.099-1.569-0.45-3.241-1.217c-9.778-4.457-31.674-5.732-44.901-2.609
						c-6.887,1.626-16.714,6.873-16.08,8.581c0.153,0.415,1.35-0.035,3.394-1.269c8.559-5.194,15.79-6.82,30.001-6.756
						c15.987,0.07,24.465,1.831,30.832,6.411c2.968,2.129,3.941,3.305,6.417,7.715c2.793,4.995,2.924,5.416,3.143,10.341
						C153.868,74.973,153.66,76.885,152.67,80.126z M136.503,60.905c-1.065,0-1.689,0.55-2.662,2.363
						c-1.257,2.334-1.219,3.907,0.137,5.428c1.683,1.895,5.515-0.386,6.089-3.621C140.444,62.935,138.711,60.905,136.503,60.905z
						 M122.101,18.353 M121.199,26.448 M103.578,62.684c-1.421-0.836-1.585-0.825-3.083,0.17c-1.962,1.316-2.935,4.358-1.984,6.229
						c1.039,2.053,3.886,1.854,5.4-0.386C105.584,66.228,105.447,63.789,103.578,62.684z M103.578,62.684
						c-1.421-0.836-1.585-0.825-3.083,0.17c-1.962,1.316-2.935,4.358-1.984,6.229c1.039,2.053,3.886,1.854,5.4-0.386
						C105.584,66.228,105.447,63.789,103.578,62.684z M136.503,60.905c-1.065,0-1.689,0.55-2.662,2.363
						c-1.257,2.334-1.219,3.907,0.137,5.428c1.683,1.895,5.515-0.386,6.089-3.621C140.444,62.935,138.711,60.905,136.503,60.905z
						 M103.578,62.684c-1.421-0.836-1.585-0.825-3.083,0.17c-1.962,1.316-2.935,4.358-1.984,6.229
						c1.039,2.053,3.886,1.854,5.4-0.386C105.584,66.228,105.447,63.789,103.578,62.684z M136.503,60.905
						c-1.065,0-1.689,0.55-2.662,2.363c-1.257,2.334-1.219,3.907,0.137,5.428c1.683,1.895,5.515-0.386,6.089-3.621
						C140.444,62.935,138.711,60.905,136.503,60.905z M127.818,27.007c-1.211-8.573-1.323-11.668-5.748-11.668
						c-3.72,0-8.131,13.096-3.838,16.329C122.44,34.836,129.048,35.713,127.818,27.007z"/>
					<path d="M106.322,30.295c-1.394,3.3-7.631,4.936-10.024,2.783c-1.99-1.792-5.355-12.628-3.505-15.001
						C96.618,13.159,109.082,23.758,106.322,30.295z"/>
				</g>
				<g id="g5148" transform="translate(-3.6502386,2.1901432)">
					<path id="path5117" sodipodi:nodetypes="csscc" fill="#FFDCAC" stroke="#000000" stroke-width="3" d="M424.881,59.657
						c5.189-0.933,2.655,10.835,11.462,17.349c8.34,6.169,18.801,6.207,13.836,11.326c-6.62,6.826-20.001-1.899-23.647-9.396
						C423.767,72.741,422.522,60.339,424.881,59.657z"/>
					<g id="path5119" sodipodi:nodetypes="cc" opacity="0.8176" filter="url(#filter5121)" enable-background="new    ">
						<path fill="none" stroke="#000000" stroke-width="3" stroke-linecap="round" d="M441.172,89.032
							c3.54-1.639,3.944-2.99,4.479-5.525"/>
					</g>
					<g id="path5140" sodipodi:nodetypes="cc" opacity="0.8176" filter="url(#filter5121)" enable-background="new    ">
						<path fill="none" stroke="#000000" stroke-width="3" stroke-linecap="round" d="M435.488,86.88
							c3.541-1.64,3.944-2.99,4.479-5.526"/>
					</g>
					<g id="path5142" sodipodi:nodetypes="cc" opacity="0.8176" filter="url(#filter5121)" enable-background="new    ">
						<path fill="none" stroke="#000000" stroke-width="3" stroke-linecap="round" d="M430.634,82.726
							c3.778-0.972,4.42-2.227,5.404-4.624"/>
					</g>
					<g id="path5144" sodipodi:nodetypes="cc" opacity="0.8176" filter="url(#filter5121)" enable-background="new    ">
						<path fill="none" stroke="#000000" stroke-width="3" stroke-linecap="round" d="M426.414,77.559
							c3.779-0.972,4.421-2.227,5.405-4.624"/>
					</g>
					<g id="path5146" sodipodi:nodetypes="cc" opacity="0.8176" filter="url(#filter5121)" enable-background="new    ">
						<path fill="none" stroke="#000000" stroke-width="3" stroke-linecap="round" d="M425.037,70.154
							c1.109-0.885,3.129-1.969,3.252-2.988"/>
					</g>
				</g>
				<g id="g5193" transform="matrix(-1,0,0,1,932.77404,0.7300474)">
					<path id="path5195" sodipodi:nodetypes="csscc" fill="#FFDCAC" stroke="#000000" stroke-width="3" d="M424.881,59.657
						c5.189-0.933,2.655,10.835,11.462,17.349c8.34,6.169,18.801,6.207,13.836,11.326c-6.621,6.826-20.001-1.899-23.647-9.396
						C423.767,72.741,422.522,60.339,424.881,59.657z"/>
					<g id="path5197" sodipodi:nodetypes="cc" opacity="0.8176" filter="url(#filter5121)" enable-background="new    ">
						<path fill="none" stroke="#000000" stroke-width="3" stroke-linecap="round" d="M441.171,89.032
							c3.541-1.639,3.944-2.99,4.479-5.525"/>
					</g>
					<g id="path5199" sodipodi:nodetypes="cc" opacity="0.8176" filter="url(#filter5121)" enable-background="new    ">
						<path fill="none" stroke="#000000" stroke-width="3" stroke-linecap="round" d="M435.488,86.879
							c3.541-1.639,3.945-2.99,4.479-5.525"/>
					</g>
					<g id="path5201" sodipodi:nodetypes="cc" opacity="0.8176" filter="url(#filter5121)" enable-background="new    ">
						<path fill="none" stroke="#000000" stroke-width="3" stroke-linecap="round" d="M430.634,82.726
							c3.779-0.972,4.421-2.227,5.405-4.624"/>
					</g>
					<g id="path5203" sodipodi:nodetypes="cc" opacity="0.8176" filter="url(#filter5121)" enable-background="new    ">
						<path fill="none" stroke="#000000" stroke-width="3" stroke-linecap="round" d="M426.414,77.56
							c3.779-0.972,4.421-2.227,5.405-4.624"/>
					</g>
					<g id="path5205" sodipodi:nodetypes="cc" opacity="0.8176" filter="url(#filter5121)" enable-background="new    ">
						<path fill="none" stroke="#000000" stroke-width="3" stroke-linecap="round" d="M425.037,70.154
							c1.109-0.886,3.129-1.969,3.252-2.988"/>
					</g>
				</g>
			</g>
			<g id="g4933" transform="translate(279.08018,122.63218)">
				<path id="path4841" sodipodi:nodetypes="cssssccsssssssssssscc" fill="#FFFFFF" d="M248.803-40.029
					c-2.597-0.001-5.268,0.344-7.964,1.058c-2.697,0.714-5.408,0.567-8.066,1.927c-2.658,1.361-5.279,3.027-7.763,4.963
					c-2.483,1.936-5.334,3.804-7.506,6.246c-1.373,1.543-3.092,3.151-3.403,3.151c-5.197,3.605-7.511,13.338,9.834,12.611
					c0.268-0.349,0.687-0.608,1.244-0.813s1.251-0.354,2.151-0.488c2.27-0.338,5.998-1.508,9.88-3.01
					c3.88-1.502,7.925-3.328,10.753-4.963c3.221-1.861,5.796-3.596,7.864-5.288c2.069-1.693,3.61-3.349,4.738-5.045
					c0.598-0.899,1.066-1.755,1.378-2.563c0.312-0.808,0.472-1.567,0.504-2.278c0.033-0.711-0.062-1.345-0.302-1.953
					c-0.24-0.608-0.602,0.037-1.109-0.462c-0.507-0.499-1.148-0.959-1.915-1.342c-0.768-0.384-1.667-0.715-2.689-0.977
					C254.388-39.781,251.826-40.027,248.803-40.029L248.803-40.029z"/>
				<path id="path4849" fill="#FFAAAA" d="M245.139-31.072c1.78-0.046,3.249,0.18,3.374,0.5c0.122,0.311-0.383,1.378-1.125,2.375
					c-0.391,0.526-1.082,1.105-1.999,1.719c-0.917,0.615-2.07,1.255-3.343,1.875c-2.548,1.241-5.63,2.415-8.595,3.187
					c-2.882,0.751-5.082,1.226-6.562,1.375c-0.741,0.075-1.313,0.046-1.688-0.031c-0.375-0.078-0.563-0.207-0.563-0.438
					c0-0.334,0.336-0.833,0.937-1.406c0.601-0.574,1.477-1.224,2.531-1.938c2.109-1.427,4.967-3.052,8-4.438
					c2.354-1.074,3.987-1.74,5.344-2.156C242.808-30.863,243.884-31.039,245.139-31.072L245.139-31.072z"/>
				<path id="path4639" sodipodi:nodetypes="cssssccssscccssssccsssssc" d="M226.596-13.607c4.221-0.52,15.499-4.715,20.759-7.226
					c5.989-2.859,9.642-5.329,11.738-7.934c4.443-5.521,0.301-8.887-10.942-8.894c-9.662-0.006-20.569,4.604-28.644,12.107
					c-1.276,1.185-2.557,2.155-2.846,2.155c-3.434-0.879,0.29-3.71,2.557-5.588c10.328-9.648,26.043-13.992,37.841-10.461
					c3.313,0.992,4.732,1.953,5.909,4.001c2.026,3.526-0.026,8.304-5.172,12.047c-5.505,4.005-22.615,10.967-29.821,12.179
					C225.643-9.864,223.98-12.668,226.596-13.607L226.596-13.607z M223.147-18.158c-3.409-1.787,2.946-7.842,12.762-12.158
					c7.358-3.235,12.175-3.979,13.996-2.16c1.442,1.44,0.857,3.801-1.554,6.273c-3.256,3.339-9.564,6.163-17.428,7.804
					C226.478-17.472,224.569-17.412,223.147-18.158L223.147-18.158z M233.271-21.331c5.929-1.545,12.371-4.682,13.936-6.787
					c0.742-0.997,1.25-2.067,1.128-2.378c-0.125-0.32-1.583-0.53-3.364-0.483c-2.509,0.065-4.329,0.623-9.035,2.772
					c-6.068,2.771-11.468,6.426-11.468,7.761C224.468-19.523,227.506-19.829,233.271-21.331z"/>
			</g>
			<g id="g4928" transform="translate(352.24653,91.379516)">
				<path id="path4926" sodipodi:nodetypes="cssssssssssssssscc" fill="#FFFFFF" d="M81.044,7.193c-0.334,0-3.241-1.827-6.462-4.053
					C71.1,0.734,67.516-1.4,64.074-3.141c-3.441-1.741-6.746-3.104-9.693-3.951c-1.729-0.497-3.489-0.839-5.157-1.047
					c-1.667-0.208-3.236-0.274-4.667-0.203c-1.431,0.071-2.701,0.265-3.72,0.608c-1.02,0.343-1.786,0.847-2.219,1.453
					c-0.404,0.564-0.532,1.555-0.392,2.735c0.14,1.18,0.519,2.536,1.142,3.816c0.413,0.849,1.167,1.876,2.121,2.972
					c0.955,1.096,2.136,2.276,3.362,3.378c1.225,1.101,2.493,2.142,3.721,3.006c1.227,0.863,2.403,1.541,3.361,1.925
					c2.389,0.956,6.784,2.304,10.868,3.411c4.083,1.107,7.852,1.979,9.04,1.992c1.152,0.014,2.03-0.006,2.676,0.135
					C72.949,17.397,91.011,20.92,81.044,7.193L81.044,7.193z"/>
				<path id="path4847" fill="#E9AFAF" d="M54.482,0.808c1.268-0.025,3.023,0.256,4.938,0.812c1.66,0.483,3.597,1.236,5.531,2.125
					c1.935,0.889,3.869,1.914,5.563,2.906c1.694,0.993,3.126,1.956,4.063,2.75c0.468,0.397,0.818,0.74,1,1.031
					c0.182,0.291,0.199,0.541,0.031,0.688c-0.471,0.411-1.187,0.666-1.938,0.781c-0.751,0.115-1.522,0.086-2.156-0.156
					c-0.646-0.247-3.684-1.122-6.75-1.938c-2.554-0.68-4.038-1.11-5.25-1.719C58.3,7.48,57.34,6.687,55.794,5.308
					c-1.856-1.656-3.375-3.258-3.375-3.563c0-0.296,0.207-0.532,0.563-0.688C53.337,0.903,53.848,0.82,54.482,0.808L54.482,0.808z"
					/>
				<path id="path4924" sodipodi:nodetypes="ccssssccssssscccssssccsssssc" d="M73.72,18.762l-4.387-0.659
					c-10.681-1.605-20.844-5.62-25.745-10.173c-4.042-3.755-5.919-6.683-6.335-9.879c-0.271-2.09-0.108-2.82,0.885-3.95
					c1.773-2.017,4.771-3.105,8.558-3.105c8.084,0,16.759,3.212,26.915,9.966c0.426,0.422,11.146,5.53,6.854,6.413
					c-0.319,0-3.104-1.685-6.188-3.745c-6.67-4.454-13.695-7.889-19.338-9.456c-6.623-1.839-13.442-1.509-15.103,0.731
					c-0.774,1.044-0.447,3.705,0.747,6.075c1.584,3.143,8.344,9.012,12.016,10.432c4.576,1.769,16.791,4.969,19.065,4.995
					C76.336,16.714,77.169,17.481,73.72,18.762L73.72,18.762z M64.319,11.706c-7.2-2.491-11.65-5.191-13.859-8.409
					c-1.363-1.985-1.046-3.623,0.805-4.151c2.233-0.638,6.721-0.271,9.931,0.813c7.23,2.441,16.34,8.34,16.34,10.582
					C77.536,13.457,71.037,14.031,64.319,11.706z M75.481,10.97c1.345-1.174-9.556-7.566-16.195-9.495
					C55.457,0.363,52.3,0.423,52.3,1.609c0,0.304,1.519,1.909,3.375,3.565c3.093,2.759,3.842,3.135,8.95,4.494
					c3.066,0.816,6.102,1.686,6.747,1.932C72.641,12.084,74.539,11.793,75.481,10.97L75.481,10.97z"/>
			</g>
		</g>
	</g>
</g>
<g>
	<path fill="#FFFFFF" d="M286.596,92.284c-5.512,3.224-12.591,1.368-15.813-4.143c-2.578-4.411-1.096-10.074,3.313-12.651
		c3.528-2.063,8.059-0.875,10.121,2.652c1.651,2.822,0.7,6.447-2.122,8.097c-2.256,1.319-5.156,0.559-6.476-1.698
		c-1.058-1.806-0.449-4.126,1.356-5.182c1.445-0.844,3.3-0.357,4.146,1.086c0.675,1.156,0.286,2.641-0.871,3.317"/>
	<path d="M286.669,92.415c-2.454,2.139-6.157,2.919-9.518,2.086c-3.365-0.792-6.456-3.207-7.826-6.45
		c-0.712-1.676-0.876-3.485-0.615-5.189c0.274-1.7,0.917-3.293,1.869-4.65c0.933-1.367,2.173-2.523,3.598-3.348
		c1.487-0.833,3.203-1.25,4.96-1.104c3.478,0.242,7.034,3.019,7.306,7.103c0.138,1.951-0.56,3.96-1.914,5.431
		c-0.678,0.742-1.478,1.328-2.465,1.737c-0.977,0.394-2.058,0.548-3.103,0.413c-2.084-0.241-4.015-1.703-4.791-3.542
		c-0.957-2.125-0.303-4.517,1.296-5.87c0.194-0.169,0.405-0.321,0.623-0.455l0.38-0.217l0.274-0.113
		c0.589-0.236,1.065-0.297,1.606-0.292c1.051,0.019,2.048,0.482,2.719,1.215c0.332,0.358,0.606,0.797,0.747,1.225
		c0.182,0.528,0.2,0.991,0.127,1.472c-0.162,0.945-0.821,1.721-1.614,2.024l-0.15-0.259c0.576-0.488,0.838-1.201,0.777-1.833
		c-0.022-0.304-0.147-0.637-0.28-0.83c-0.188-0.288-0.394-0.494-0.641-0.666c-0.49-0.334-1.085-0.448-1.608-0.363
		c-0.246,0.035-0.549,0.16-0.676,0.251l-0.251,0.159c0.043-0.008-0.081,0.074-0.113,0.105c-0.106,0.089-0.205,0.185-0.292,0.289
		c-0.721,0.802-0.785,2.086-0.344,2.817c0.577,1.019,1.537,1.59,2.591,1.701c0.519,0.052,1.046-0.005,1.53-0.199
		c0.47-0.188,0.977-0.542,1.389-0.933c0.829-0.802,1.335-1.967,1.349-3.167c0.01-0.597-0.114-1.205-0.334-1.763
		c-0.224-0.572-0.602-1.145-1.01-1.652c-0.844-1.008-2.021-1.814-3.39-2.167c-1.352-0.355-2.9-0.255-4.206,0.374
		c-1.354,0.654-2.516,1.687-3.274,2.978c-0.76,1.288-1.107,2.789-1.033,4.229c0.073,1.438,0.524,2.821,1.198,3.973
		c0.701,1.213,1.61,2.287,2.639,3.219c1.049,0.916,2.282,1.627,3.612,2.116c2.676,0.983,5.741,0.963,8.714-0.12L286.669,92.415z"/>
</g>
<g>
	<path fill="#FFFFFF" d="M312.91,91.466c5.414,2.778,12.092,0.65,14.861-4.78c2.229-4.339,0.516-9.663-3.823-11.891
		c-3.473-1.78-7.73-0.411-9.513,3.061c-1.425,2.777-0.33,6.184,2.448,7.61c2.223,1.14,4.947,0.262,6.088-1.958
		c0.914-1.778,0.21-3.957-1.565-4.871c-1.425-0.729-3.167-0.168-3.896,1.253"/>
	<path d="M312.975,91.331c2.77,0.777,5.512,0.679,7.911-0.257c1.192-0.466,2.296-1.117,3.247-1.934
		c0.934-0.836,1.758-1.781,2.436-2.857c0.687-1.051,1.169-2.223,1.349-3.523c0.184-1.292-0.009-2.668-0.568-3.899
		c-1.111-2.451-3.809-4.232-6.358-4.016c-2.555,0.168-4.689,1.906-5.457,4.018c-0.341,0.998-0.292,2.124,0.129,3.068
		c0.431,0.947,1.138,1.716,2.094,2.178c0.775,0.39,1.833,0.418,2.708,0c0.442-0.205,0.837-0.52,1.146-0.919
		c0.064-0.082,0.176-0.247,0.198-0.268l0.128-0.235c0.045-0.082,0.039-0.089,0.065-0.137c0.08-0.164,0.164-0.428,0.185-0.657
		c0.13-0.963-0.321-2.058-1.334-2.665c-0.844-0.544-2.36-0.388-3.209,0.73l-0.268-0.137c0.425-1.491,2.282-2.589,4.105-1.992
		c1.651,0.478,3.015,2.191,3.067,4.098c0.063,2.019-1.047,3.694-2.649,4.711c-1.604,1.01-3.714,1.184-5.532,0.357
		c-1.64-0.735-3.021-2.204-3.622-3.921c-0.633-1.712-0.574-3.644,0.167-5.292c0.722-1.585,1.921-2.886,3.397-3.694
		c1.466-0.819,3.17-1.084,4.752-0.886c1.596,0.186,3.05,0.911,4.236,1.816c1.204,0.916,2.188,2.084,2.914,3.402
		c0.741,1.311,1.216,2.796,1.361,4.359c0.146,1.553-0.116,3.226-0.801,4.679c-1.313,2.926-4.145,5.084-7.197,5.834
		c-3.054,0.782-6.422,0.162-8.73-1.693L312.975,91.331z"/>
</g>
</svg>
