<?xml version="1.0" encoding="UTF-8" standalone="no"?>
<!-- Created with Inkscape (http://www.inkscape.org/) -->
<svg
   xmlns:dc="http://purl.org/dc/elements/1.1/"
   xmlns:cc="http://web.resource.org/cc/"
   xmlns:rdf="http://www.w3.org/1999/02/22-rdf-syntax-ns#"
   xmlns:svg="http://www.w3.org/2000/svg"
   xmlns="http://www.w3.org/2000/svg"
   xmlns:xlink="http://www.w3.org/1999/xlink"
   xmlns:sodipodi="http://sodipodi.sourceforge.net/DTD/sodipodi-0.dtd"
   xmlns:inkscape="http://www.inkscape.org/namespaces/inkscape"
   width="733.37073"
   height="931.36066"
   id="svg2"
   sodipodi:version="0.32"
   inkscape:version="0.45pre1"
   sodipodi:modified="true"
   version="1.0">
  <sodipodi:namedview
     id="base"
     pagecolor="#ffffff"
     bordercolor="#666666"
     borderopacity="1.0"
     gridtolerance="10000"
     guidetolerance="10"
     objecttolerance="10"
     inkscape:pageopacity="0.0"
     inkscape:pageshadow="2"
     inkscape:zoom="0.49497475"
     inkscape:cx="244.93641"
     inkscape:cy="599.40298"
     inkscape:document-units="px"
     inkscape:current-layer="layer1"
     inkscape:window-width="1054"
     inkscape:window-height="892"
     inkscape:window-x="22"
     inkscape:window-y="33" />
  <defs
     id="defs4">
    <linearGradient
       id="linearGradient3161">
      <stop
         offset="0"
         style="stop-color:#24395e;stop-opacity:1;"
         id="stop3163" />
      <stop
         offset="1"
         style="stop-color:#617fa3;stop-opacity:1;"
         id="stop3165" />
    </linearGradient>
    <linearGradient
       id="linearGradient3145">
      <stop
         offset="0"
         style="stop-color:#243863;stop-opacity:1;"
         id="stop3147" />
      <stop
         offset="1"
         style="stop-color:#243863;stop-opacity:1;"
         id="stop3149" />
    </linearGradient>
    <linearGradient
       x2="480.83258"
       gradientTransform="translate(30.304577,127.27922)"
       y2="856.39258"
       inkscape:collect="always"
       x1="491.94427"
       id="linearGradient3167"
       y1="-74.968056"
       xlink:href="#linearGradient3161"
       gradientUnits="userSpaceOnUse" />
    <filter
       id="filter9086"
       inkscape:collect="always">
      <feGaussianBlur
         stdDeviation="15.039911"
         id="feGaussianBlur9088"
         inkscape:collect="always" />
    </filter>
    <filter
       id="filter9090"
       inkscape:collect="always">
      <feGaussianBlur
         stdDeviation="15.039911"
         id="feGaussianBlur9092"
         inkscape:collect="always" />
    </filter>
    <filter
       id="filter9094"
       inkscape:collect="always">
      <feGaussianBlur
         stdDeviation="15.039911"
         id="feGaussianBlur9096"
         inkscape:collect="always" />
    </filter>
    <filter
       y="-0.11058675"
       x="-0.059278153"
       height="1.2211735"
       inkscape:collect="always"
       id="filter9098"
       width="1.1185563">
      <feGaussianBlur
         stdDeviation="15.039911"
         id="feGaussianBlur9100"
         inkscape:collect="always" />
    </filter>
    <filter
       inkscape:collect="always"
       x="-0.10484781"
       width="1.2096956"
       y="-0.16617554"
       height="1.3323511"
       id="filter10273">
      <feGaussianBlur
         inkscape:collect="always"
         stdDeviation="28.144907"
         id="feGaussianBlur10275" />
    </filter>
    <filter
       inkscape:collect="always"
       x="-0.18019789"
       width="1.3603958"
       y="-0.2855995"
       height="1.5711991"
       id="filter10307">
      <feGaussianBlur
         inkscape:collect="always"
         stdDeviation="48.371565"
         id="feGaussianBlur10309" />
    </filter>
  </defs>
  <metadata
     id="metadata7">
    <rdf:RDF>
      <cc:Work
         rdf:about="">
        <dc:format>image/svg+xml</dc:format>
        <dc:type
           rdf:resource="http://purl.org/dc/dcmitype/StillImage" />
      </cc:Work>
    </rdf:RDF>
  </metadata>
  <g
     inkscape:label="Layer 1"
     id="layer1"
     inkscape:groupmode="layer"
     transform="translate(-155.56349,-52.311165)">
    <rect
       y="52.311165"
       x="155.56349"
       height="931.36066"
       style="opacity:1;fill:url(#linearGradient3167);fill-opacity:1;stroke:none;stroke-width:20;stroke-miterlimit:4;stroke-dasharray:none;stroke-opacity:1"
       id="rect2172"
       width="733.37073" />
    <path
       style="opacity:0.21363633;fill:#ffffff;fill-opacity:1;stroke:none;stroke-width:20;stroke-miterlimit:4;stroke-opacity:1;filter:url(#filter9098)"
       id="path3169"
       sodipodi:nodetypes="csssccsssssssssc"
       d="M 636.45637,363.58679 C 643.77068,413.39155 623.07626,464.07877 578.81461,451.34309 C 616.44548,410.30806 763.55648,431.7787 644.89514,457.82131 C 632.33319,491.52679 555.58991,546.68668 560.64937,536.12178 C 544.99553,503.90577 359.01743,313.2081 377.73805,389.93259 C 470.57629,444.29533 406.85201,507.22924 380.52132,441.29043 C 358.3885,390.91765 408.13791,529.66581 356.6947,479.42001 C 243.41624,460.87703 391.36126,451.38143 245.48371,446.4916 C 154.12042,471.47702 297.2325,464.75743 309.66589,355.00251 C 279.44319,269.46815 252.71292,370.00962 252.89976,363.79418 C 315.21079,156.77487 279.59956,647.65395 347.86595,422.47734 C 380.83614,461.22881 197.38795,107.17785 318.57444,215.68751 C 346.65665,213.60844 513.45437,295.03333 461.17525,354.80302 C 578.08891,287.74943 662.83749,248.62701 607.344,305.3636 C 660.69487,310.86163 727.62171,330.9351 736.01581,373.25186 C 743.27866,413.22845 558.93928,277.62694 636.41055,342.60209 C 756.93464,273.40474 724.89524,327.6941 723.70738,323.5215" />
    <path
       style="opacity:0.21363633;fill:#ffffff;fill-opacity:1;stroke:none;stroke-width:20;stroke-miterlimit:4;stroke-opacity:1;filter:url(#filter9094)"
       id="path7701"
       sodipodi:nodetypes="csssccsssssssssc"
       d="M 689.19725,299.34193 C 712.52676,362.65176 694.63095,344.84762 649.31572,419.32429 C 556.141,386.6412 879.03359,325.71454 687.03839,382.06654 C 648.27447,424.589 741.48993,536.97561 704.49285,524.03502 C 623.88614,463.01685 511.3509,332.35188 474.86811,338.48204 C 524.16152,371.69513 477.71269,585.22728 433.22674,449.64479 C 414.34735,416.92511 415.29102,400.1176 361.24435,354.62763 C 240.96653,413.60796 334.41281,414.74379 261.75744,414.05198 C 196.36916,429.40296 294.26241,363.27349 316.4852,284.29744 C 260.63605,209.49572 301.90576,291.83453 278.12301,322.43898 C 273.66737,80.01097 377.59837,475.88669 451.89276,359.68725 C 441.52575,438.9518 337.50199,136.40015 414.41204,170.51236 C 455.3372,189.25277 617.64585,309.40491 581.64225,330.01868 C 682.64111,269.70059 808.00536,172.29115 718.47077,236.73173 C 787.87292,169.811 777.2107,301.2915 786.11585,324.88831 C 790.26623,405.57293 666.97475,241.48204 716.07542,319.05425 C 831.94195,262.51775 811.12695,297.88254 781.17892,305.01767" />
    <path
       style="opacity:0.21363633;fill:#ffffff;fill-opacity:1;stroke:none;stroke-width:20;stroke-miterlimit:4;stroke-opacity:1;filter:url(#filter9090)"
       id="path7733"
       sodipodi:nodetypes="csssccsssssssssc"
       d="M 614.30083,383.18405 C 622.21711,449.71736 580.89394,346.52638 576.72715,469.27884 C 422.12959,479.46678 851.6202,244.15209 613.11283,372.87103 C 645.03918,419.6131 677.66621,556.70682 637.27956,546.77833 C 532.43782,426.88432 379.97203,362.37776 439.40068,339.39131 C 524.86739,409.18473 377.92959,578.64225 332.57527,413.1357 C 317.96107,388.63858 369.51119,393.44558 363.6898,408.83526 C 263.88513,434.81468 284.53909,359.63705 210.23767,416.78397 C 164.69607,422.72918 229.31118,373.52725 267.31919,312.6543 C 284.52608,198.38166 272.76141,302.51054 271.36967,261.08498 C 187.05133,98.68988 308.94776,445.74877 393.72384,348.95749 C 220.83949,414.78292 234.9359,132.26487 335.20458,221.32286 C 389.42054,234.80004 529.32425,289.12803 504.28731,302.6165 C 707.56124,248.46511 846.54893,127.44638 698.12998,203.91808 C 758.93592,138.6133 720.41071,319.52366 730.73371,340.83015 C 750.92078,425.1748 636.89532,289.18084 678.9995,383.2004 C 821.39866,346.62646 603.33825,236.85974 699.04955,345.05516" />
    <path
       style="opacity:0.21363633;fill:#ffffff;fill-opacity:1;stroke:none;stroke-width:20;stroke-miterlimit:4;stroke-opacity:1;filter:url(#filter9086)"
       id="path7799"
       sodipodi:nodetypes="czzzzzzzzzzzzzzzz"
       d="M 688.02039,360.78913 C 709.83089,434.11786 652.30233,338.65399 575.9426,463.22777 C 554.44406,520.66555 844.83078,290.75813 691.47505,395.42657 C 573.33283,501.86809 726.82412,596.0789 661.60816,544.29607 C 601.9525,463.5507 426.05167,311.45587 477.11904,319.26046 C 592.88102,361.14606 461.12504,561.29661 408.35682,412.18612 C 340.2101,295.12447 386.08653,377.46089 330.90477,404.05284 C 232.87771,392.51399 261.20118,336.93588 204.52873,363.02678 C 148.26828,394.12458 285.33054,346.01102 293.59057,275.56025 C 312.76669,199.34353 349.61473,305.13332 311.16788,221.88871 C 265.35427,138.0693 535.422,312.29824 445.72407,300.30946 C 363.03786,266.24571 268.09085,118.92796 408.60803,213.37708 C 494.15697,294.24117 271.399,456.71873 504.6489,365.08745 C 578.17629,333.114 775.58725,121.82971 686.7658,161.04528 C 602.16711,111.56971 794.80533,252.73505 761.2456,272.40258 C 835.11048,322.97424 648.22632,446.65888 695.73823,393.86079 C 783.34716,420.7238 643.65558,228.55187 737.98645,324.23462" />
    <path
       style="opacity:0.21363633;fill:#ffffff;fill-opacity:1;stroke:none;stroke-width:20;stroke-miterlimit:4;stroke-opacity:1;filter:url(#filter9098)"
       id="path9106"
       sodipodi:nodetypes="csssccsssssssssc"
       d="M 683.86925,394.05815 C 687.09827,362.62077 733.10812,603.52736 633.88784,587.32779 C 593.33203,628.55001 837.45193,313.61409 626.70831,404.31197 C 617.46841,406.81825 486.71033,521.09744 567.68777,567.97997 C 548.32683,506.94137 487.27358,457.43793 396.81705,488.70558 C 430.12895,544.87769 456.70939,613.84456 438.26712,558.64376 C 389.95724,509.3781 494.67924,520.48458 445.37815,475.38918 C 374.98119,480.01614 342.6993,485.88552 209.75484,472.83571 C 133.957,528.3399 321.89468,419.51987 308.21257,331.43383 C 267.76266,376.24788 324.92841,379.84629 316.85647,366.19891 C 276.48788,180.91117 216.7999,544.22004 379.37811,459.96586 C 410.00735,468.76281 392.49158,216.73224 456.13528,298.00503 C 515.02182,296.42884 440.81846,421.04684 497.76282,456.57405 C 540.25964,380.26352 718.55503,256.75284 660.97432,361.08896 C 727.3666,324.27136 748.3151,351.02954 739.68323,420.45742 C 731.04558,560.53911 614.20674,236.91626 680.96354,387.76841 C 838.3813,366.96575 671.18548,409.25233 717.69758,374.94343" />
    <path
       style="opacity:0.21363633;fill:#ffffff;fill-opacity:1;stroke:none;stroke-width:20;stroke-miterlimit:4;stroke-opacity:1;filter:url(#filter9094)"
       id="path9108"
       sodipodi:nodetypes="csssccsssssssssc"
       d="M 698.46529,353.58168 C 789.3535,357.17278 782.48213,313.96721 735.70424,387.8293 C 616.51068,362.89761 892.05743,317.71318 694.33003,374.03293 C 651.78696,412.91408 789.19444,597.18261 741.64928,603.295 C 807.54681,584.36749 565.53228,368.09872 532.64159,369.07798 C 571.4636,389.79517 480.25483,670.03592 411.90089,548.74772 C 350.89265,529.55057 456.33767,395.38942 396.31788,395.187 C 222.52725,521.10742 398.85416,458.89279 323.52805,442.62932 C 250.98281,441.94034 387.84447,443.29286 403.19165,367.04585 C 340.44811,275.23187 380.29876,253.74689 338.74978,289.68004 C 390.2899,75.93371 435.5836,502.99939 472.97876,394.66686 C 462.61482,474.03641 357.51348,150.43851 398.24225,162.63634 C 438.47132,181.72333 652.78396,331.60592 615.91333,351.62881 C 715.60324,289.62668 818.53734,213.22355 689.49742,217.03291 C 750.73926,144.68373 805.35084,309.12609 821.46001,373.43949 C 826.05266,435.75426 595.81158,274.34909 734.19405,355.42014 C 902.17987,350.80314 851.44406,308.94044 821.14958,324.44653" />
    <path
       style="opacity:0.21363633;fill:#ffffff;fill-opacity:1;stroke:none;stroke-width:20;stroke-miterlimit:4;stroke-opacity:1;filter:url(#filter9090)"
       id="path9110"
       sodipodi:nodetypes="csssccsssssssssc"
       d="M 683.61095,459.03389 C 691.29273,525.13359 557.24805,425.68136 582.3154,614.0137 C 297.72851,634.49298 945.94137,334.14059 678.85779,446.60479 C 734.01477,532.37576 672.76866,676.82847 666.16816,628.05788 C 561.75633,511.19101 373.2169,474.09943 410.16926,439.41171 C 490.67959,510.46423 362.76143,548.21517 364.7376,430.30921 C 328.53433,362.66009 437.62624,385.68608 407.92399,430.70525 C 319.6777,491.44291 311.12024,342.88753 233.68619,445.0962 C 190.26469,430.96294 276.46751,402.3852 307.94412,360.47416 C 321.87059,238.84585 338.11266,315.522 300.81714,272.37396 C 153.3117,222.48131 354.66352,418.70411 457.11338,292.8112 C 309.28904,342.99092 277.44484,178.20757 336.24589,273.1945 C 399.02297,298.428 520.23288,366.95034 508.67973,377.56556 C 736.17697,332.70877 971.08672,101.33986 751.53722,138.44773 C 837.58699,70.81051 749.03494,391.66262 760.70643,373.89396 C 821.03232,540.03805 677.58891,355.4324 714.78282,456.61061 C 838.37222,456.7709 594.84507,285.94463 714.85514,416.68675" />
    <path
       style="opacity:0.21363633;fill:#ffffff;fill-opacity:1;stroke:none;stroke-width:20;stroke-miterlimit:4;stroke-opacity:1;filter:url(#filter9086)"
       id="path9112"
       sodipodi:nodetypes="czzzzzzzzzzzzzzzz"
       d="M 639.89002,530.36304 C 595.1848,526.49245 752.64648,549.92143 646.4489,587.34389 C 520.77152,597.93399 786.99753,346.30905 653.00291,448.81904 C 602.18575,557.53925 765.99221,675.95509 710.26842,605.59252 C 567.18829,463.39153 453.78356,445.43564 522.76528,462.98624 C 573.1238,488.47711 436.28247,592.399 397.06363,567.40204 C 309.79858,494.13802 444.28707,448.12353 400.21906,516.05425 C 311.87397,470.90729 299.75241,462.149 283.20918,464.32881 C 277.02935,471.55813 303.51793,527.16378 306.51799,395.72986 C 313.44192,350.65318 400.48224,377.2731 317.30598,266.44832 C 377.26031,212.52878 526.37207,535.79049 412.78326,455.26503 C 306.20698,458.45463 398.19732,201.40389 438.86265,306.10062 C 612.41982,379.79308 393.89282,470.83012 583.78805,388.03411 C 600.0007,438.84442 768.11663,185.34411 733.24743,265.40568 C 727.99472,167.17262 745.54672,384.70974 775.97936,410.88606 C 755.96091,478.3258 554.1928,399.82305 722.59523,435.44692 C 818.97597,407.09913 642.43515,310.16414 744.88147,431.44855" />
    <path
       style="opacity:0.29090905;fill:#4d4d4d;fill-opacity:1;stroke:none;stroke-width:20;stroke-miterlimit:4;stroke-opacity:1;filter:url(#filter10273)"
       id="path9230"
       sodipodi:nodetypes="czzzzzzzzzzzzzzzz"
       transform="matrix(0.894633,0,0,0.6081561,47.501763,43.39895)"
       d="M 661.96002,712.5338 C 664.1685,678.96487 750.58116,728.49856 657.02525,772.52308 C 500.8704,783.34257 712.32401,501.1899 625.16314,608.73897 C 578.72814,791.08141 711.67133,796.66638 658.05606,749.05823 C 486.70916,626.463 375.97966,660.50405 571.81796,614.93494 C 622.18078,640.58997 403.65636,744.82042 359.34763,717.16846 C 265.62197,619.48227 536.48367,608.79467 434.82284,703.60981 C 411.8948,769.74405 342.72953,602.29614 326.39162,603.42065 C 342.54416,617.53555 256.35629,658.50078 240.12519,529.33917 C 261.56766,476.17389 305.78267,550.56874 239.90823,450.86697 C 301.36674,469.37042 531.40146,708.37473 417.73686,642.83225 C 296.85042,622.32554 394.21334,381.17919 410.97637,446.9828 C 592.46296,517.59251 426.937,659.24178 617.67822,574.91694 C 637.6148,680.18971 754.29616,446.7833 717.45796,482.2782 C 714.86655,384.03463 745.57028,551.42243 776.77983,580.67312 C 761.42586,644.82487 511.72794,592.86831 697.39207,603.98163 C 792.67607,575.71245 671.95855,457.30558 750.31906,613.21522" />
    <path
       d="M 661.96002,712.5338 C 664.1685,678.96487 750.58116,728.49856 657.02525,772.52308 C 500.8704,783.34257 712.32401,501.1899 625.16314,608.73897 C 578.72814,791.08141 711.67133,796.66638 658.05606,749.05823 C 486.70916,626.463 375.97966,660.50405 571.81796,614.93494 C 622.18078,640.58997 403.65636,744.82042 359.34763,717.16846 C 265.62197,619.48227 536.48367,608.79467 434.82284,703.60981 C 411.8948,769.74405 342.72953,602.29614 326.39162,603.42065 C 342.54416,617.53555 256.35629,658.50078 240.12519,529.33917 C 261.56766,476.17389 305.78267,550.56874 239.90823,450.86697 C 301.36674,469.37042 531.40146,708.37473 417.73686,642.83225 C 296.85042,622.32554 394.21334,381.17919 410.97637,446.9828 C 592.46296,517.59251 426.937,659.24178 617.67822,574.91694 C 637.6148,680.18971 754.29616,446.7833 717.45796,482.2782 C 714.86655,384.03463 745.57028,551.42243 776.77983,580.67312 C 761.42586,644.82487 511.72794,592.86831 697.39207,603.98163 C 792.67607,575.71245 671.95855,457.30558 750.31906,613.21522"
       transform="matrix(0.4392971,0,0,0.34573,350.68987,238.53493)"
       sodipodi:nodetypes="czzzzzzzzzzzzzzzz"
       id="path10277"
       style="opacity:0.29090905;fill:#4d4d4d;fill-opacity:1;stroke:none;stroke-width:20;stroke-miterlimit:4;stroke-opacity:1;filter:url(#filter10307)" />
  </g>
</svg>
