<?xml version="1.0" encoding="UTF-8" standalone="no"?>
<svg
   xmlns:dc="http://purl.org/dc/elements/1.1/"
   xmlns:cc="http://creativecommons.org/ns#"
   xmlns:rdf="http://www.w3.org/1999/02/22-rdf-syntax-ns#"
   xmlns:svg="http://www.w3.org/2000/svg"
   xmlns="http://www.w3.org/2000/svg"
   xmlns:sodipodi="http://sodipodi.sourceforge.net/DTD/sodipodi-0.dtd"
   xmlns:inkscape="http://www.inkscape.org/namespaces/inkscape"
   id="svg2"
   viewBox="0 0 2569.7 3246"
   version="1.1"
   inkscape:version="0.48.4 r9939"
   width="100%"
   height="100%"
   sodipodi:docname="power-station.svg">
  <defs
     id="defs118" />
  <sodipodi:namedview
     pagecolor="#ffffff"
     bordercolor="#666666"
     borderopacity="1"
     objecttolerance="10"
     gridtolerance="10"
     guidetolerance="10"
     inkscape:pageopacity="0"
     inkscape:pageshadow="2"
     inkscape:window-width="1119"
     inkscape:window-height="906"
     id="namedview116"
     showgrid="false"
     inkscape:zoom="0.20564042"
     inkscape:cx="1284.85"
     inkscape:cy="1623"
     inkscape:window-x="1629"
     inkscape:window-y="89"
     inkscape:window-maximized="0"
     inkscape:current-layer="svg2" />
  <g
     id="layer2"
     transform="matrix(-1,0,0,1,2209.4081,685.19)">
    <g
       id="g4032"
       style="stroke:#000000;stroke-width:4">
      <g
         id="g4012">
        <path
           id="path3070"
           d="M 621.18,1855.6 C 617.9558,1049.69 591.781,244.9 600.849,-575 c -25.927,-36.681 -112.74,-32.877 -134.4,0 -17.422,798.48 -58.353,1622.1 -89.465,2422.9 z"
           inkscape:connector-curvature="0"
           style="fill:#c1b6b4;stroke-width:4" />
        <g
           id="g3994"
           style="stroke-width:0.88221997">
          <g
             id="g3864"
             transform="matrix(4.534,0,0,4.534,-2837.3,-2467)">
            <path
               id="path3842"
               d="m 743.12,411.53 c -5.3364,0.0918 -10.578,1.6513 -13.406,4.4688 -0.3552,0.40416 -0.70348,0.84388 -1.0625,1.2812 l -1.5799,68.714 c 5.9356,-7.5936 25.258,-7.6617 30.815,-0.24157 l 0.42073,-68.473 c -0.29379,-0.36861 -0.57913,-0.71203 -0.875,-1.0625 -3.1292,-3.3063 -8.7717,-4.7828 -14.312,-4.6875 z"
               inkscape:connector-curvature="0"
               style="fill:#aa0000" />
            <path
               id="path3854"
               d="m 727.34,474.43 c 12.463,-7.6408 21.185,-5.6041 30.619,-0.002 l -0.004,-11.867 c -9.4794,-8.0269 -24.895,-5.7605 -30.339,-0.12359 z"
               inkscape:connector-curvature="0"
               style="fill:#ffffff" />
            <path
               id="path3856"
               d="m 727.93,452.2 c 10.349,-9.7245 26.105,-4.9954 30.173,-0.25232 l -0.003,-12.499 c -6.8086,-7.043 -24.883,-5.833 -29.959,0.39318 z"
               inkscape:connector-curvature="0"
               style="fill:#ffffff" />
          </g>
          <g
             id="g3869"
             transform="matrix(4.534,0,0,4.534,-2837.3,-2467)">
            <path
               id="path3862"
               d="m 722.54,617.24 c 12.239,-5.4356 26.247,-4.378 36.092,-0.25066 l -0.54206,-60.61 c -13.662,-6.5951 -25.725,-3.8341 -33.38,0.25659 z"
               inkscape:connector-curvature="0"
               style="fill:#aa0000" />
            <path
               id="path3858"
               d="m 723,604.61 c 12.423,-5.8887 24.065,-4.8567 35.49,-0.003 l -0.11291,-11.363 c -10.024,-6.64 -26.584,-4.9742 -34.954,-0.22601 z"
               inkscape:connector-curvature="0"
               style="fill:#ffffff" />
            <path
               id="path3860"
               d="m 723.9,579.86 0.39877,-11.368 c 10.686,-4.2645 21.845,-5.7928 33.872,0.006 l 0.0995,12.373 c -11.372,-5.7881 -26.457,-5.1516 -34.37,-1.0112 z"
               inkscape:connector-curvature="0"
               style="fill:#ffffff" />
          </g>
          <g
             id="g3874"
             transform="matrix(4.534,0,0,4.534,-2831.6,-1963.4)">
            <path
               id="path3876"
               d="m 716.76,619.88 c 12.06,-3.1141 31.606,-2.4616 42.165,-0.11995 l -0.84177,-63.383 c -13.662,-6.5951 -31.087,-4.2153 -38.743,-0.12456 z"
               inkscape:connector-curvature="0"
               style="fill:#aa0000" />
            <path
               id="path3878"
               d="m 717.27,607.65 c 10.281,-4.2815 31.092,-3.5736 41.502,0.18476 l -0.38648,-13.517 c -10.738,-4.8543 -28.626,-4.9674 -40.567,-0.39778 z"
               inkscape:connector-curvature="0"
               style="fill:#ffffff" />
            <path
               id="path3880"
               d="m 718.31,582.13 0.55959,-13.912 c 10.686,-4.2645 29.062,-4.4434 39.303,0.28388 l 0.18304,12.751 c -10.247,-3.6435 -29.518,-3.483 -40.046,0.87714 z"
               inkscape:connector-curvature="0"
               style="fill:#ffffff" />
          </g>
          <g
             id="g3882"
             transform="matrix(4.534,0,0,4.534,-2823.9,-1423)">
            <path
               id="path3884"
               d="m 709.86,625.67 c 11.425,-4.7008 37.892,-4.7244 49.163,-0.60449 l -0.93285,-68.683 c -13.662,-6.5951 -37.677,-4.0061 -45.332,0.0846 z"
               inkscape:connector-curvature="0"
               style="fill:#aa0000" />
            <path
               id="path3886"
               d="m 710.44,611.7 c 10.281,-4.2815 37.984,-4.0966 48.395,-0.33815 l -0.18701,-13.768 c -11.428,-5.199 -36.323,-5.0665 -47.607,-0.16823 z"
               inkscape:connector-curvature="0"
               style="fill:#ffffff" />
            <path
               id="path3888"
               d="m 711.57,584.63 0.62337,-14.919 c 10.686,-4.2645 35.825,-4.9383 46.067,-0.211 l 0.19715,14.515 c -10.627,-4.7831 -36.65,-4.618 -46.887,0.61534 z"
               inkscape:connector-curvature="0"
               style="fill:#ffffff" />
          </g>
        </g>
      </g>
      <g
         id="g3971">
        <path
           id="path3068"
           d="m 665.22,1868.8 253.33,-4.8578 c -26.86,-702.9 -67.77,-1400.6 -50.02,-2115.9 -38.52,-47.96 -127.57,-42.02 -158.78,0.26 18.74,739.91 -16.93,1490.3 -44.53,2120.5 z"
           inkscape:connector-curvature="0"
           style="fill:#c9bdbd;stroke-width:4" />
        <g
           id="g3950"
           style="stroke-width:0.88221997">
          <g
             id="g3908"
             transform="matrix(4.534,0,0,4.534,-2594,-2143.7)">
            <path
               id="path3910"
               d="m 728.66,417.28 0.94722,53.946 c 5.9356,-7.5936 27.661,-8.1748 33.219,-0.7546 l 0.8538,-53.252 c -6.4351,-8.8958 -27.385,-10.588 -35.02,0.0606 z"
               inkscape:connector-curvature="0"
               style="fill:#aa0000" />
            <path
               id="path3912"
               d="m 729.48,460.67 c 12.463,-7.6408 24.07,-5.9981 33.504,-0.39597 l 0.0527,-9.9586 c -9.4794,-8.0269 -28.255,-5.2505 -33.699,0.38648 z"
               inkscape:connector-curvature="0"
               style="fill:#ffffff" />
            <path
               id="path3914"
               d="m 729.1,442.61 c 10.349,-9.7245 29.996,-5.367 34.064,-0.62394 l 0.20657,-11.241 c -6.8086,-7.043 -29.322,-6.076 -34.398,0.15026 z"
               inkscape:connector-curvature="0"
               style="fill:#ffffff" />
          </g>
          <g
             id="g3916"
             transform="matrix(4.534,0,0,4.534,-2573,-2361.5)">
            <path
               id="path3918"
               d="m 724.93,607.26 c 12.239,-5.4356 23.829,-3.7392 33.674,0.3882 l -0.49495,-51.9 c -9.7479,-6.4688 -25.278,-4.5909 -32.934,-0.50016 z"
               inkscape:connector-curvature="0"
               style="fill:#aa0000" />
            <path
               id="path3920"
               d="m 725.04,596.02 c 12.423,-5.8887 21.795,-3.8347 33.459,-0.11839 l -0.0903,-9.4714 c -10.024,-6.2612 -24.932,-4.8507 -33.302,-0.10246 z"
               inkscape:connector-curvature="0"
               style="fill:#ffffff" />
            <path
               id="path3922"
               d="m 725.15,576.83 0.0287,-11.493 c 10.686,-4.2645 20.999,-5.6616 33.027,0.1372 l 0.10349,10.852 c -10.24,-4.9703 -24.027,-4.608 -33.159,0.50398 z"
               inkscape:connector-curvature="0"
               style="fill:#ffffff" />
          </g>
          <g
             id="g3924"
             transform="matrix(4.534,0,0,4.534,-2576.8,-1940.3)">
            <path
               id="path3926"
               d="m 724.02,606.75 c 12.618,-3.9194 28.126,-3.3271 37.678,-0.36776 l -1.4399,-50.764 c -9.7479,-6.4688 -27.422,-4.4586 -35.077,-0.36789 z"
               inkscape:connector-curvature="0"
               style="fill:#aa0000" />
            <path
               id="path3928"
               d="m 724.27,597.03 c 12.617,-4.9196 25.614,-3.8793 37.137,-0.86876 l -0.29347,-10.346 c -10.665,-4.9799 -28.558,-3.7909 -36.577,0.25558 z"
               inkscape:connector-curvature="0"
               style="fill:#ffffff" />
            <path
               id="path3930"
               d="m 724.77,575.94 0.2004,-11.234 c 11.321,-3.2052 23.857,-4.8241 35.527,0.37874 l 0.31217,9.8567 c -9.9711,-3.1083 -25.902,-3.3498 -36.039,0.99899 z"
               inkscape:connector-curvature="0"
               style="fill:#ffffff" />
          </g>
          <g
             id="g3932"
             transform="matrix(4.534,0,0,4.534,-2588.3,-1497.6)">
            <path
               id="path3934"
               d="m 723.08,613.18 c 12.618,-3.9194 35.527,-3.321 45.08,-0.36171 l -2.2674,-56.939 c -9.7479,-6.4688 -33.062,-4.727 -40.717,-0.63629 z"
               inkscape:connector-curvature="0"
               style="fill:#aa0000" />
            <path
               id="path3936"
               d="m 723.47,602.46 c 12.617,-4.9196 32.733,-3.2565 44.255,-0.24596 l -0.42172,-10.967 c -10.665,-4.9799 -35.349,-4.5615 -43.368,-0.51502 z"
               inkscape:connector-curvature="0"
               style="fill:#ffffff" />
            <path
               id="path3938"
               d="m 724.27,580.36 0.4152,-11.479 c 11.321,-3.2052 30.062,-4.5892 41.732,0.61367 l 0.45476,10.886 c -9.9711,-3.1083 -32.464,-4.3694 -42.602,-0.0206 z"
               inkscape:connector-curvature="0"
               style="fill:#ffffff" />
          </g>
          <g
             id="g3944"
             transform="matrix(4.534,0,0,4.534,-2837.3,-2467)">
            <path
               id="path3940"
               d="m 776.42,865.98 -1.4784,34.599 c 14.947,-2.9039 31.564,-3.661 51.217,-0.51588 l -1.4193,-33.844 c -16.476,-3.773 -32.515,-3.1863 -48.319,-0.23887 z"
               inkscape:connector-curvature="0"
               style="fill:#aa0000" />
            <path
               id="path3942"
               d="m 775.43,889.23 0.54686,-12.657 c 14.573,-1.8603 28.773,-4.136 49.224,0.53368 l 0.47423,11.355 c -25.144,-3.7208 -37.563,-1.4139 -50.245,0.76874 z"
               inkscape:connector-curvature="0"
               style="fill:#ffffff" />
          </g>
        </g>
      </g>
    </g>
  </g>
  <g
     id="layer3"
     transform="matrix(-1,0,0,1,2209.4081,685.19)">
    <g
       id="g4148"
       style="stroke:#000000;stroke-width:4">
      <path
         id="path4120"
         d="m 1540,1392.4 260,300 -260,140 z"
         inkscape:connector-curvature="0"
         style="fill:#666666" />
      <g
         id="g4141">
        <g
           id="g4132">
          <path
             id="path4126"
             d="m 840,1622.4 v -145 l 695,-35 v 165 z"
             inkscape:connector-curvature="0"
             style="fill:#1a1a1a" />
          <path
             id="path4128"
             d="m 840,1622.4 h -5 v -140 h 5 z"
             inkscape:connector-curvature="0"
             style="fill:#b3b3b3" />
          <path
             id="path4130"
             d="m 1535,1597.4 v -145 h 5 v 145 z"
             inkscape:connector-curvature="0"
             style="fill:#b3b3b3" />
        </g>
        <path
           id="path4139"
           d="m 1540,1587.4 205,135 45,-25 -250,-235 z"
           inkscape:connector-curvature="0"
           style="fill:#111111" />
      </g>
      <path
         id="path4122"
         d="m 810,1492.4 v -90 l 750,-30 v 90 z"
         inkscape:connector-curvature="0"
         style="fill:#cccccc" />
      <path
         id="path4124"
         d="m 1560,1587.4 v 225 l -750,15 v -215 z"
         inkscape:connector-curvature="0"
         style="fill:#cccccc" />
    </g>
  </g>
  <g
     id="layer4"
     transform="matrix(-1,0,0,1,2209.4081,685.19)">
    <g
       id="g4209"
       style="stroke:#000000;stroke-width:4">
      <path
         id="path4179"
         d="m 1545,1617.4 v -40 h 60 v 40 z"
         inkscape:connector-curvature="0"
         style="fill:#4d3c3c" />
      <g
         id="g4187">
        <path
           id="path4170"
           d="m 1425,1607.4 315,-5 v 400 h -315 z"
           inkscape:connector-curvature="0"
           style="fill:#e3dbdb" />
        <g
           id="g4183"
           style="fill:#4d4d4d">
          <path
             id="path4173"
             d="m 1435,1647.4 v 200 h 55 v -200 z"
             inkscape:connector-curvature="0" />
          <path
             id="path4175"
             d="m 1670,1637.4 h 55 v 215 h -55 z"
             inkscape:connector-curvature="0" />
        </g>
      </g>
      <path
         id="path4177"
         d="m 1740,2002.4 v -400 l 260,300 v 170 z"
         inkscape:connector-curvature="0"
         style="fill:#998789" />
      <path
         id="path4181"
         d="m 1500,1592.4 v -65 l 155,-5 v 65 z"
         inkscape:connector-curvature="0"
         style="fill:#1a1a1a" />
    </g>
  </g>
  <g
     id="layer5"
     transform="matrix(-1,0,0,1,2209.4081,685.19)">
    <g
       id="g4327"
       style="stroke:#000000">
      <g
         id="g4275"
         transform="matrix(0.8317,0,0,0.79613,706.26,402.11)"
         style="stroke-width:4.91569996">
        <g
           id="g4277">
          <path
             id="path4279"
             d="m 740,1572.4 v 800 h 240 v -800 z"
             inkscape:connector-curvature="0"
             style="fill:#cccccc" />
          <path
             id="path4281"
             d="m 980,1572.4 50,45 v 715 l -50,40 z"
             inkscape:connector-curvature="0"
             style="fill:#999999" />
          <path
             id="path4283"
             d="m 1030,1732.4 h 200 v 595 h -200 z"
             inkscape:connector-curvature="0"
             style="fill:#cccccc" />
          <path
             id="path4285"
             d="m 1230,1732.4 140,80 v 440 l -140,70 z"
             inkscape:connector-curvature="0"
             style="fill:#999999" />
        </g>
        <path
           id="path4287"
           d="m 990,1757.4 25,20 v 485 l -25,15 z"
           inkscape:connector-curvature="0"
           style="fill:#1a1a1a" />
        <path
           id="path4289"
           d="m 1030,1772.4 v 70 h 180 v -70 z"
           inkscape:connector-curvature="0"
           style="fill:#4d4d4d" />
        <path
           id="path4291"
           d="m 1030,1882.4 v 70 h 180 v -70 z"
           inkscape:connector-curvature="0"
           style="fill:#4d4d4d" />
        <path
           id="path4293"
           d="m 1030,1992.4 v 70 h 180 v -70 z"
           inkscape:connector-curvature="0"
           style="fill:#4d4d4d" />
        <path
           id="path4295"
           d="m 1230,1772.4 120,70 v 55 l -120,-55 z"
           inkscape:connector-curvature="0"
           style="fill:#333333" />
        <path
           id="path4297"
           d="m 1230,1882.4 120,50 v 55 l -120,-35 z"
           inkscape:connector-curvature="0"
           style="fill:#333333" />
        <path
           id="path4299"
           d="m 1230,1992.4 120,30 v 50 l -120,-10 z"
           inkscape:connector-curvature="0"
           style="fill:#333333" />
      </g>
      <g
         id="g4261"
         style="stroke-width:4">
        <g
           id="g4241">
          <path
             id="path4229"
             d="m 740,1572.4 v 800 h 240 v -800 z"
             inkscape:connector-curvature="0"
             style="fill:#cccccc" />
          <path
             id="path4235"
             d="m 980,1572.4 50,45 v 715 l -50,40 z"
             inkscape:connector-curvature="0"
             style="fill:#999999" />
          <path
             id="path4237"
             d="m 1030,1732.4 h 200 v 595 h -200 z"
             inkscape:connector-curvature="0"
             style="fill:#cccccc" />
          <path
             id="path4239"
             d="m 1230,1732.4 140,80 v 440 l -140,70 z"
             inkscape:connector-curvature="0"
             style="fill:#999999" />
        </g>
        <path
           id="path4247"
           d="m 990,1757.4 25,20 v 485 l -25,15 z"
           inkscape:connector-curvature="0"
           style="fill:#1a1a1a" />
        <path
           id="path4249"
           d="m 1030,1772.4 v 70 h 180 v -70 z"
           inkscape:connector-curvature="0"
           style="fill:#4d4d4d" />
        <path
           id="path4251"
           d="m 1030,1882.4 v 70 h 180 v -70 z"
           inkscape:connector-curvature="0"
           style="fill:#4d4d4d" />
        <path
           id="path4253"
           d="m 1030,1992.4 v 70 h 180 v -70 z"
           inkscape:connector-curvature="0"
           style="fill:#4d4d4d" />
        <path
           id="path4255"
           d="m 1230,1772.4 120,70 v 55 l -120,-55 z"
           inkscape:connector-curvature="0"
           style="fill:#333333" />
        <path
           id="path4257"
           d="m 1230,1882.4 120,50 v 55 l -120,-35 z"
           inkscape:connector-curvature="0"
           style="fill:#333333" />
        <path
           id="path4259"
           d="m 1230,1992.4 120,30 v 50 l -120,-10 z"
           inkscape:connector-curvature="0"
           style="fill:#333333" />
      </g>
      <g
         id="g4301"
         transform="matrix(1.3492,0,0,1.3347,-1069.7,-700.34)"
         style="stroke-width:2.98070002">
        <g
           id="g4303">
          <path
             id="path4305"
             d="m 740,1572.4 v 800 h 240 v -800 z"
             inkscape:connector-curvature="0"
             style="fill:#cccccc" />
          <path
             id="path4307"
             d="m 980,1572.4 50,45 v 715 l -50,40 z"
             inkscape:connector-curvature="0"
             style="fill:#999999" />
          <path
             id="path4309"
             d="m 1030,1732.4 h 200 v 595 h -200 z"
             inkscape:connector-curvature="0"
             style="fill:#cccccc" />
          <path
             id="path4311"
             d="m 1230,1732.4 140,80 v 440 l -140,70 z"
             inkscape:connector-curvature="0"
             style="fill:#999999" />
        </g>
        <path
           id="path4313"
           d="m 990,1757.4 25,20 v 485 l -25,15 z"
           inkscape:connector-curvature="0"
           style="fill:#1a1a1a" />
        <path
           id="path4315"
           d="m 1030,1772.4 v 70 h 180 v -70 z"
           inkscape:connector-curvature="0"
           style="fill:#4d4d4d" />
        <path
           id="path4317"
           d="m 1030,1882.4 v 70 h 180 v -70 z"
           inkscape:connector-curvature="0"
           style="fill:#4d4d4d" />
        <path
           id="path4319"
           d="m 1030,1992.4 v 70 h 180 v -70 z"
           inkscape:connector-curvature="0"
           style="fill:#4d4d4d" />
        <path
           id="path4321"
           d="m 1230,1772.4 120,70 v 55 l -120,-55 z"
           inkscape:connector-curvature="0"
           style="fill:#333333" />
        <path
           id="path4323"
           d="m 1230,1882.4 120,50 v 55 l -120,-35 z"
           inkscape:connector-curvature="0"
           style="fill:#333333" />
        <path
           id="path4325"
           d="m 1230,1992.4 120,30 v 50 l -120,-10 z"
           inkscape:connector-curvature="0"
           style="fill:#333333" />
      </g>
    </g>
  </g>
  <g
     id="layer6"
     transform="translate(524.7 603.19)">
    <g
       id="g4452"
       stroke-width="1px"
       stroke="#000" />
  </g>
  <metadata
     id="metadata114">
    <rdf:RDF>
      <cc:Work>
        <dc:format>image/svg+xml</dc:format>
        <dc:type
           rdf:resource="http://purl.org/dc/dcmitype/StillImage" />
        <cc:license
           rdf:resource="http://creativecommons.org/licenses/publicdomain/" />
        <dc:publisher>
          <cc:Agent
             rdf:about="http://openclipart.org/">
            <dc:title>Openclipart</dc:title>
          </cc:Agent>
        </dc:publisher>
      </cc:Work>
      <cc:License
         rdf:about="http://creativecommons.org/licenses/publicdomain/">
        <cc:permits
           rdf:resource="http://creativecommons.org/ns#Reproduction" />
        <cc:permits
           rdf:resource="http://creativecommons.org/ns#Distribution" />
        <cc:permits
           rdf:resource="http://creativecommons.org/ns#DerivativeWorks" />
      </cc:License>
    </rdf:RDF>
  </metadata>
</svg>
