<?xml version="1.0" encoding="UTF-8" standalone="no"?>
<svg
   xmlns:dc="http://purl.org/dc/elements/1.1/"
   xmlns:cc="http://creativecommons.org/ns#"
   xmlns:rdf="http://www.w3.org/1999/02/22-rdf-syntax-ns#"
   xmlns:svg="http://www.w3.org/2000/svg"
   xmlns="http://www.w3.org/2000/svg"
   xmlns:xlink="http://www.w3.org/1999/xlink"
   xmlns:sodipodi="http://sodipodi.sourceforge.net/DTD/sodipodi-0.dtd"
   xmlns:inkscape="http://www.inkscape.org/namespaces/inkscape"
   width="200"
   height="140"
   viewBox="0 0 200 140"
   id="svg2"
   version="1.1"
   inkscape:version="0.48.4 r9939"
   sodipodi:docname="factory.svg">
  <sodipodi:namedview
     pagecolor="#ffffff"
     bordercolor="#666666"
     borderopacity="1"
     objecttolerance="10"
     gridtolerance="10"
     guidetolerance="10"
     inkscape:pageopacity="0"
     inkscape:pageshadow="2"
     inkscape:window-width="974"
     inkscape:window-height="779"
     id="namedview61"
     showgrid="false"
     fit-margin-top="10"
     fit-margin-left="10"
     fit-margin-right="10"
     fit-margin-bottom="10"
     inkscape:zoom="1.4539854"
     inkscape:cx="76.293444"
     inkscape:cy="-0.090137459"
     inkscape:window-x="1782"
     inkscape:window-y="67"
     inkscape:window-maximized="0"
     inkscape:current-layer="svg2" />
  <title
     id="title4">factory</title>
  <defs
     id="defs6">
    <linearGradient
       y2="-91.978149"
       x2="-2019.8937"
       y1="-91.978149"
       x1="-2113.209"
       id="linearGradient40237"
       xlink:href="#linearGradient40231"
       gradientTransform="scale(0.32884188,3.0409752)"
       gradientUnits="userSpaceOnUse" />
    <linearGradient
       id="linearGradient40231">
      <stop
         stop-color="#d3d7cf"
         id="stop40233"
         offset="0" />
      <stop
         stop-color="#eeeeec"
         offset="0.117916"
         id="stop40239" />
      <stop
         stop-color="#555753"
         id="stop40235"
         offset="1" />
    </linearGradient>
  </defs>
  <metadata
     id="metadata10869">image/svg+xml<rdf:RDF>
  <cc:Work
     rdf:about="">
    <dc:format>image/svg+xml</dc:format>
    <dc:type
       rdf:resource="http://purl.org/dc/dcmitype/StillImage" />
  </cc:Work>
</rdf:RDF>
</metadata>
  <g
     id="g14"
     transform="matrix(0.17645436,0,0,0.17645436,68.229939,49.525777)">
    <title
       id="title16">Layer 1</title>
    <g
       id="layer1">
      <path
         d="m 688.58813,346.8295 -339.01416,113.983 0,-227.96571 339.01416,-113.98297 0,227.96568 z"
         id="path39383"
         inkscape:connector-curvature="0"
         style="fill:#364e59" />
      <path
         id="path5471"
         d="M -328.45373,-71.107552 10.560458,-185.09052 123.56505,-71.107552 -215.44914,42.875431 -328.45373,-71.107552 z"
         inkscape:connector-curvature="0"
         style="fill:#555753" />
      <path
         d="M -215.44893,-33.113476 123.56505,-147.09645 236.56982,-33.113476 -102.44434,80.869491 -215.44893,-33.113476 z"
         id="path5473"
         inkscape:connector-curvature="0"
         style="fill:#555753" />
      <path
         id="path5475"
         d="M -102.44434,4.88084 236.56982,-109.10213 349.5744,4.88084 10.560457,118.86382 -102.44434,4.88084 z"
         inkscape:connector-curvature="0"
         style="fill:#555753" />
      <path
         d="M 10.560457,42.875172 349.5744,-71.107551 462.57898,42.875172 123.56505,156.85814 10.560458,42.875172 z"
         id="path5477"
         inkscape:connector-curvature="0"
         style="fill:#555753" />
      <path
         id="path5479"
         d="M 123.56505,80.869492 462.57898,-33.113475 575.58362,80.869492 236.56982,194.85246 123.56505,80.869492 z"
         inkscape:connector-curvature="0"
         style="fill:#555753" />
      <path
         d="M 236.56982,118.86382 575.58405,4.88084 688.58862,118.86382 349.5744,232.84679 236.56982,118.86382 z"
         id="path5481"
         inkscape:connector-curvature="0"
         style="fill:#555753" />
      <path
         id="path39379"
         d="m -328.38202,-71.045746 0,75.861929 -0.10318,228.001807 678.05872,227.9932 0.10339,-228.00183 -113.01222,-113.928 0,75.86194 -0.22836,0 -112.77668,-113.927993 0,75.999113 -113.012208,-113.932176 0,75.999116 -113.012222,-114.065177 0,75.999125 -113.01245,-113.932186 0,75.866123 -0.22813,0 -112.77666,-113.794991 0,0 z"
         inkscape:connector-curvature="0"
         style="fill:#9eabb0" />
      <path
         id="path5483"
         d="m 575.58362,460.8125 -113.00464,-37.99435 0,-151.97702 113.00464,37.99405 0,151.97732 z"
         inkscape:connector-curvature="0"
         style="fill:#babdb6" />
      <path
         d="m 575.58362,460.8125 113.00451,-37.99435 0,-151.97702 -113.00451,37.99405 0,151.97732 z"
         id="path5485"
         inkscape:connector-curvature="0"
         style="fill:#888a85" />
      <path
         id="path5966"
         d="m 349.2175,233.07873 336.95975,-113.66201 -1.84131,16.08424 -336.0391,110.44518 0.92066,-12.86741 z"
         inkscape:connector-curvature="0"
         style="fill:#151819" />
      <path
         id="path5487"
         d="M 462.57898,270.84085 575.58362,232.84653 688.58813,270.84085 575.58362,308.83517 462.57898,270.84085 z"
         inkscape:connector-curvature="0"
         style="fill:#eeeeec" />
      <g
         transform="matrix(7.36524,0,0,3.45162,5648.41,993.249)"
         id="g40252">
        <path
           d="m -692.92407,-349.16183 -2,138.91659 0.0625,0 c -10e-4,0.0254 0,0.048 0,0.0735 0,1.91815 3.45062,3.47967 7.6875,3.47967 4.23681,0 7.65625,-1.56152 7.65625,-3.47967 0,-0.15168 -0.0208,-0.2945 -0.0625,-0.44104 l -2,-138.54905 -13.34375,0 2,0 z"
           id="rect40229"
           style="fill:url(#linearGradient40237)"
           inkscape:connector-curvature="0" />
        <path
           id="path40241"
           d="m -681.42102,-349.59274 c 0,1.45022 -2.59674,2.62585 -5.79993,2.62585 -3.20331,0 -5.80005,-1.17563 -5.80005,-2.62585 0,-1.45023 2.59674,-2.6258 5.80005,-2.6258 3.20319,0 5.79993,1.17557 5.79993,2.6258 z"
           inkscape:connector-curvature="0"
           style="fill:#eeeeec" />
        <path
           d="m -683.22101,-348.77774 c 0,1.00009 -1.79083,1.81085 -3.99994,1.81085 -2.2091,0 -4,-0.81076 -4,-1.81085 0,-1.00021 1.79084,-1.81094 4,-1.81094 2.20911,0 3.99994,0.81073 3.99994,1.81094 z"
           id="path5489"
           inkscape:connector-curvature="0"
           style="fill:#888a85" />
      </g>
      <path
         id="path5529"
         d="M -215.44893,-33.113476 123.56505,-147.09645"
         inkscape:connector-curvature="0"
         style="fill:none;stroke:#000000;stroke-width:1px" />
      <path
         id="path5531"
         d="M -102.44434,4.88084 236.56982,-109.10213"
         inkscape:connector-curvature="0"
         style="fill:none;stroke:#000000;stroke-width:1px" />
      <path
         id="path5533"
         d="M 10.560457,42.875172 349.5744,-71.107795"
         inkscape:connector-curvature="0"
         style="fill:none;stroke:#000000;stroke-width:1px" />
      <path
         id="path5535"
         d="M 129.18089,81.350662 123.56505,80.869491 462.57898,-33.113476"
         inkscape:connector-curvature="0"
         style="fill:none;stroke:#000000;stroke-width:1px" />
      <path
         id="path5537"
         d="M 241.50082,116.73601 521.50092,25.718636"
         inkscape:connector-curvature="0"
         style="fill:none;stroke:#000000;stroke-width:1px" />
      <path
         id="path5539"
         d="m -325.62277,-65.552132 110.17384,108.427303 0,-75.988647 113.00459,113.982967 0,-75.988652 113.004797,113.982981 0,-75.988649 113.004593,113.982709 0,-75.988389 113.00477,113.982709 0,-75.98838 113.00458,113.98271"
         inkscape:connector-curvature="0"
         style="fill:none;stroke:#000000;stroke-width:1px;stroke-linejoin:bevel" />
      <g
         stroke-miterlimit="4"
         transform="matrix(1.17844,0,0,0.668822,2981.35,2561.1)"
         id="g5684"
         style="fill:#0084c8;stroke-width:1.25;stroke-miterlimit:4">
        <path
           d="m -2607.1091,-3641.9573 0,53.1497 30.6858,17.7165 0,-53.1496 -30.6858,-17.7166 z"
           id="path5686"
           inkscape:connector-curvature="0"
           style="fill:#0084c8" />
        <path
           stroke-miterlimit="4"
           id="path5688"
           d="m -2576.4233,-3624.2407 0,53.1496"
           inkscape:connector-curvature="0"
           style="fill:#0084c8;stroke:#ffffff;stroke-width:1.582739;stroke-miterlimit:4" />
      </g>
      <g
         stroke-miterlimit="4"
         transform="matrix(1.17844,0,0,0.668822,2945.18,2549.25)"
         id="g5690"
         style="fill:#0084c8;stroke-width:1.25;stroke-miterlimit:4">
        <path
           d="m -2607.1091,-3641.9573 0,53.1497 30.6858,17.7165 0,-53.1496 -30.6858,-17.7166 z"
           id="path5692"
           inkscape:connector-curvature="0"
           style="fill:#0084c8" />
        <path
           stroke-miterlimit="4"
           id="path5694"
           d="m -2576.4233,-3624.2407 0,53.1496"
           inkscape:connector-curvature="0"
           style="fill:#0084c8;stroke:#ffffff;stroke-width:1.582739;stroke-miterlimit:4" />
      </g>
      <g
         transform="matrix(1.17844,0,0,0.668822,3198.32,2633.23)"
         id="g5794"
         style="fill:#0084c8">
        <path
           d="m -2607.1091,-3641.9573 0,53.1497 30.6858,17.7165 0,-53.1496 -30.6858,-17.7166 z"
           id="path5796"
           inkscape:connector-curvature="0"
           style="fill:#0084c8" />
        <path
           stroke-miterlimit="4"
           id="path5798"
           d="m -2576.4233,-3624.2407 0,53.1496"
           inkscape:connector-curvature="0"
           style="fill:#0084c8;stroke:#ffffff;stroke-width:1.582739;stroke-miterlimit:4" />
      </g>
      <g
         stroke-miterlimit="4"
         id="g5800"
         transform="matrix(1.17844,0,0,0.668822,3162.15,2621.38)"
         style="fill:#0084c8;stroke-width:1.25;stroke-miterlimit:4">
        <path
           id="path5802"
           d="m -2607.1091,-3641.9573 0,53.1497 30.6858,17.7165 0,-53.1496 -30.6858,-17.7166 z"
           inkscape:connector-curvature="0"
           style="fill:#0084c8" />
        <path
           stroke-miterlimit="4"
           d="m -2576.4233,-3624.2407 0,53.1496"
           id="path5804"
           inkscape:connector-curvature="0"
           style="fill:#0084c8;stroke:#ffffff;stroke-width:1.582739;stroke-miterlimit:4" />
      </g>
      <path
         d="m -102.44434,310.76611 0,-124.21913 226.00939,74.05745 0,124.21942 -226.00939,-74.05774 z"
         id="path5806"
         inkscape:connector-curvature="0"
         style="fill:#555753" />
      <path
         stroke-miterlimit="4"
         d="M 12.000106,224.91174 10.560457,347.79523"
         id="path5808"
         inkscape:connector-curvature="0"
         style="fill:none;stroke:#000000;stroke-width:0.25;stroke-miterlimit:4" />
      <path
         stroke-miterlimit="4"
         id="path5810"
         d="M 12.000106,224.91174 10.560457,347.79523"
         inkscape:connector-curvature="0"
         style="fill:none;stroke:#000000;stroke-width:0.25;stroke-miterlimit:4" />
      <path
         id="path5822"
         d="m 161.45238,347.75232 0,45.59323 45.20201,15.19757 0,-45.59299 -45.20201,-15.19781 z"
         inkscape:connector-curvature="0"
         style="fill:#2e3436" />
      <path
         d="m 216.71822,353.60431 0,9.11862 -29.33062,8.63611 2.20951,-8.63611 27.12111,-9.11862 z"
         id="path5830"
         inkscape:connector-curvature="0"
         style="fill:#555753" />
      <path
         d="m 216.71822,353.60431 -29.33062,17.48248 -53.13748,-18.23721 28.22586,-17.48245 54.24224,18.23718 z"
         id="path5834"
         inkscape:connector-curvature="0"
         style="fill:#babdb6" />
      <path
         stroke-miterlimit="4"
         id="path5491"
         d="m 586.86163,-222.5 c -23.59271,0 -42.58038,4.10875 -42.58038,9.11438 0,0.62569 0.12146,1.15241 0.69006,1.74248 l -7.13501,229.066501 -18.87347,6.433701 -56.39011,-56.965044 -56.39013,19.03303 -56.62033,-57.099073 -56.62027,19.033012 -56.39014,-56.965057 -56.39011,19.033043 -56.62032,-57.099073 -56.620271,19.03302 -56.390147,-56.96506 -339.031242,113.930116 0.22991,0.268066 -0.22991,303.724218 678.0625,227.99424 113.01046,-38.06607 113.01041,38.06607 113.01044,-38.06607 0,-75.99808 0,-227.86018 -51.55671,-52.005737 -8.51605,-278.391523 c 0.66443,-0.63512 1.15082,-1.19899 1.15082,-1.87653 0,-5.00563 -19.21777,-9.11438 -42.81042,-9.11438 l 4.2e-4,0 z"
         inkscape:connector-curvature="0"
         style="fill:none;stroke:#2e3436;stroke-width:3;stroke-linejoin:bevel;stroke-miterlimit:4" />
      <path
         d="m -328.38473,-71.0476 0,75.864041 -0.10315,13.544909 678.06274,227.99422 0.10297,-13.5449 -113.01043,-113.93009 0,75.86403 -0.22972,0 -112.78025,-113.930089 0,75.998069 -113.010442,-113.930087 0,75.998077 -113.010428,-114.064139 0,75.99808 -113.01042,-113.930092 0,75.86404 -0.22993,0 -112.78028,-113.79607 -6.7e-4,0 z"
         id="path5949"
         inkscape:connector-curvature="0"
         style="fill:#2e3436" />
    </g>
  </g>
</svg>
