<?xml version="1.0" encoding="utf-8"?>
<!-- Generator: Adobe Illustrator 15.0.2, SVG Export Plug-In . SVG Version: 6.00 Build 0)  -->
<!DOCTYPE svg PUBLIC "-//W3C//DTD SVG 1.1//EN" "http://www.w3.org/Graphics/SVG/1.1/DTD/svg11.dtd">
<svg version="1.1" id="Layer_1" xmlns="http://www.w3.org/2000/svg" xmlns:xlink="http://www.w3.org/1999/xlink" x="0px" y="0px"
	 width="330px" height="330px" viewBox="0.25 0.25 330 330" enable-background="new 0.25 0.25 330 330" xml:space="preserve">
<title>cloud</title>
<g>
	<title>Layer 1</title>
	<g id="layer1" opacity="0.25">
		<g>
			<path fill="#7C7C7C" d="M227.324,11.942c-20.806-5.744-41.86,0.83-56.396,15.11c-7.595-9.405-17.877-16.665-30.211-20.069
				C108.975-1.78,76.275,17.673,67.77,50.379c-0.625,2.403-0.79,4.82-1.125,7.224C38.06,54.541,10.708,72.98,3.034,102.489
				c-7.604,29.239,6.745,59.136,32.534,71.429c-1.402,3.133-2.709,6.359-3.604,9.803c-8.505,32.706,10.393,66.327,42.135,75.091
				c15.547,4.293,31.259,1.771,44.302-5.711c7.188,15.845,20.59,28.599,38.258,33.476c25.207,6.959,50.787-4.063,64.597-25.195
				c5.594,4.08,11.812,7.455,18.815,9.39c31.742,8.764,64.372-10.709,72.878-43.416c4.275-16.446,1.63-33.09-6.09-46.73
				c7.641-7.507,13.621-17.017,16.551-28.286c8.506-32.707-10.393-66.328-42.134-75.091c-3.342-0.922-6.688-1.442-10.021-1.757
				C273.23,46.769,255.314,19.67,227.324,11.942z"/>
		</g>
	</g>
	<g enable-background="new    ">
		<path d="M131.27,200.229c-4.955,2.57-15.351,5.148-28.471,5.172c-30.401,0.055-53.155-19.104-53.219-54.625
			c-0.061-33.921,22.778-56.683,56.219-56.743c13.28-0.023,21.925,2.841,25.609,4.754l-3.5,11.366
			c-5.125-2.55-12.648-4.456-21.608-4.44c-25.281,0.046-42.052,16.236-42.001,44.557c0.048,26.561,15.278,43.334,41.359,43.287
			c8.64-0.016,17.277-1.791,22.873-4.521L131.27,200.229z"/>
		<path d="M237.576,148.356c0.066,36.961-22.458,56.842-49.979,56.892c-28.641,0.051-48.521-22.153-48.58-54.794
			c-0.062-34.241,21.019-56.68,49.819-56.731C218.437,93.669,237.518,116.195,237.576,148.356z M153.737,150.107
			c0.042,23.201,12.559,43.818,34.639,43.778c22.081-0.039,34.525-20.382,34.48-44.862c-0.039-21.601-11.279-43.981-34.48-43.939
			C165.177,105.126,153.695,126.587,153.737,150.107z"/>
	</g>
	<g enable-background="new    ">
		<path d="M248.253,228.473l-0.01-5.4l6.888-6.712c16.573-15.831,24.158-24.245,24.14-34.046
			c-0.012-6.601-3.123-12.695-12.824-12.679c-5.9,0.011-10.795,3.02-13.791,5.525l-2.812-6.195c4.394-3.708,10.889-6.62,18.29-6.634
			c14.001-0.024,19.919,9.565,19.936,18.866c0.021,12.001-8.662,21.717-22.339,34.942l-5.092,4.81l0,0.199l29.102-0.052l0.013,7.301
			L248.253,228.473z"/>
	</g>
</g>
</svg>
