<?xml version="1.0" encoding="utf-8"?>
<!-- Generator: Adobe Illustrator 15.0.2, SVG Export Plug-In . SVG Version: 6.00 Build 0)  -->
<!DOCTYPE svg PUBLIC "-//W3C//DTD SVG 1.1//EN" "http://www.w3.org/Graphics/SVG/1.1/DTD/svg11.dtd">
<svg version="1.1"
	 id="svg2" sodipodi:docname="krowa.svg" inkscape:version="0.47 r22583" xmlns:dc="http://purl.org/dc/elements/1.1/" xmlns:cc="http://creativecommons.org/ns#" xmlns:rdf="http://www.w3.org/1999/02/22-rdf-syntax-ns#" xmlns:svg="http://www.w3.org/2000/svg" xmlns:sodipodi="http://sodipodi.sourceforge.net/DTD/sodipodi-0.dtd" xmlns:inkscape="http://www.inkscape.org/namespaces/inkscape"
	 xmlns="http://www.w3.org/2000/svg" xmlns:xlink="http://www.w3.org/1999/xlink" x="0px" y="0px" width="438.336px"
	 height="319.777px" viewBox="0 0 438.336 319.777" enable-background="new 0 0 438.336 319.777" xml:space="preserve">
<filter  id="filter5121" height="1.262669" y="-0.13133448" width="1.3873243" x="-0.19366215" inkscape:collect="always" color-interpolation-filters="sRGB">
	<feGaussianBlur  id="feGaussianBlur5123" inkscape:collect="always" stdDeviation="0.38248253"></feGaussianBlur>
</filter>
<defs>
	
	
		<inkscape:perspective  id="perspective10" inkscape:persp3d-origin="372.04724 : 350.78739 : 1" inkscape:vp_z="744.09448 : 526.18109 : 1" inkscape:vp_y="0 : 1000 : 0" inkscape:vp_x="0 : 526.18109 : 1" sodipodi:type="inkscape:persp3d">
		</inkscape:perspective>
	
		<inkscape:perspective  id="perspective3076" inkscape:persp3d-origin="0.5 : 0.33333333 : 1" inkscape:vp_z="1 : 0.5 : 1" inkscape:vp_y="0 : 1000 : 0" inkscape:vp_x="0 : 0.5 : 1" sodipodi:type="inkscape:persp3d">
		</inkscape:perspective>
</defs>
<sodipodi:namedview  id="base" inkscape:window-width="1280" inkscape:current-layer="layer1" inkscape:document-units="px" inkscape:pageshadow="2" inkscape:pageopacity="0.0" showguides="true" showgrid="false" inkscape:cy="158.93504" inkscape:cx="359.84669" inkscape:zoom="1.4142136" borderopacity="1.0" bordercolor="#666666" pagecolor="#ffffff" inkscape:guide-bbox="true" inkscape:snap-nodes="false" inkscape:snap-page="true" inkscape:window-y="0" inkscape:window-x="0" inkscape:window-height="752" inkscape:window-maximized="1">
	</sodipodi:namedview>
<g id="layer1" transform="translate(-14.144884,37.996934)" inkscape:label="Layer 1" inkscape:groupmode="layer">
	
		<g id="g3168" transform="matrix(1.5926285,0,0,1.4882157,338.17463,-282.0303)" inkscape:export-xdpi="90" inkscape:export-ydpi="90" inkscape:export-filename="/Users/grzegorz/Sites/img/krowa.png">
		
			<g id="g3264" transform="matrix(1.148799,0,0,1.148799,-551.81693,96.44667)" inkscape:export-xdpi="90" inkscape:export-ydpi="90" inkscape:export-filename="/Users/grzegorz/Documents/workspace/Male_Zoo/res/drawable/krowa.png">
			<g id="g4149" transform="matrix(0,-1,-1,0,445.82633,447.84507)">
				<path id="path4110" fill="#FFFFFF" d="M348.233,99.15c-0.937,0.052-2.373,0.508-4.156,1.344
					c-1.783,0.836-3.913,2.054-6.282,3.563c-2.368,1.508-4.963,3.306-7.656,5.375c-2.693,2.069-5.493,4.418-8.25,6.937
					c-1.745,1.594-3.352,3.258-5.188,4.719c-0.918,0.73-1.892,1.408-2.969,2c-1.077,0.592-2.267,1.084-3.594,1.469
					c-0.546,0.124-1.017,0.129-1.531-0.062c-0.515-0.191-1.076-0.567-1.782-1.156c-1.333-1.112-3.593-2.553-5.906-3.844
					c-2.313-1.291-4.686-2.451-6.219-2.938c-1.807-0.574-3.617-0.874-5.125-0.906c-0.754-0.016-1.407,0.034-1.969,0.156
					s-1.022,0.332-1.313,0.594c-0.343,0.309-0.747,0.503-1.312,0.594c-0.565,0.091-1.286,0.066-2.251-0.031
					c-2.063-0.209-3.481-0.19-4.375,0.125c-0.447,0.157-0.763,0.412-0.969,0.719c-0.206,0.307-0.312,0.688-0.312,1.156
					c0,0.741-0.006,1.135-0.312,1.344c-0.306,0.208-0.912,0.219-2,0.219c-1.216,0-1.986,0.119-2.469,0.469
					c-0.483,0.35-0.667,0.926-0.719,1.844c-0.027,0.48-0.115,0.772-0.438,0.906c-0.323,0.135-0.865,0.105-1.812,0.031
					c-0.794-0.062-1.373-0.043-1.781,0.062c-0.409,0.106-0.653,0.325-0.781,0.625c-0.127,0.299-0.303,0.496-0.5,0.625
					c-0.197,0.129-0.423,0.166-0.688,0.125c-0.529-0.082-1.177-0.491-1.969-1.25c-0.758-0.727-1.626-1.174-2.344-1.281
					c-0.359-0.054-0.669-0.019-0.937,0.094c-0.268,0.113-0.471,0.306-0.593,0.594c-0.212,0.498,0.083,1.963,0.625,3.563
					c0.542,1.599,1.31,3.341,2.063,4.437c0.929,1.354,2.754,3.062,4.812,4.656c2.057,1.594,4.359,3.09,6.312,3.969
					c1.276,0.574,2.598,1.053,3.937,1.438c1.339,0.385,2.703,0.65,4.094,0.844c1.391,0.194,2.787,0.311,4.219,0.313
					c1.432,0.002,2.882-0.089,4.344-0.281c1.651-0.217,3.139-0.49,4.5-0.844c1.361-0.354,2.604-0.789,3.812-1.344
					c1.209-0.555,2.366-1.243,3.563-2.063c1.196-0.819,2.429-1.79,3.75-2.938c1.836-1.594,3.111-2.596,4.281-3.312
					c1.17-0.716,2.248-1.14,3.656-1.531c2.143-0.595,4.506-1.65,6.906-3.031c2.401-1.382,4.837-3.094,7.094-5.031
					c5.053-4.195,9.085-7.753,12.25-10.719c3.164-2.966,5.463-5.339,7-7.188c1.537-1.849,2.299-3.157,2.469-4
					c0.085-0.421,0.021-0.716-0.187-0.906C349.025,99.209,348.701,99.123,348.233,99.15L348.233,99.15z"/>
				<path id="path4118" sodipodi:nodetypes="cscsssccscccssccscccssccscccssccscccsssssssccccsssssscc" d="M348.219,99.163
					c-3.748,0.209-15.285,7.112-26.312,17.187c-3.49,3.189-6.442,6.681-11.75,8.219c-1.093,0.247-1.901-0.041-3.312-1.219
					c-2.665-2.224-9.06-5.808-12.125-6.781c-3.614-1.148-7.245-1.234-8.406-0.188c-0.31,0.279-0.672,0.458-1.156,0.563
					c0.351,0.238,0.718,0.445,1.062,0.656c1.85,0.749,4.567,1.454,6.969,1.406c1.311-0.026,0.914-2.457,2.094-1.656
					c2.224,3.478-2.766,4.109-9.063,0.25c-0.507-0.205-0.968-0.427-1.313-0.625c-0.551,0.082-1.238,0.093-2.156,0
					c-4.126-0.419-5.656,0.096-5.656,1.969c0,0.389-0.009,0.683-0.062,0.906c1.704,0.85,3.515,1.594,5.374,2.187
					c4.554,1.28,10.685,2.338,14.313,1.125c1.851-0.619,1.377-2.441,3.125-1.625c3.033,3.242-7.595,3.643-17.438,0.5
					c-2.613-0.734-4.7-1.519-5.437-2c-0.211,0.448-0.764,0.5-2.188,0.5c-2.432,0-3.084,0.477-3.187,2.312
					c-0.022,0.393-0.077,0.63-0.281,0.781c0.76,0.526,1.514,1.016,2.312,1.469c3.606,1.603,10.531,3.729,15.125,2.844
					c1.916-0.369,1.687-2.258,3.313-1.219c2.857,4.004-8.831,3.823-18.438-1.625c-1.369-0.609-2.332-1.145-2.406-1.406
					c-0.316,0.163-0.894,0.172-1.907,0.094c-1.588-0.123-2.275,0.055-2.531,0.656c-0.133,0.311-0.323,0.529-0.531,0.656
					c1.396,1.165,2.922,2.246,4.5,3.219c4.088,2.33,9.645,4.813,13.406,4.531c1.946-0.146,1.943-2.033,3.438-0.812
					c2.131,3.863-8.108,1.667-16.844-3.719c-2.161-1.232-3.93-2.41-4.719-3.125c-0.583,0.16-1.407-0.231-2.437-1.219
					c-1.517-1.454-3.384-1.746-3.875-0.594c-0.425,0.996,1.213,5.807,2.718,8c1.859,2.708,7.218,6.836,11.125,8.594
					c5.103,2.295,10.745,3.08,16.593,2.313c6.605-0.867,10.34-2.566,15.625-7.156c3.672-3.189,5.089-4.062,7.906-4.844
					c4.287-1.189,9.488-4.187,14-8.062C347.901,105.446,351.967,98.954,348.219,99.163L348.219,99.163z M346.094,101.851
					c0.102-0.009,0.156,0.02,0.156,0.094c0,1.537-16.648,15.15-21.968,19.656c-4.359,3.692-6.559,4.894-11.594,6.281
					c-3.826,1.054-16.394,3.635-16.371,2.597c0.016-0.722,12.074-2.919,14.527-3.879c5.497-2.151,6.448-2.803,15.406-10.531
					C332.151,110.979,344.564,101.982,346.094,101.851L346.094,101.851z"/>
			</g>
			<g id="g4079" transform="translate(187.88871,-110.22074)">
				
					<path id="path4046" sodipodi:nodetypes="cccssssssssssssssscccsscccssssscccscccssssscccccccccsccssccssssccccccssccccccssscccccsssccccsccccscc" stroke="#000000" d="
					M188.881,181.794c-9.372,1.654-17.081,6.852-24.219,12.843c-20.333,17.906-13.23,45.231-13.094,69.344
					c-0.071,8.456-0.62,16.61-1.656,24.437c-0.632,4.775-3.759,18.185-6.219,26.719c-1.597,5.54-2.906,10.705-2.906,11.5
					c0,4.506,13.838,17.46,14.969,7.062c0.767-7.048,1.508-3.234,2.707,0.049c2.72,7.442,14.152-1.663,14.011-3.893
					c-0.092-1.45-3.248-8.074,2.356-1.281c2.684,3.254,7.96-1.47,11.019-3.532c1.762-1.188,1.909-1.53,1.906-4.312
					c-0.003-2.874-0.67-6.798-3.531-20.969c-0.918-4.545-1.371-9.362-1.594-17.032c-0.346-11.908-0.484-11.514,3.625-9.969
					c1.089,0.41,3.422,1.039,5.219,1.375c3.067,0.573,3.311,0.734,3.875,2.562c1.513,4.906,0.017,21.416-3.219,35.469
					c-1.9,8.25-3.589,13.744-7.688,25.031l-3.219,8.875l1.25,2.344c2.812,4.07,12.434,10.07,13.593,5.422
					c2.518-10.102,1.928-9.621,3.479-0.548c0.888,5.197,11.339-0.821,15.147-3.28l1.438-1.375l-0.688-7.281
					c-0.381-3.992-0.965-9.144-1.281-11.469c-0.597-4.386-2.668-26.45-3.281-35c-0.193-2.691-0.137-7.891,0.094-11.531
					c0.365-5.769,0.546-6.681,1.531-7.156c1.724-0.831,11.561-3.251,11.938,0.031c0.505,4.405,0.748,3.303,2.094,8.781l1.25,13.937
					l0.625,4.906c0.749,6.031-0.139,16.292-2.188,25.5c-0.776,3.487-1.852,8.652-2.406,11.5l-1,5.188l1.344,1.313
					c1.982,1.899,12.197,7.908,12.848,2.818c1.548-12.093,1.373-6.535,2.579-0.173c0.914,4.82,9.965-1.662,11.98-3.615
					c0.671-0.651,1.386-2.255,1.594-3.563c0.612-3.858-0.735-19.275-2.344-26.688c-0.82-3.777-1.66-7.729-1.844-8.781l-0.344-1.906
					l-8.25-36.125c11.565-6.294,34.175-18.457,32.593-36C265.988,193.752,225.03,179.058,188.881,181.794L188.881,181.794z
					 M226.787,188.544c24.678,10.21,40.473,26.734,41.688,43.687c-0.003,15.403-15.579,28.657-30.406,34.344
					c-7.829,1.835-12.166,1.657-25.687,6.375c-2.499,0.324-3.331,0.673-3.875,1.656c-1.873,3.382-1.543,21.669,0.75,40.375
					c0.582,8.127,1.829,15.401,0.379,22c-5.541,1.384-18.084,1.07-20.035-0.687c-0.855-0.77-0.8-1.218,0.437-4.969
					c0.744-2.255,1.975-6.469,2.75-9.375c4.289-12.531,5.02-25.062,6.406-37.594c-0.037-4.489-0.319-7.015-1.062-8.968
					c-1.133-2.977-1.181-3.009-8.344-4.907c-8.019-2.125-18.428-8.499-24.156-14.812c-1.849-2.037-3.59-3.719-3.844-3.719
					c-0.818,0-0.481,1.082,1.031,3.406l1.469,2.281l-0.5,12.344c-0.68,16.456,0.155,34.086,1.969,41.312l0.781,3.063l-1.875,1.031
					c-2.71,1.484-7.267,2.239-11.969,2c-6.177-0.314-6.144-0.274-4.156-8.094c0.923-3.632,2.28-9.75,3-13.593l1.281-7l1.844-30.032
					c-0.221-6.461-0.636-17.086-0.938-23.625C151.735,190.383,190.041,175.221,226.787,188.544L226.787,188.544z M168.131,263.044
					c0.431,0,1.061,0.44,1.375,0.968c0.612,1.029-0.416,3.527-0.563,21.188c-0.326,39.336-1.94,25.763-2.375-2.875
					C166.354,268.22,166.913,263.044,168.131,263.044z M237.859,270.341l0.99,3.641l6.844,35.281
					c3.38,16.687,5.653,17.29,3.562,22.407c-0.149,1.154-0.707,1.543-3.406,2.375c-4.556,1.403-15.293,1.83-16.375,0.656
					c-0.651-0.706-0.528-2.45,0.75-10.781c0.84-5.478,1.531-11.092,1.531-12.469c0.801-8.513-2.235-29.564-4.321-38.124
					C230.346,272.11,234.504,270.204,237.859,270.341L237.859,270.341z M180.006,311.95c0,0-7.472,0.802-8.844,0.438
					c-1.253-0.332-1.225,0.783-0.094-12.875c1.5-9.269-0.993-25.886,2.562-33.438c0.028-0.028,0.066-0.026,0.125-0.031l0,0
					c0.885-0.078,5.057,2.26,5.344,3.062c0.109,0.304,0.055,2.216-0.125,4.25C180.066,286.215,183.648,311.064,180.006,311.95z"/>
				<path id="path4069" fill="#FFFFFF" d="M237.532,270.783l1,3.625l6.844,35.281c0.845,4.171,1.594,7.329,2.25,9.812
					c0.656,2.483,1.198,4.281,1.563,5.719c0.365,1.438,0.559,2.526,0.531,3.563c-0.028,1.037-0.258,2.033-0.781,3.312
					c-0.075,0.577-0.255,0.967-0.75,1.313c-0.495,0.346-1.307,0.647-2.656,1.062c-1.139,0.351-2.679,0.656-4.344,0.875
					c-1.664,0.219-3.462,0.339-5.156,0.406c-1.695,0.068-3.27,0.072-4.5-0.031c-1.23-0.103-2.104-0.3-2.375-0.594
					c-0.325-0.353-0.484-0.965-0.375-2.531c0.109-1.566,0.486-4.085,1.125-8.25c0.841-5.478,1.531-11.092,1.531-12.469
					c0.2-2.128,0.142-5.04-0.062-8.344c-0.205-3.304-0.571-6.989-1.031-10.687c-0.92-7.397-2.207-14.814-3.25-19.094
					c1.456-0.608,3.24-1.389,5.062-2c0.911-0.306,1.843-0.572,2.75-0.75C235.814,270.823,236.692,270.749,237.532,270.783
					L237.532,270.783z"/>
				<path id="path4073" sodipodi:nodetypes="csccc" stroke="#000000" stroke-width="0.4185" d="M246.306,320.488
					c-0.038-0.264-0.097-0.543-0.171-0.823c-2.36-8.968-1.343-2.601-1.932-8.702c-16.694-8.883-10.921,8.467-10.81,13.4
					C232.193,329.22,247.495,328.68,246.306,320.488L246.306,320.488z"/>
				<path id="path4067" fill="#FFFFFF" d="M173.49,266.202c-0.059,0.01-0.097,0-0.125,0.031c-0.444,0.944-0.819,2.024-1.094,3.219
					c-0.275,1.195-0.48,2.493-0.625,3.875c-0.29,2.764-0.339,5.84-0.344,8.968c-0.004,3.128,0.064,6.333,0.031,9.312
					c-0.033,2.979-0.156,5.746-0.531,8.063c-0.566,6.829-0.883,9.967-0.875,11.438c0.004,0.735,0.094,1.063,0.25,1.219
					c0.156,0.155,0.406,0.135,0.719,0.218c0.686,0.182,2.867,0.061,4.906-0.094s3.938-0.344,3.938-0.344
					c0.456-0.111,0.783-0.585,1.031-1.375c0.248-0.789,0.389-1.891,0.469-3.219c0.159-2.655,0.038-6.254-0.25-10.219
					c-0.577-7.93-1.735-17.352-2.281-23.781c0.18-2.034,0.234-3.946,0.125-4.25c-0.143-0.402-1.279-1.2-2.469-1.875
					C175.175,266.714,173.932,266.162,173.49,266.202L173.49,266.202z"/>
				<path id="path4059" fill="#FFFFFF" d="M199.639,183.919c-2.182,0.062-4.335,0.214-6.438,0.5
					c-2.102,0.287-4.154,0.708-6.156,1.219c-2.002,0.512-3.931,1.138-5.813,1.875c-1.881,0.737-3.697,1.567-5.438,2.531
					c-1.74,0.964-3.421,2.06-5,3.25c-1.579,1.19-3.072,2.489-4.469,3.906c-1.397,1.417-2.681,2.949-3.875,4.594
					c-1.194,1.645-2.279,3.408-3.25,5.281c-0.971,1.873-1.835,3.835-2.563,5.937c-0.728,2.103-1.348,4.325-1.812,6.656
					c-0.465,2.332-0.789,4.783-0.969,7.344c-0.18,2.561-0.187,5.24-0.063,8.031c0.301,6.539,0.717,17.163,0.938,23.625
					l-1.844,30.032l-1.281,7c-0.72,3.843-2.077,9.962-3,13.593c-0.497,1.955-0.876,3.431-1.063,4.531
					c-0.186,1.101-0.195,1.84,0.063,2.344c0.258,0.503,0.759,0.744,1.594,0.906c0.835,0.162,2.018,0.234,3.563,0.312
					c2.351,0.119,4.653,0.001,6.719-0.344c2.066-0.344,3.895-0.914,5.25-1.656l1.875-1.031l-0.781-3.062
					c-0.453-1.807-0.865-4.262-1.188-7.188c-0.323-2.926-0.575-6.316-0.75-9.999c-0.175-3.684-0.27-7.671-0.281-11.75
					c-0.011-4.08,0.08-8.261,0.25-12.375l0.5-12.344l-1.469-2.281c-0.756-1.162-1.235-2.001-1.406-2.562
					c-0.086-0.28-0.091-0.487-0.031-0.625c0.06-0.138,0.202-0.219,0.406-0.219c0.254,0,1.995,1.681,3.844,3.719
					c1.432,1.578,3.156,3.169,5.062,4.688c1.907,1.518,3.996,2.957,6.156,4.281c2.16,1.324,4.37,2.536,6.563,3.531
					s4.37,1.781,6.375,2.312c3.581,0.949,5.357,1.446,6.406,2.063c0.524,0.308,0.88,0.643,1.156,1.094
					c0.276,0.451,0.498,1.006,0.781,1.75c0.371,0.977,0.613,2.094,0.781,3.531s0.263,3.193,0.281,5.437
					c-0.693,6.266-1.233,12.516-2.125,18.781c-0.446,3.133-0.994,6.273-1.687,9.407c-0.693,3.133-1.521,6.274-2.594,9.406
					c-0.775,2.906-2.006,7.12-2.75,9.375c-0.619,1.876-0.97,2.917-1.031,3.594c-0.062,0.677,0.166,0.99,0.594,1.375
					c0.488,0.439,1.619,0.776,3.156,1.031c1.537,0.255,3.464,0.438,5.5,0.5c2.036,0.062,4.171,0.013,6.156-0.125
					c1.986-0.138,3.833-0.373,5.219-0.719c0.362-1.649,0.547-3.356,0.625-5.093c0.078-1.737,0.039-3.514-0.062-5.344
					c-0.203-3.66-0.647-7.499-0.938-11.563c-0.573-4.676-1.051-9.321-1.375-13.719c-0.324-4.398-0.495-8.553-0.562-12.219
					c-0.068-3.667-0.009-6.862,0.187-9.344c0.197-2.482,0.532-4.249,1-5.094c0.272-0.491,0.599-0.812,1.188-1.062
					c0.588-0.251,1.438-0.432,2.687-0.594c3.38-1.179,6.163-2.043,8.594-2.718c2.43-0.676,4.498-1.176,6.375-1.563
					c3.753-0.775,6.804-1.176,10.719-2.093c1.854-0.711,3.718-1.532,5.563-2.469c1.845-0.937,3.665-1.984,5.438-3.125
					c1.772-1.142,3.488-2.394,5.125-3.719c1.637-1.325,3.188-2.731,4.625-4.218s2.764-3.059,3.938-4.688
					c1.174-1.628,2.185-3.314,3.031-5.063c0.847-1.748,1.514-3.559,1.969-5.406c0.456-1.848,0.718-3.731,0.719-5.657
					c-0.152-2.119-0.56-4.218-1.157-6.312c-0.596-2.094-1.388-4.172-2.406-6.219c-1.019-2.047-2.238-4.087-3.656-6.062
					c-1.419-1.976-3.047-3.9-4.844-5.782c-1.797-1.882-3.785-3.704-5.938-5.469c-2.152-1.764-4.453-3.469-6.938-5.093
					c-2.485-1.625-5.141-3.163-7.937-4.625c-2.796-1.462-5.728-2.849-8.813-4.125c-2.297-0.833-4.608-1.546-6.906-2.156
					c-2.299-0.61-4.595-1.113-6.875-1.5s-4.54-0.649-6.781-0.812S201.821,183.858,199.639,183.919L199.639,183.919z"/>
				<path id="path4019" sodipodi:nodetypes="csssccccssssccsccsccssssssc" stroke="#000000" d="M159.295,208.929
					c-1.27,3.394-1.437,4.623-1.188,8.469c0.377,5.825,2.176,9.523,6.719,13.812c6.795,6.417,11.45,6.876,16.719,1.625
					c2.992-2.981,3.687-5.266,3.688-12c-0.2-7.765-1.82-16.061-9.188-20.125C163.816,196.802,161.809,201.186,159.295,208.929z
					 M231.232,194.96c-0.715,0.035-1.477,0.11-2.25,0.219c-24.738,3.458-7.472,2.408-23.844,2.594
					c-16.372,0.185-1.546,32.735,5,34.031c6.546,1.296,12.822-12.148,25.5-8.625C247.921,226.591,253.394,193.864,231.232,194.96z
					 M230.201,229.96c-4.997-0.155-10.739,2.159-16.875,8.281c-1.844,1.839-3.492,3.479-4.969,4.969
					c-11.999,10.655,7.753,31.87,23.25,19.593c1.86-0.399,3.971-0.637,6.406-0.625C256.273,262.268,248.049,230.513,230.201,229.96
					L230.201,229.96z M185.889,241.491c-2.103,0.05-4.26,0.901-6.156,2.469c-1.628,1.346-4.188,6.197-4.188,7.937
					c0,2.07,2.355,4.568,5.594,5.937c0.968,0.41,3.009,0.739,4.531,0.75c5.374,0.041,8.677-4.519,7.813-10.749
					c-0.483-3.479-2.097-5.3-5.5-6.125C187.305,241.545,186.59,241.474,185.889,241.491L185.889,241.491z"/>
				<path id="path4077" sodipodi:nodetypes="cssssssc" stroke="#000000" stroke-width="0.6865" d="M159.728,274.773
					c-1.364,0.037-2.764,0.655-3.995,1.793c-1.057,0.977-2.717,4.501-2.717,5.765c0,1.503,1.528,3.318,3.63,4.312
					c0.628,0.298,1.953,0.536,2.94,0.545c3.488,0.029,5.631-3.282,5.07-7.807c-0.313-2.526-1.361-3.849-3.569-4.449
					C160.647,274.812,160.183,274.761,159.728,274.773L159.728,274.773z"/>
			</g>
			
		</g>
	</g>
</g>
</svg>
